<?xml version="1.0" encoding="utf-8"?>
<!-- Generator: Adobe Illustrator 24.2.3, SVG Export Plug-In . SVG Version: 6.00 Build 0)  -->
<svg version="1.1" id="Capa_1" xmlns="http://www.w3.org/2000/svg" xmlns:xlink="http://www.w3.org/1999/xlink" x="0px" y="0px"
	 viewBox="0 0 650 650" style="enable-background:new 0 0 650 650;" xml:space="preserve">
<style type="text/css">
	.st0{fill:#CB0001;}
	.st1{fill:#0066CA;}
	.st2{fill:#FEFDFE;}
	.st3{fill:#FCFDFD;}
	.st4{fill:#FDFCFC;}
	.st5{fill:#252224;}
</style>
<path class="st0" d="M459.01,509.96c-12.33,0-24.66,0-36.98,0c-0.29-0.66-0.9-0.42-1.39-0.48c-19.83-2.38-38.73-7.9-56.67-16.69
	c-14.61-7.16-27.89-16.28-40.03-27.09c2.66-2.69,5.36-5.35,7.98-8.07c3.18-3.3,6.35-6.62,9.39-10.58c-1.16,0-1.9,0-2.64,0
	c-10.04,0-20.08-0.05-30.12,0.05c-1.81,0.02-2.92-0.56-3.94-1.99c-2.69-3.78-5.52-7.44-8.24-11.2c-1.14-1.57-2.12-3.25-3.4-5.23
	c1.26,0,2.07,0,2.87,0c18.86,0,37.73-0.03,56.59,0.04c1.68,0.01,2.57-0.54,3.41-1.93c2.79-4.62,5.31-9.38,7.72-14.2
	c1.2-2.41,1.2-2.42-1.54-2.42c-25.63,0-51.27-0.02-76.9,0.04c-1.7,0-2.57-0.47-3.23-2.04c-1.99-4.68-3.83-9.41-5.56-14.19
	c-0.63-1.75-0.5-2.29,1.56-2.27c11.18,0.09,22.36,0.04,33.54,0.04c19.47,0,38.95-0.02,58.42,0.04c1.62,0,2.44-0.4,2.85-2.03
	c0.75-2.94,1.71-5.82,2.58-8.72c0.98-1.58,3.11-2.09,3.75-4l-0.03,0.08c0.38-0.04,0.5-0.32,0.58-0.63c4.3-2.6,7.68-6.03,9.04-10.97
	c2.6-9.44,1.88-19.33-7.67-25.39c-0.01-3.63-0.02-7.26-0.03-10.89c4.03-0.01,4.03-0.01,4.89-4.11c0.08-0.36,0.11-0.74,0.16-1.11
	c0.83,0.06,1.67,0.05,2.48,0.19c1.62,0.28,2.37-0.1,2.63-1.97c0.62-4.34,1.53-8.64,2.42-12.93c0.24-1.16,0.06-1.6-1.19-1.7
	c-4.6-0.37-9.2-0.83-13.8-1.25c-0.27-1.42-0.67-2.83-0.77-4.25c-0.15-2.08-1.05-2.62-3.15-2.62c-33.78,0.08-67.55,0.06-101.33,0.06
	c-0.89,0-1.78,0-2.82,0c1.16-5.74,2.76-11.11,4.45-16.46c0.5-1.57,1.22-2.07,2.86-2.06c12.78,0.07,25.56,0.04,38.34,0.04
	c17.88,0,35.76-0.02,53.63,0.03c1.75,0.01,2.28-0.26,1.6-2.1c-1.78-4.85-3.62-9.65-5.64-14.41c-0.68-1.6-1.54-2.01-3.21-2.01
	c-25.64,0.06-51.27,0.04-76.91,0.04c-0.79,0-1.58-0.07-2.61-0.11c2.76-5.74,5.71-11.02,8.74-16.27c0.88-1.52,1.8-2.06,3.56-2.06
	c18.87,0.07,37.73,0.05,56.6,0.03c0.79,0,1.64,0.26,2.54-0.31c-3.51-5.92-7.54-11.41-11.8-16.74c-0.84-1.06-1.71-1.47-3.06-1.46
	c-10.19,0.06-20.39,0.04-30.58,0.01c-0.77,0-1.62,0.28-2.39-0.31c5.32-6.62,11.34-12.42,17.28-18.29c0.76-0.63,1.54-1.24,2.29-1.88
	c39.8-33.92,85.8-47.64,137.59-41.46c27.61,3.29,52.85,13.34,75.82,29.06c56.36,38.57,85.34,107.61,72.71,174.71
	c-9.18,48.79-34.83,87.03-76.09,114.64c-20.2,13.52-42.49,22.04-66.49,26.05C466.14,508.84,462.5,508.96,459.01,509.96z
	 M542.06,375.33c0.18-0.18,0.37-0.35,0.55-0.53c3.65-2.77,7.01-5.83,9.42-9.78c6.43-10.53,8.17-21.99,6.05-33.96
	c-1.99-11.31-8.67-19-19.54-22.86c-13.19-4.69-35.23-3.12-47.85,12.32c-0.33,0.05-0.61,0.16-0.63,0.56c0,0,0.03-0.02,0.03-0.02
	c-1.04,0.02-1.5,0.88-2.1,1.49c-1.47,1.47-2.86,3.01-4.28,4.52c2.06-5.45,4.02-10.94,6.22-16.33c0.83-2.02,0.16-2.56-1.65-2.98
	c-5.52-1.28-10.49-0.24-15.09,3.05c-2.8,2-4.86,4.74-7.34,7.04c-0.06-0.08-0.12-0.15-0.19-0.23c0.48-2.68,0.9-5.36,1.45-8.02
	c0.27-1.32-0.06-1.73-1.43-1.7c-4.47,0.07-8.95,0.03-13.42,0.03c-4.43,0-4.43,0-5.36,4.2c-0.08,0.37-0.2,0.73-0.3,1.1
	c-4.31,0-4.36,0-5.16,4.27c-1.73,9.16-3.4,18.33-5.09,27.5c-2.32,12.52-4.62,25.04-6.96,37.56c-0.32,1.7,0.01,2.45,1.98,2.4
	c4.86-0.13,9.72-0.04,14.58-0.04c4.84,0,4.84,0,5.34-4.97c0.45-0.03,0.9-0.09,1.36-0.1c3.52-0.04,3.52-0.04,4.16-3.42
	c1.57-8.25,2.95-16.55,4.96-24.71c1.37-5.56,2.49-11.22,5.4-16.27c3.47-1.72,7.06-2.25,10.84-1.16c1.27,0.36,1.67,0.84,1.14,2.24
	c-3.02,8-3.65,16.29-2.31,24.69c1.85,11.55,8.13,19.61,19.35,23.51c5.84,2.03,11.92,2.37,18.03,2c9.36-0.58,18.15-2.94,25.56-9.07
	c0.59-0.49,1.55-0.78,1.41-1.85l-0.02,0.02c0.51,0.18,0.76-0.1,0.93-0.52C542.1,375.27,542.06,375.33,542.06,375.33z M422.64,380.23
	c1.23-0.35,2.47-0.69,3.7-1.04c0.56-0.16,1.12-0.18,1.26-1.02c0.85-4.98,1.77-9.94,2.7-15.06c-2.59,0.45-4.91,0.65-7.25,0.47
	c-4.88-0.38-6.63-2.51-5.75-7.39c1.55-8.58,3.23-17.13,4.86-25.7c0.45,0.01,0.91,0.03,1.36,0.04c5.14,0.04,5.14,0.04,6.14-4.96
	c0.76-0.04,1.54-0.22,2.26-0.09c1.88,0.33,2.45-0.55,2.72-2.26c0.7-4.49,1.53-8.97,2.4-13.43c0.31-1.58-0.22-1.97-1.72-1.9
	c-2.2,0.11-4.42-0.14-6.6,0.07c-2.32,0.23-2.53-0.69-2.11-2.64c0.88-4.07,1.51-8.2,2.38-12.27c0.3-1.37-0.01-1.66-1.34-1.64
	c-4.86,0.07-9.72,0.03-14.58,0.03c-5.23,0-5.23,0-6.29,5.09c-0.38-0.01-0.76-0.04-1.14-0.04c-3.79,0-3.27-0.24-3.88,3.12
	c-2.67,14.56-5.44,29.1-8.02,43.67c-1.52,8.59-3.65,17.08-4.34,25.81c-0.75,9.37,3.8,15.37,13.03,16.92
	c5.41,0.91,10.76,0.04,16.05-1.12C422.17,384.08,422.16,384.04,422.64,380.23z M566.34,374.25c0.04-3.07-2.49-5.64-5.6-5.68
	c-3.07-0.04-5.74,2.52-5.78,5.54c-0.04,2.99,2.59,5.66,5.64,5.71C563.65,379.86,566.3,377.29,566.34,374.25z"/>
<path class="st1" d="M375.3,381.04c-0.87,2.91-1.84,5.79-2.58,8.72c-0.42,1.63-1.23,2.03-2.85,2.03
	c-19.47-0.06-38.95-0.04-58.42-0.04c-11.18,0-22.36,0.05-33.54-0.04c-2.06-0.02-2.19,0.52-1.56,2.27c1.73,4.78,3.57,9.51,5.56,14.19
	c0.67,1.57,1.53,2.04,3.23,2.04c25.63-0.06,51.27-0.04,76.9-0.04c2.74,0,2.74,0.01,1.54,2.42c-2.41,4.82-4.93,9.58-7.72,14.2
	c-0.84,1.39-1.73,1.94-3.41,1.93c-18.86-0.07-37.73-0.04-56.59-0.04c-0.81,0-1.62,0-2.87,0c1.28,1.97,2.26,3.65,3.4,5.23
	c2.72,3.75,5.55,7.42,8.24,11.2c1.01,1.43,2.13,2.01,3.94,1.99c10.04-0.1,20.08-0.05,30.12-0.05c0.74,0,1.48,0,2.64,0
	c-3.03,3.96-6.21,7.28-9.39,10.58c-2.62,2.73-5.32,5.38-7.98,8.07c-3.83,3.09-7.59,6.28-11.5,9.26
	c-22.06,16.78-46.72,27.75-73.99,32.75c-4.69,0.86-9.42,1.5-14.12,2.25c-12.18,0-24.35,0-36.53,0c-0.27-0.67-0.9-0.45-1.38-0.5
	c-13.55-1.65-26.77-4.7-39.55-9.47c-36.2-13.52-64.97-36.42-86.16-68.69c-14.79-22.52-23.66-47.24-26.91-74
	c-0.38-3.11-0.17-6.31-1.25-9.33c0-7.45,0-14.91,0-22.36c0.53-0.26,0.4-0.76,0.43-1.19c0.46-7.06,1.35-14.06,2.73-21
	c7.84-39.65,26.92-72.96,57.68-99.09c38.79-32.96,83.9-46.37,134.51-40.73c29.28,3.26,55.85,13.85,79.91,30.8
	c5.6,3.94,10.74,8.46,16.07,12.72c-5.95,5.87-11.96,11.67-17.28,18.29c0.77,0.59,1.63,0.31,2.39,0.31
	c10.19,0.02,20.39,0.04,30.58-0.01c1.35-0.01,2.22,0.4,3.06,1.46c4.26,5.33,8.29,10.82,11.8,16.74c-0.9,0.57-1.75,0.31-2.54,0.31
	c-18.87,0.02-37.73,0.04-56.6-0.03c-1.76-0.01-2.69,0.54-3.56,2.06c-3.03,5.25-5.98,10.53-8.74,16.27c1.03,0.05,1.82,0.11,2.61,0.11
	c25.64,0.01,51.27,0.02,76.91-0.04c1.67,0,2.53,0.41,3.21,2.01c2.02,4.75,3.87,9.56,5.64,14.41c0.68,1.85,0.14,2.11-1.6,2.1
	c-17.88-0.05-35.76-0.03-53.63-0.03c-12.78,0-25.56,0.03-38.34-0.04c-1.64-0.01-2.36,0.49-2.86,2.06
	c-1.69,5.35-3.29,10.72-4.45,16.46c1.04,0,1.93,0,2.82,0c33.78,0,67.55,0.02,101.33-0.06c2.1,0,3.01,0.53,3.15,2.62
	c0.1,1.43,0.5,2.84,0.77,4.25c-2.66,0.03-5.33-0.07-7.98,0.1c-9.62,0.61-18.7,2.56-25.22,10.58c-0.16,0.13-0.33,0.26-0.49,0.39
	l0.07-0.05c-0.16,0.18-0.32,0.36-0.47,0.55l0.07-0.05c-1.01,0.09-1.56,0.87-2.2,1.48c-5.98,5.77-7.13,12.99-5.82,20.74
	c1.03,6.09,5.23,9.89,10.31,12.86c3.94,2.3,8.31,3.66,12.37,5.72c2.35,1.2,3.97,2.77,3.74,5.62c-0.89,0.18-1.77,0.43-2.67,0.52
	c-7.42,0.71-14.71-0.16-21.87-2.06c-1.91-0.51-2.36,0.13-2.58,1.74c-0.19,1.34-0.54,2.66-0.82,3.98c-1.03-0.28-2.05-0.56-3.08-0.84
	c-0.89-0.24-1.43-0.02-1.6,1c-0.75,4.57-1.52,9.13-2.34,13.68c-0.24,1.32,0.38,1.7,1.52,1.92c7.42,1.44,14.93,1.72,22.45,1.76
	C360.05,386.07,367.95,384.77,375.3,381.04z M276.37,320.2l0.07-0.05c-0.3,0.06-0.49,0.21-0.49,0.53l0.07-0.07
	c-0.46,0.14-0.97,0.26-0.51,0.92l-0.01,0.02c-1.88,0.05-2.49,1.73-3.4,2.85c-8.27,10.2-11.08,22.09-9.64,34.84
	c1.66,14.64,9.53,22.77,23.92,25.76c10.37,2.16,20.69,1.33,31-0.67c2.94-0.57,4.73-1.64,4.61-4.84c1.1-0.3,2.18-0.68,3.29-0.86
	c0.97-0.16,1.48-0.58,1.67-1.54c1.07-5.49,2.16-10.97,3.31-16.75c-5.77,2.2-11.41,3.82-17.32,4.28c-5.63,0.44-11.25,0.5-16.62-1.59
	c-3.65-1.42-6.37-3.79-7.08-7.89c10.84,0,21.67,0.01,32.51,0.01c4.94,0,4.94,0,5.88-4.97c0.6-0.04,1.22-0.2,1.81-0.11
	c2.01,0.3,2.9-0.38,3.3-2.53c0.8-4.18,1.6-8.35,1.93-12.6c0.99-12.99-5.35-23.02-17.17-26.9c-6.64-2.18-13.44-2.41-20.27-0.93
	c-8.19,1.77-14.72,6.28-20.13,12.54C276.85,319.84,276.61,320.02,276.37,320.2z M200.11,346.17l0.04-0.04
	c-0.33,0.01-0.58,0.09-0.46,0.51l0.01-0.01c-1.19-0.25-1.75,0.71-2.4,1.34c-6.52,6.22-8.75,13.91-7.3,22.63
	c1.27,7.61,5.8,12.82,13.27,14.62c9.63,2.32,18.7,0.61,26.69-5.6c0.62-0.48,1.04-1.33,2.05-1.29c0,1.54,0.15,3.05-0.04,4.53
	c-0.2,1.58,0.17,2.13,1.85,2.07c3.65-0.12,7.3-0.04,10.95-0.04c5.08,0,5.08,0,5.71-4.98c1.14-0.03,2.28-0.17,3.41-0.07
	c1.51,0.14,1.91-0.48,2.03-1.92c0.22-2.64,0.65-5.27,1.08-7.89c2.02-12.36,4.7-24.59,6.4-37.01c1.98-14.49-4.04-23.11-18.41-25.78
	c-10.44-1.94-20.71-0.45-30.97,1.67c-3.14,0.65-5.61,1.45-5.59,5.22c-1.19,0.25-2.38,0.48-3.56,0.75c-0.67,0.16-1.32,0.35-1.48,1.19
	c-0.89,4.5-1.81,9-2.71,13.5c-0.25,1.24,0.33,1.75,1.51,1.42c4.6-1.28,9.28-1.9,14.04-2.37c5.33-0.52,10.6-0.55,15.84,0.29
	c2.64,0.43,4.92,1.72,5.37,4.81c-4.25,0.07-8.51-0.06-12.75,0.5c-9.27,1.21-17.75,4.02-24.11,11.37
	C200.42,345.8,200.26,345.99,200.11,346.17z M142.72,336.62c-0.04-0.83-0.1-1.67-0.13-2.5c-0.39-13.52-0.77-27.05-1.16-40.57
	c-0.03-1.12,0.17-2.18-1.7-2.16c-10.27,0.1-20.54,0.07-30.8,0.02c-1.17-0.01-1.58,0.42-1.8,1.47c-0.26,1.22-0.06,2.59-1.06,3.6
	c-0.92,0.49-1.91,0.43-2.89,0.37c-1.33-0.08-2.03,0.21-2.2,1.8c-0.27,2.6-0.9,5.17-1.4,7.75c-2.39,12.19-4.84,24.38-7.16,36.58
	c-2.54,13.33-4.91,26.68-7.5,40c-0.33,1.67-0.04,1.96,1.5,1.94c4.18-0.06,8.37,0.02,12.55-0.04c1.81-0.02,4.03,0.74,5.31-0.35
	c1.02-0.86,0.94-3.02,1.34-4.61c0.98-0.03,1.97-0.16,2.94-0.08c1.32,0.11,1.84-0.37,2.08-1.7c1.47-8.03,3.01-16.05,4.58-24.07
	c1.46-7.49,2.98-14.96,4.48-22.44c0.32,4.77,0.69,9.55,0.94,14.32c0.67,12.37,1.32,24.74,1.89,37.11c0.07,1.57,0.72,1.87,2.1,1.84
	c3.65-0.07,7.3-0.02,10.96-0.02c5.37,0,5.37,0,7.41-4.97c2.95,0.55,4.15-1.07,5.15-3.61c1.99-5.06,4.3-9.99,6.51-14.97
	c4.16-9.39,8.34-18.77,12.51-28.16c0.01,0.6,0.13,1.23,0.02,1.81c-1.89,10.04-3.82,20.08-5.73,30.11
	c-1.17,6.13-2.28,12.28-3.48,18.41c-0.2,1-0.02,1.39,1.05,1.38c6.45-0.02,12.91-0.03,19.36,0c1.03,0,1.53-0.4,1.64-1.42
	c0.13-1.19,0.35-2.38,0.54-3.57c0.76-0.03,1.53-0.17,2.27-0.08c1.73,0.2,2.66-0.26,2.79-2.22c0.12-1.8,0.66-3.58,1.01-5.37
	c5.09-26.24,10.17-52.48,15.3-78.71c0.33-1.69,0.03-2.18-1.8-2.16c-8.98,0.1-17.97,0.32-26.93-0.07c-4.4-0.19-7.45,0.56-8.5,5.22
	c-4.33-0.16-4.32-0.16-6.08,3.84C153.31,312.46,148.01,324.54,142.72,336.62z"/>
<path class="st2" d="M490.7,320.52c12.62-15.44,34.66-17.01,47.85-12.32c10.88,3.87,17.55,11.55,19.54,22.86
	c2.11,11.97,0.37,23.43-6.05,33.96c-2.41,3.95-5.77,7.01-9.42,9.78c-0.28,0.08-0.59,0.13-0.55,0.53c0,0,0.04-0.07,0.04-0.07
	c-0.43-0.04-0.77,0.08-0.93,0.52c0,0,0.02-0.02,0.02-0.02c-10.06,5.34-20.79,6.77-32.01,5.53c-13.36-1.48-22.91-9.33-26.19-21.83
	c-1.79-6.8-1.65-13.68-0.46-20.57c1.13-6.54,3.96-12.35,7.58-17.83c0,0-0.03,0.02-0.03,0.02
	C490.28,320.9,490.49,320.71,490.7,320.52z M511.1,331.09c-0.09,0.14-0.19,0.27-0.28,0.41c-4.77,7.75-6.29,16.01-3.39,24.74
	c1.59,4.79,5.03,7.73,10.26,7.93c3.69,0.15,6.67-1.66,9.34-4.03c0.25-0.21,0.82-0.18,0.57-0.76l-0.02,0.11
	c0.87-0.08,1.25-0.82,1.71-1.36c6.89-8.04,7.84-17.38,5.3-27.14c-1.44-5.55-6.81-8.35-12.48-7.44c-4.88,0.79-8.46,3.45-11.02,7.6
	C511.09,331.14,511.1,331.09,511.1,331.09z"/>
<path class="st3" d="M345.34,317.06c6.52-8.02,15.6-9.97,25.22-10.58c2.65-0.17,5.32-0.07,7.98-0.1c4.6,0.42,9.2,0.88,13.8,1.25
	c1.25,0.1,1.43,0.54,1.19,1.7c-0.89,4.29-1.8,8.59-2.42,12.93c-0.27,1.87-1.02,2.25-2.63,1.97c-0.81-0.14-1.65-0.13-2.48-0.19
	c-2.94-0.22-5.88-0.49-8.82-0.64c-2.96-0.15-5.93-0.11-8.77,0.85c-2.17,0.73-4.02,1.85-3.99,4.56c-0.63,3.04,1.36,4.35,3.63,5.46
	c4.26,2.08,8.79,3.55,12.94,5.88c9.55,6.06,10.27,15.95,7.67,25.39c-1.36,4.94-4.74,8.37-9.04,10.97c-0.25,0.16-0.71,0.12-0.58,0.63
	c0,0,0.03-0.08,0.03-0.08c-1.96,0.24-3.61,1.37-5.49,1.84c-13.07,3.24-26.16,2.17-39.26,0.15c-1.43-0.22-0.95-1.09-0.84-1.82
	c0.47-2.91,0.99-5.81,1.5-8.71c0.28-1.33,0.63-2.64,0.82-3.98c0.23-1.61,0.68-2.25,2.58-1.74c7.16,1.91,14.45,2.78,21.87,2.06
	c0.9-0.09,1.78-0.34,2.67-0.52c0.36-0.08,0.74-0.13,1.09-0.24c2.44-0.76,4.08-2.23,4.35-4.93c0.27-2.67-1.09-4.3-3.32-5.38
	c-1.91-0.92-3.83-1.8-5.78-2.64c-3.69-1.59-7.32-3.24-10.53-5.74c-5.11-3.98-7.4-9.15-7.26-15.61c0.09-4.25,1.58-8.04,3.05-11.88
	c0,0-0.07,0.05-0.07,0.05c0.58,0.18,0.49-0.21,0.47-0.55c0,0-0.07,0.05-0.07,0.05C345.23,317.6,345.25,317.28,345.34,317.06z"/>
<path class="st4" d="M422.16,330.5c-1.63,8.56-3.31,17.12-4.86,25.7c-0.88,4.88,0.87,7,5.75,7.39c2.34,0.18,4.66-0.02,7.25-0.47
	c-0.92,5.12-1.85,10.08-2.7,15.06c-0.14,0.84-0.7,0.86-1.26,1.02c-1.23,0.35-2.47,0.69-3.7,1.04c-4.14,0.53-8.25,1.25-12.45,1.02
	c-10.01-0.54-15.62-6.39-15.36-16.2c0.08-2.8,0.42-5.59,0.93-8.36c3.69-20.05,7.35-40.1,11.02-60.15c1.06-5.09,1.06-5.09,6.29-5.09
	c4.86,0,9.72,0.04,14.58-0.03c1.33-0.02,1.64,0.27,1.34,1.64c-0.88,4.07-1.5,8.2-2.38,12.27c-0.42,1.95-0.21,2.86,2.11,2.64
	c2.18-0.21,4.41,0.04,6.6-0.07c1.5-0.07,2.03,0.31,1.72,1.9c-0.87,4.46-1.7,8.94-2.4,13.43c-0.27,1.71-0.84,2.59-2.72,2.26
	c-0.73-0.13-1.51,0.05-2.26,0.09c-0.52-0.04-1.05-0.12-1.57-0.12C423,325.4,423,325.4,422.16,330.5z"/>
<path class="st4" d="M467.18,335.42c-2.91,5.05-4.03,10.71-5.4,16.27c-2.01,8.16-3.39,16.46-4.96,24.71
	c-0.64,3.38-0.64,3.38-4.16,3.42c-0.45,0.01-0.9,0.06-1.36,0.1c-4.86-0.03-9.72-0.16-14.57-0.06c-1.89,0.04-2.26-0.48-1.92-2.27
	c2.26-11.91,4.45-23.83,6.64-35.76c1.75-9.54,3.44-19.08,5.16-28.62c0.1-0.36,0.22-0.73,0.3-1.1c0.93-4.2,0.93-4.2,5.36-4.2
	c4.47,0,8.95,0.04,13.42-0.03c1.37-0.02,1.7,0.39,1.43,1.7c-0.55,2.66-0.97,5.35-1.45,8.03c-0.04,0.18-0.15,0.5-0.11,0.52
	c0.29,0.14,0.26-0.12,0.3-0.29c2.49-2.3,4.54-5.04,7.34-7.04c4.6-3.28,9.58-4.32,15.09-3.05c1.8,0.42,2.48,0.96,1.65,2.98
	c-2.21,5.39-4.17,10.88-6.22,16.32c-0.39,1.53-1.19,1.77-2.8,1.44C474.24,327.14,469.37,329.68,467.18,335.42z"/>
<path class="st5" d="M467.18,335.42c2.19-5.74,7.06-8.28,13.74-6.91c1.61,0.33,2.41,0.09,2.8-1.44c1.42-1.51,2.81-3.05,4.27-4.52
	c0.6-0.6,1.07-1.47,2.1-1.49c-3.62,5.48-6.45,11.29-7.58,17.83c-1.19,6.89-1.32,13.77,0.46,20.57c3.28,12.5,12.83,20.35,26.19,21.83
	c11.22,1.24,21.94-0.18,32.01-5.53c0.15,1.08-0.81,1.36-1.41,1.85c-7.41,6.13-16.19,8.49-25.56,9.07c-6.1,0.38-12.18,0.04-18.03-2
	c-11.22-3.9-17.5-11.96-19.35-23.51c-1.34-8.39-0.71-16.68,2.31-24.69c0.53-1.4,0.13-1.88-1.14-2.24
	C474.24,333.17,470.65,333.7,467.18,335.42z"/>
<path class="st5" d="M406.78,296.53c-3.67,20.05-7.33,40.11-11.02,60.15c-0.51,2.77-0.86,5.56-0.93,8.36
	c-0.26,9.81,5.35,15.66,15.36,16.2c4.21,0.23,8.32-0.49,12.45-1.02c-0.48,3.81-0.47,3.85-4.17,4.66
	c-5.29,1.17-10.64,2.03-16.05,1.12c-9.23-1.55-13.78-7.55-13.03-16.92c0.7-8.73,2.82-17.22,4.34-25.81
	c2.58-14.57,5.35-29.12,8.02-43.67c0.62-3.36,0.09-3.12,3.88-3.12C406.02,296.49,406.4,296.51,406.78,296.53z"/>
<path class="st5" d="M446.62,313.22c-1.72,9.54-3.42,19.08-5.16,28.62c-2.18,11.92-4.37,23.85-6.64,35.76
	c-0.34,1.79,0.03,2.31,1.92,2.27c4.85-0.1,9.71,0.02,14.57,0.06c-0.5,4.97-0.5,4.97-5.34,4.97c-4.86,0-9.73-0.09-14.58,0.04
	c-1.98,0.05-2.3-0.69-1.98-2.4c2.34-12.52,4.65-25.04,6.96-37.56c1.7-9.17,3.37-18.34,5.09-27.5
	C442.26,313.21,442.31,313.22,446.62,313.22z"/>
<path class="st5" d="M334.96,368.5c-0.5,2.9-1.03,5.8-1.5,8.71c-0.12,0.73-0.59,1.6,0.84,1.82c13.1,2.02,26.18,3.09,39.26-0.15
	c1.88-0.47,3.53-1.6,5.49-1.84c-0.64,1.91-2.77,2.42-3.75,4c-7.35,3.73-15.25,5.03-23.38,4.99c-7.52-0.04-15.03-0.31-22.45-1.76
	c-1.13-0.22-1.75-0.6-1.52-1.92c0.82-4.55,1.59-9.12,2.34-13.68c0.17-1.02,0.7-1.24,1.6-1C332.91,367.94,333.94,368.22,334.96,368.5
	z"/>
<path class="st1" d="M380.97,340.14c-4.15-2.33-8.68-3.8-12.94-5.88c-2.26-1.11-4.26-2.42-3.63-5.46c5.54-0.78,11.04-0.3,16.54,0.45
	C380.95,332.88,380.96,336.51,380.97,340.14z"/>
<path class="st5" d="M380.94,329.25c-5.5-0.75-11-1.23-16.54-0.45c-0.03-2.71,1.82-3.83,3.99-4.56c2.84-0.96,5.81-1,8.77-0.85
	c2.94,0.15,5.88,0.42,8.82,0.64c-0.05,0.37-0.09,0.74-0.16,1.11C384.97,329.24,384.97,329.24,380.94,329.25z"/>
<path class="st4" d="M566.34,374.25c-0.04,3.05-2.69,5.62-5.73,5.57c-3.04-0.05-5.68-2.72-5.64-5.71c0.04-3.02,2.71-5.58,5.78-5.54
	C563.84,368.61,566.38,371.18,566.34,374.25z M564.83,374.16c-0.01-2.28-1.93-4.23-4.16-4.24c-2.33-0.01-4.41,2.02-4.4,4.29
	c0.01,2.24,2.17,4.31,4.44,4.27C562.92,378.43,564.85,376.4,564.83,374.16z"/>
<path class="st5" d="M422.16,330.5c0.85-5.1,0.85-5.1,5.93-5.05c0.52,0.01,1.05,0.08,1.57,0.12c-1,5-1,5-6.14,4.96
	C423.07,330.53,422.61,330.51,422.16,330.5z"/>
<path class="st5" d="M541.17,375.79c0.17-0.44,0.5-0.56,0.93-0.52C541.93,375.69,541.68,375.97,541.17,375.79z"/>
<path class="st5" d="M542.06,375.33c-0.03-0.4,0.28-0.45,0.55-0.53C542.43,374.98,542.24,375.16,542.06,375.33z"/>
<path class="st5" d="M379.02,377.13c-0.13-0.51,0.34-0.47,0.58-0.63C379.52,376.81,379.39,377.08,379.02,377.13z"/>
<path class="st5" d="M490.7,320.52c-0.21,0.19-0.42,0.37-0.63,0.56C490.09,320.68,490.37,320.58,490.7,320.52z"/>
<path class="st3" d="M106.06,296.47c1.01-1,0.81-2.38,1.06-3.6c0.22-1.05,0.64-1.47,1.8-1.47c10.27,0.05,20.54,0.08,30.8-0.02
	c1.87-0.02,1.67,1.04,1.7,2.16c0.39,13.52,0.77,27.05,1.16,40.57c0.02,0.83,0.08,1.67,0.13,2.5c0,2.82,0,5.65,0,8.47
	c0.22,0.02,0.43,0.04,0.65,0.06c2.1-4.76,4.22-9.52,6.3-14.28c5.01-11.44,10.01-22.88,15.02-34.33c1.05-4.67,4.1-5.41,8.5-5.22
	c8.96,0.39,17.95,0.17,26.93,0.07c1.83-0.02,2.13,0.47,1.8,2.16c-5.13,26.23-10.21,52.47-15.3,78.71c-0.35,1.79-0.89,3.56-1.01,5.37
	c-0.13,1.96-1.06,2.43-2.79,2.22c-0.74-0.09-1.51,0.05-2.27,0.08c-5.71,0-11.43,0-17.23,0c4.15-21.86,8.24-43.4,12.33-64.93
	c-0.19-0.05-0.39-0.11-0.58-0.16c-1.04,2.28-2.14,4.53-3.12,6.84c-1.63,3.83-3.2,7.68-4.79,11.53c-4.17,9.38-8.35,18.77-12.51,28.16
	c-2.2,4.98-4.52,9.91-6.51,14.97c-1,2.53-2.2,4.15-5.15,3.61c-4.64-0.04-9.28-0.16-13.91-0.06c-1.76,0.04-2.33-0.46-2.41-2.23
	c-0.59-12.6-1.27-25.2-1.94-37.8c-0.46-8.66-0.96-17.33-1.44-25.99c-1.18,4.34-2.05,8.7-2.87,13.08c-0.3,1.56-0.49,3.14-0.74,4.72
	c-1.49,7.48-3.01,14.95-4.48,22.44c-1.56,8.02-3.11,16.04-4.58,24.07c-0.24,1.32-0.77,1.81-2.08,1.7c-0.97-0.08-1.96,0.04-2.94,0.08
	c-4.33-0.03-8.65-0.1-12.98-0.09c-1.56,0.01-2.47-0.07-1.74-2.12c0.66-1.86,0.79-3.9,1.16-5.87c1.25-6.75,2.48-13.51,3.76-20.26
	c1.12-5.88,2.34-11.74,3.48-17.62c1.66-8.55,3.39-17.08,4.87-25.66C104.84,304.37,106.04,300.51,106.06,296.47z"/>
<path class="st3" d="M200.57,345.62c6.36-7.35,14.84-10.16,24.11-11.37c4.24-0.55,8.49-0.42,12.75-0.5
	c0.51,0.13,1.02,0.26,1.53,0.38c2.92,0.69,3.74,0.15,4.09-2.83c0.55-4.78-0.81-5.83-4.03-6.96c-2.19-0.77-4.61-1.07-7-1.14
	c-7.85-0.21-15.6,0.35-23.2,2.47c-2.43,0.68-2.56,0.44-2.07-1.99c0.64-3.17,1.13-6.36,1.68-9.54c-0.02-3.77,2.45-4.57,5.59-5.22
	c10.26-2.12,20.54-3.61,30.97-1.67c14.37,2.67,20.39,11.28,18.41,25.78c-1.7,12.41-4.38,24.65-6.4,37.01
	c-0.43,2.62-0.86,5.25-1.08,7.89c-0.12,1.44-0.53,2.05-2.03,1.92c-1.13-0.1-2.27,0.04-3.41,0.07c-3.8-0.03-7.6-0.11-11.4-0.08
	c-1.2,0.01-1.63-0.31-1.49-1.54c0.2-1.81,0.27-3.63,0.43-5.88c-6.94,6.96-15.11,8.85-24,8.48c-10.8-0.44-18.21-8.14-18.47-18.93
	c-0.13-5.56,1.45-10.6,4.16-15.36c0,0-0.01,0.01-0.01,0.01c0.33-0.01,0.43-0.23,0.46-0.51c0,0-0.04,0.04-0.04,0.04
	C200.26,345.99,200.42,345.8,200.57,345.62z M233.5,362.12l-0.02,0.04c4.49-3.37,5.68-8.3,6.31-13.48c0.15-1.24-0.94-0.97-1.59-1.03
	c-4.33-0.36-8.65-0.18-12.85,0.94c-3.5,0.93-6.73,2.41-8.08,6.22c-2.18,6.02,0.71,10.82,6.61,10.94c3.36,0.07,6.43-0.79,9.07-2.96
	C233.14,362.57,233.32,362.34,233.5,362.12z"/>
<path class="st3" d="M277.08,319.66c5.41-6.27,11.93-10.77,20.13-12.54c6.82-1.48,13.63-1.25,20.27,0.93
	c11.82,3.88,18.16,13.91,17.17,26.9c-0.32,4.25-1.13,8.42-1.93,12.6c-0.41,2.15-1.29,2.82-3.3,2.53c-0.58-0.09-1.2,0.07-1.81,0.11
	c-0.83-0.05-1.66-0.14-2.49-0.14c-10.92-0.01-21.84-0.01-32.76-0.01c-3.69,0-3.99,0.35-3.4,4c0.06,0.37,0.18,0.74,0.26,1.1
	c0.72,4.1,3.43,6.47,7.08,7.89c5.37,2.09,10.99,2.03,16.62,1.59c5.91-0.46,11.55-2.08,17.32-4.28c-1.14,5.78-2.24,11.26-3.31,16.75
	c-0.19,0.96-0.7,1.38-1.67,1.54c-1.11,0.18-2.2,0.57-3.29,0.86c-0.52,0.06-1.06,0.09-1.57,0.19c-9.58,1.76-19.19,2.26-28.78,0.19
	c-12.4-2.68-20.77-9.69-23.28-22.57c-1.29-6.65-0.91-13.3,0.48-19.92c1.2-5.71,3.81-10.81,6.66-15.82c0,0,0.01-0.02,0.01-0.02
	c0.42-0.17,0.83-0.34,0.51-0.92c0,0-0.07,0.07-0.07,0.07c0.54,0.16,0.59-0.12,0.49-0.53c0,0-0.07,0.05-0.07,0.05
	C276.86,320.34,276.92,319.94,277.08,319.66z M294.17,328.76c-0.32,0.06-0.41,0.28-0.41,0.56c-1.19,1.43-1.64,3.2-2.24,4.9
	c-0.34,0.94-0.01,1.36,1.06,1.35c6.05-0.06,12.09-0.08,18.14-0.11c1.13,0.03,2.27,0.08,3.4,0.1c0.44,0.01,0.84,0.04,1.09-0.54
	c1.39-3.29-0.89-9.35-4.24-11.14c-5.71-3.06-13.57-0.77-16.83,4.91L294.17,328.76z"/>
<path class="st5" d="M275.5,321.56c-2.85,5.01-5.46,10.11-6.66,15.82c-1.4,6.62-1.78,13.27-0.48,19.92
	c2.5,12.88,10.87,19.89,23.28,22.57c9.59,2.07,19.2,1.57,28.78-0.19c0.52-0.1,1.05-0.13,1.57-0.19c0.13,3.2-1.67,4.27-4.61,4.84
	c-10.32,2-20.63,2.82-31,0.67c-14.39-2.99-22.26-11.12-23.92-25.76c-1.44-12.75,1.37-24.64,9.64-34.84
	C273.01,323.28,273.62,321.61,275.5,321.56z"/>
<path class="st5" d="M106.06,296.47c-0.02,4.04-1.22,7.9-1.9,11.83c-1.48,8.58-3.21,17.12-4.87,25.66
	c-1.14,5.88-2.36,11.74-3.48,17.62c-1.29,6.75-2.51,13.51-3.76,20.26c-0.36,1.96-0.5,4.01-1.16,5.87c-0.73,2.05,0.18,2.12,1.74,2.12
	c4.33-0.01,8.65,0.05,12.98,0.09c-0.41,1.58-0.33,3.74-1.34,4.61c-1.28,1.09-3.5,0.33-5.31,0.35c-4.18,0.05-8.37-0.02-12.55,0.04
	c-1.53,0.02-1.82-0.26-1.5-1.94c2.59-13.32,4.96-26.67,7.5-40c2.32-12.21,4.78-24.39,7.16-36.58c0.5-2.58,1.13-5.15,1.4-7.75
	c0.16-1.59,0.86-1.89,2.2-1.8C104.15,296.9,105.14,296.96,106.06,296.47z"/>
<path class="st5" d="M199.7,346.63c-2.72,4.76-4.29,9.79-4.16,15.36c0.26,10.79,7.66,18.49,18.47,18.93c8.9,0.36,17.07-1.53,24-8.48
	c-0.16,2.25-0.22,4.07-0.43,5.88c-0.14,1.23,0.29,1.55,1.49,1.54c3.8-0.04,7.6,0.04,11.4,0.08c-0.63,4.98-0.63,4.98-5.71,4.98
	c-3.65,0-7.3-0.09-10.95,0.04c-1.69,0.06-2.06-0.49-1.85-2.07c0.19-1.47,0.04-2.99,0.04-4.53c-1.01-0.04-1.42,0.8-2.05,1.29
	c-7.99,6.21-17.05,7.92-26.69,5.6c-7.47-1.8-12-7.01-13.27-14.62c-1.45-8.72,0.77-16.42,7.3-22.63
	C197.95,347.34,198.51,346.38,199.7,346.63z"/>
<path class="st5" d="M167.16,333.19c1.59-3.84,3.15-7.7,4.79-11.53c0.98-2.3,2.08-4.56,3.12-6.84c0.19,0.05,0.39,0.11,0.58,0.16
	c-4.09,21.54-8.18,43.08-12.33,64.93c5.8,0,11.52,0,17.23,0c-0.18,1.19-0.4,2.37-0.54,3.57c-0.12,1.02-0.61,1.42-1.64,1.42
	c-6.45-0.03-12.91-0.02-19.36,0c-1.06,0-1.24-0.38-1.05-1.38c1.2-6.13,2.31-12.27,3.48-18.41c1.91-10.04,3.84-20.07,5.73-30.11
	C167.29,334.42,167.17,333.8,167.16,333.19z"/>
<path class="st5" d="M344.51,317.9c-1.48,3.84-2.96,7.63-3.05,11.88c-0.14,6.46,2.15,11.63,7.26,15.61
	c3.21,2.5,6.84,4.15,10.53,5.74c1.94,0.84,3.87,1.72,5.78,2.64c2.23,1.08,3.59,2.71,3.32,5.38c-0.27,2.71-1.9,4.17-4.35,4.93
	c-0.35,0.11-0.73,0.16-1.09,0.24c0.22-2.85-1.39-4.42-3.74-5.62c-4.05-2.06-8.43-3.42-12.37-5.72c-5.09-2.97-9.29-6.77-10.31-12.86
	c-1.31-7.75-0.16-14.97,5.82-20.74C342.95,318.77,343.5,317.98,344.51,317.9z"/>
<path class="st5" d="M119.69,331.65c0.24-1.57,0.44-3.15,0.74-4.72c0.83-4.37,1.69-8.74,2.87-13.08c0.48,8.66,0.98,17.32,1.44,25.99
	c0.67,12.6,1.35,25.2,1.94,37.8c0.08,1.77,0.66,2.26,2.41,2.23c4.63-0.1,9.27,0.02,13.91,0.06c-2.04,4.97-2.04,4.97-7.41,4.97
	c-3.65,0-7.3-0.05-10.96,0.02c-1.38,0.03-2.03-0.27-2.1-1.84c-0.58-12.37-1.23-24.74-1.89-37.11
	C120.38,341.19,120.01,336.42,119.69,331.65z"/>
<path class="st5" d="M208.42,314.15c-0.55,3.18-1.04,6.38-1.68,9.54c-0.49,2.43-0.36,2.67,2.07,1.99c7.6-2.13,15.35-2.69,23.2-2.47
	c2.39,0.06,4.81,0.36,7,1.14c3.22,1.14,4.58,2.19,4.03,6.96c-0.34,2.98-1.17,3.52-4.09,2.83c-0.51-0.12-1.02-0.25-1.53-0.38
	c-0.46-3.09-2.73-4.38-5.37-4.81c-5.25-0.84-10.51-0.81-15.84-0.29c-4.76,0.47-9.44,1.09-14.04,2.37c-1.17,0.33-1.75-0.18-1.51-1.42
	c0.9-4.5,1.82-9,2.71-13.5c0.17-0.85,0.82-1.04,1.48-1.19C206.04,314.63,207.23,314.4,208.42,314.15z"/>
<path class="st5" d="M164.69,296.54c-5,11.44-10,22.89-15.02,34.33c-2.09,4.77-4.2,9.52-6.3,14.28c-0.22-0.02-0.43-0.04-0.65-0.06
	c0-2.82,0-5.65,0-8.47c5.3-12.08,10.6-24.16,15.89-36.24C160.36,296.38,160.36,296.38,164.69,296.54z"/>
<path class="st5" d="M289.23,355.15c-0.09-0.37-0.2-0.73-0.26-1.1c-0.59-3.65-0.29-4,3.4-4c10.92,0,21.84,0,32.76,0.01
	c0.83,0,1.66,0.09,2.49,0.14c-0.94,4.97-0.94,4.97-5.88,4.97C310.9,355.15,300.06,355.15,289.23,355.15z"/>
<path class="st5" d="M276.03,320.62c0.32,0.58-0.1,0.75-0.51,0.92C275.06,320.88,275.57,320.76,276.03,320.62z"/>
<path class="st5" d="M345.34,317.06c-0.08,0.23-0.1,0.55-0.49,0.39C345.01,317.31,345.17,317.18,345.34,317.06z"/>
<path class="st5" d="M344.92,317.4c0.02,0.33,0.1,0.73-0.47,0.55C344.6,317.76,344.76,317.58,344.92,317.4z"/>
<path class="st5" d="M200.15,346.13c-0.04,0.28-0.13,0.5-0.46,0.51C199.56,346.22,199.82,346.14,200.15,346.13z"/>
<path class="st5" d="M200.57,345.62c-0.15,0.18-0.31,0.37-0.46,0.55C200.26,345.99,200.42,345.8,200.57,345.62z"/>
<path class="st5" d="M276.45,320.15c0.1,0.42,0.05,0.7-0.49,0.53C275.96,320.36,276.15,320.21,276.45,320.15z"/>
<path class="st5" d="M277.08,319.66c-0.16,0.28-0.23,0.68-0.71,0.54C276.61,320.02,276.85,319.84,277.08,319.66z"/>
<path class="st0" d="M527.03,360.14c-2.67,2.38-5.65,4.18-9.34,4.03c-5.23-0.21-8.67-3.15-10.26-7.93
	c-2.9-8.74-1.38-16.99,3.39-24.74c0.09-0.14,0.19-0.27,0.28-0.41c0,0-0.02,0.05-0.02,0.05c0.7-0.29,1.4-0.56,2.09-0.86
	c7.8-3.31,14.99,0.22,16.88,8.33c0.64,2.75,0.68,5.54,0.48,8.36c-0.32,4.34-1.29,8.5-2.95,12.51c0,0,0.02-0.11,0.02-0.11
	C527.41,359.64,527.22,359.89,527.03,360.14z"/>
<path class="st5" d="M527.58,359.49c1.67-4.01,2.64-8.17,2.95-12.51c0.21-2.82,0.16-5.61-0.48-8.36
	c-1.88-8.11-9.08-11.64-16.88-8.33c-0.69,0.29-1.39,0.57-2.09,0.86c2.56-4.14,6.14-6.81,11.02-7.6c5.67-0.91,11.04,1.89,12.48,7.44
	c2.54,9.76,1.59,19.1-5.3,27.14C528.82,358.67,528.44,359.41,527.58,359.49z"/>
<path class="st5" d="M527.03,360.14c0.19-0.25,0.38-0.51,0.57-0.76C527.84,359.96,527.28,359.93,527.03,360.14z"/>
<path class="st5" d="M511.1,331.09c-0.09,0.14-0.19,0.27-0.28,0.41C510.91,331.37,511.01,331.23,511.1,331.09z"/>
<path class="st0" d="M465.86,317.85c-0.04,0.17,0,0.43-0.3,0.29c-0.04-0.02,0.07-0.34,0.11-0.52
	C465.74,317.7,465.8,317.77,465.86,317.85z"/>
<path class="st0" d="M564.83,374.16c0.01,2.25-1.92,4.27-4.12,4.31c-2.27,0.04-4.43-2.03-4.44-4.27c-0.01-2.27,2.07-4.3,4.4-4.29
	C562.91,369.92,564.82,371.88,564.83,374.16z M560.18,374.79c1.14,0.25,0.75,2.08,1.84,1.78c1.39-0.38-0.42-1.48,0.21-2.22
	c0.23-0.27,0.39-0.66,0.43-1.01c0.1-0.89-0.37-1.51-1.24-1.56c-0.83-0.04-2.19-0.58-2.39,0.38c-0.29,1.41-0.49,3.02,0.25,4.56
	C560.22,376.23,559.66,375.35,560.18,374.79z"/>
<path class="st1" d="M232.96,362.79c-2.64,2.17-5.71,3.03-9.07,2.96c-5.9-0.12-8.79-4.93-6.61-10.95c5.2-2.02,10.59-2.54,16.11-2.07
	c1.46,0.12,1.86,0.65,1.7,2.16c-0.27,2.5-1.35,4.78-1.62,7.26c0,0,0.02-0.04,0.02-0.04C233.06,362.14,233.06,362.5,232.96,362.79z"
	/>
<path class="st5" d="M233.48,362.15c0.26-2.48,1.34-4.76,1.62-7.26c0.16-1.51-0.24-2.04-1.7-2.16c-5.53-0.46-10.91,0.05-16.11,2.07
	c1.35-3.81,4.58-5.29,8.08-6.22c4.2-1.11,8.52-1.29,12.85-0.94c0.65,0.05,1.74-0.22,1.59,1.03
	C239.16,353.85,237.97,358.78,233.48,362.15z"/>
<path class="st5" d="M232.96,362.79c0.1-0.29,0.11-0.65,0.54-0.67C233.32,362.34,233.14,362.57,232.96,362.79z"/>
<path class="st5" d="M294.12,328.78c3.27-5.67,11.12-7.96,16.83-4.91c3.35,1.79,5.63,7.85,4.24,11.14
	c-0.24,0.58-0.65,0.54-1.09,0.54c-1.13-0.02-2.27-0.06-3.4-0.1c-0.75-4.53-3.62-7.11-8.17-7.63
	C299.63,327.49,296.9,328.25,294.12,328.78z"/>
<path class="st1" d="M294.12,328.78c2.78-0.53,5.5-1.29,8.42-0.96c4.55,0.53,7.43,3.1,8.17,7.63c-6.05,0.03-12.09,0.05-18.14,0.11
	c-1.06,0.01-1.39-0.41-1.06-1.35c0.6-1.69,1.05-3.47,2.24-4.9c0.14-0.19,0.27-0.38,0.41-0.56L294.12,328.78z"/>
<path class="st5" d="M294.17,328.76c-0.14,0.19-0.27,0.38-0.41,0.56C293.76,329.04,293.85,328.82,294.17,328.76z"/>
<path class="st4" d="M597.46,437.81c-2.24-0.01-4.14-1.98-4.15-4.27c-0.01-2.3,1.88-4.27,4.12-4.31c2.31-0.03,4.44,2.01,4.46,4.27
	C601.9,435.76,599.77,437.83,597.46,437.81z M595.62,433.61c0,0.23-0.04,0.46,0.01,0.68c0.11,0.55-0.36,1.42,0.36,1.59
	c1.01,0.25,0.57-0.77,0.76-1.24c0.29-0.73,0.66-0.76,1.07-0.11c0.32,0.51,0.15,1.68,1.08,1.37c0.92-0.31,0-1.12,0.03-1.71
	c0.02-0.34,0.31-0.66,0.42-1.01c0.4-1.19-0.05-1.88-1.26-2.12C595.94,430.62,595.62,430.95,595.62,433.61z"/>
<path class="st4" d="M560.18,374.79c-0.51,0.56,0.05,1.44-0.89,1.93c-0.75-1.54-0.54-3.15-0.25-4.56c0.2-0.96,1.56-0.43,2.39-0.38
	c0.87,0.05,1.34,0.67,1.24,1.56c-0.04,0.35-0.2,0.74-0.43,1.01c-0.63,0.74,1.18,1.84-0.21,2.22
	C560.93,376.87,561.32,375.04,560.18,374.79z"/>
</svg>
