<?xml version="1.0" encoding="utf-8"?>
<!-- Generator: Adobe Illustrator 24.2.3, SVG Export Plug-In . SVG Version: 6.00 Build 0)  -->
<svg version="1.1" xmlns="http://www.w3.org/2000/svg" xmlns:xlink="http://www.w3.org/1999/xlink" x="0px" y="0px"
	 viewBox="0 0 650 650" style="enable-background:new 0 0 650 650;" xml:space="preserve">
<style type="text/css">
	.st0{display:none;}
	.st1{display:inline;}
	.st2{fill:#1C5A99;}
	.st3{fill:#E6A73A;}
	.st4{fill:#CB0001;}
	.st5{fill:#0066CA;}
	.st6{fill:#FEFDFE;}
	.st7{fill:#FCFDFD;}
	.st8{fill:#FDFCFC;}
	.st9{fill:#252224;}
	.st10{fill:#F69E1A;}
	.st11{fill:#E9011B;}
	.st12{fill:#FE5F01;}
	.st13{fill:#FFFFFF;}
	.st14{fill:#FEFEFE;}
</style>
<g id="Capa_1" class="st0">
	<g class="st1">
		<path class="st2" d="M28.37,191.64c-0.64-0.04-1.31,0.04-1.9-0.15c-1.34-0.44-3.64,0.57-3.45-2.28c0.16-2.33,1.12-3.23,3.62-3.16
			c6.62,0.19,13.26,0.08,19.89,0.06c1.4,0,2.8-0.1,4.2-0.15c1.91,0.04,3.82,0.1,5.74,0.1c17.09,0.05,34.18,0.08,51.26,0.12
			c0.31,3.82,0.61,7.64,0.92,11.45c-0.03,1.42-0.57,2.89,0.43,4.2c0.04,6.33,0.26,12.64,1.12,18.92c-0.03,1.42-0.57,2.89,0.43,4.2
			c-0.01,6.33,0.38,12.63,1.12,18.92c-0.03,1.42-0.57,2.89,0.43,4.2c0.37,7.33,0.74,14.67,1.11,22c-0.04,1.42-0.56,2.89,0.42,4.21
			c-0.09,11.23,1.41,22.4,1.38,33.6c0.78-2.55,1.56-5.1,2.34-7.65c0.88-2.08,1.76-4.16,2.64-6.23c0.91-1.77,1.83-3.54,2.74-5.31
			c2.04-3.81,4.08-7.63,6.13-11.44c1.03-1.83,2.07-3.65,3.1-5.48c1.21-2.06,2.96-3.82,3.43-6.27c2.46-3.6,4.75-7.29,6.42-11.33
			c2.66-3.69,4.85-7.65,6.81-11.75c4.94-7.37,8.93-15.29,13.35-22.96c1.56-2.84,3.12-5.67,4.67-8.51c1.25-0.72,1.57-1.97,1.86-3.24
			c2.67-3.92,5.15-7.94,7.04-12.31c0.96-0.48,1.31-1.34,1.43-2.34c0.21-0.15,0.31-0.35,0.3-0.6l0.06,0.03
			c0.41-0.63,0.96-1.21,1.21-1.9c1.38-3.75,3.97-4.64,7.9-4.56c12,0.25,24.02,0,36.03-0.05c3.33,0,6.67,0,10.23,0
			c-1,4.27-3.79,6.81-4.87,10.18c-4.66,7.53-9.18,15.15-13.06,23.12c-1.94,2.25-3.05,4.97-4.33,7.6c-1.02,1.09-1.84,2.3-2.23,3.76
			c-2.19,3.92-4.38,7.84-6.57,11.76c-0.89,1.21-2.07,2.25-2.28,3.86c-1.81,2.95-3.92,5.74-4.87,9.15l0.03-0.13
			c-0.21,0.3-0.42,0.6-0.64,0.9c-2.11,2.92-4.05,5.94-5.3,9.35c-0.73,0.92-1.57,1.79-1.66,3.06c-2.01,2.54-3.75,5.25-4.9,8.29
			c-4.4,7.75-8.8,15.51-13.2,23.26c-1.34,2.34-2.68,4.68-4.02,7.03c-0.95,1.46-2.05,2.84-2.44,4.59c-2.69,3.49-4.51,7.48-6.52,11.36
			c-1.03,1.83-2.07,3.66-3.1,5.49c-1.26,2.03-2.85,3.88-3.53,6.24c-2.32,3.67-4.66,7.33-6.32,11.37c-2.71,3.66-4.75,7.7-6.7,11.79
			c-2.02,3.34-4.21,6.59-5.98,10.06c-0.92,1.82-2.06,2.72-3.96,2.9c-15.71-0.32-31.42-0.31-47.13,0c-0.8-0.45-2.16,0.02-2.36-1.42
			c-1.03-9.23-2.05-18.46-3.08-27.68c0.37-2.4-0.69-4.65-0.78-7c-0.51-4.35-1.03-8.69-1.54-13.04c-0.34-3.11-0.67-6.23-1.01-9.34
			c-0.44-4.09-0.87-8.17-1.31-12.26c-0.33-2.59-0.67-5.18-1-7.77c-0.69-6.14-1.38-12.27-2.07-18.41c0.04-3.51-0.4-6.97-1.2-10.38
			c-0.09-3.51-0.38-6.99-1.12-10.43c-0.59-8.12-1.25-16.23-2.74-24.25c-0.09-3.82-0.44-7.6-1.88-11.2
			c-0.53-3.72-2.16-6.99-4.1-10.13c-1.2-2.53-2.78-4.78-4.97-6.56C44.21,194.7,36.77,192.08,28.37,191.64z"/>
		<path class="st2" d="M633.39,159.85c-2.58,7.09-7.58,11.27-15.02,12.53c-3.6-0.01-7.15-0.27-10.46-1.89
			c-0.85-0.47-1.71-0.94-2.57-1.41c-2.96-3.06-5.63-6.3-6.34-10.69c-0.15-0.38-0.3-0.75-0.45-1.13c-0.01-0.39-0.03-0.79-0.04-1.18
			c0.21-3.12,0.35-6.26,1.36-9.27c1.74-3.23,3.99-6.03,7.08-8.09c2.01-0.87,4.02-1.74,6.03-2.62c6.09-0.37,11.59,1.05,16.13,5.35
			c0.66,0.79,1.32,1.58,1.97,2.37C634.15,148.84,634.41,154.25,633.39,159.85z M627.71,146.03c-3.03-5.42-7.75-7.35-14.66-6.02
			c-5.4,1.03-9.01,4.9-9.98,10.69c-1.3,5.51-0.67,10.52,3.76,14.54c3.7,3.01,7.62,5.19,12.61,3.41c5.49-1.16,8.72-4.57,9.97-9.98
			C630.47,154.24,630.59,149.93,627.71,146.03z"/>
		<path class="st2" d="M609.18,144.32c4.36,0.32,8.9-0.86,12.99,1.63c2.61,4.77,2.04,7.17-2.28,9.56c-1.45,0.69-0.82,1.36,0.02,2.03
			c0,0-0.03-0.02-0.03-0.02c1.22,2.17,2.44,4.33,3.66,6.5c-3.35,1.91-4.01-1.68-5.88-2.79c0.08-0.94-0.15-1.83-0.78-2.49
			c-1.05-1.1-1.21-3.42-3.52-2.83c-2.65,0.67-0.9,2.77-1.1,4.16c-0.32,2.24,0.65,5.17-3.44,4.3c0-6.66,0-13.31,0-19.97l0.2,0.1
			L609.18,144.32z M615.63,147.39c-1.7,0.13-4-0.8-3.6,2.57c0.21,1.8-0.28,3.77,2.55,3.36c2.25-0.33,5.42,0.3,5.71-2.98
			C620.57,147.25,617.82,147.41,615.63,147.39z"/>
		<path class="st2" d="M596.13,232.84c-0.36,3.15,0.64,6.18,0.77,9.29c0.51,5.37,1.03,10.74,1.54,16.12
			c-0.06,1.16-0.49,2.37,0.41,3.42c-0.12,5.07,0.68,10.07,1.12,15.1c0.33,3.36,0.67,6.73,1,10.09c0.44,4.59,0.25,9.25,1.31,13.78
			c0.25,7.34,0.69,14.67,1.96,21.93c0.22,4.27,0.27,8.56,1.13,12.78c0.13,4.24,0.42,8.47,1.19,12.66
			c-0.03,4.29,0.49,8.54,1.12,12.77c-0.09,1.07-0.4,2.15,0.24,3.17c0.44,6.55,0.44,6.55-6.21,6.54c-14.7-0.02-29.41-0.04-44.11-0.06
			c-0.08-0.39-0.15-0.79-0.23-1.18c0.31-4.89-0.49-9.72-0.77-14.57c0.09-1.81,0.42-3.62-0.19-5.4c-0.04-1.15-0.23-2.32-0.1-3.45
			c0.24-2.21-0.64-2.8-2.8-2.79c-19.1,0.08-38.19,0.05-57.29,0.04c-1.28,0-2.63-0.18-3.08,1.51c-0.07,0.28-0.15,0.57-0.22,0.85
			c-3.77,8.17-7.53,16.35-11.3,24.52c-0.38,0.24-0.77,0.47-1.15,0.71c-17.6-0.01-35.19-0.03-52.79-0.04
			c-0.03-0.26-0.16-0.45-0.39-0.57c0.16-0.51,0.31-1.01,0.47-1.52c4.29-7.28,8.34-14.69,11.86-22.38c1.76-2.34,3.09-4.93,4.27-7.6
			c0.84-1.22,1.64-2.46,1.89-3.96c2.56-3.9,4.72-8.01,6.6-12.28c0.62-1.05,1.25-2.09,1.87-3.14c1.3-2.57,2.59-5.13,3.89-7.7
			l0.04-0.3c0.72-0.46,0.88-1.18,0.91-1.96l0,0.18c0.21-0.3,0.42-0.6,0.64-0.9c1.99-2.61,3.44-5.5,4.53-8.58
			c1.11-1.37,2.05-2.83,2.42-4.59c1.93-1.95,2.85-4.46,3.74-6.97c2.51-3.61,4.52-7.49,6.19-11.56c0.47-0.78,0.95-1.56,1.42-2.35
			c1.86-2.93,3.49-5.98,4.75-9.22l0.04-0.3c0.72-0.46,0.88-1.18,0.91-1.96l0,0.18c0.21-0.3,0.42-0.6,0.64-0.9
			c2.15-2.52,3.32-5.56,4.53-8.58c0.42-0.73,0.84-1.47,1.25-2.2c2.26-2.79,3.57-6.09,5.01-9.32c4.34-7.58,8.58-15.22,12.26-23.15
			c4.59-7.45,8.61-15.2,12.38-23.08c1.93-2.91,3.56-5.98,4.94-9.18c1.39-0.12,2.78-0.33,4.17-0.33c19.3-0.02,38.59,0.13,57.89-0.13
			c4.12-0.06,5.43,1.33,5.31,5.08c-0.04,1.09-0.33,2.32,0.56,3.29c0.23,4.27,0.27,8.56,1.13,12.78c0.13,4.24,0.42,8.47,1.19,12.66
			C594.98,224.36,595.5,228.61,596.13,232.84z M546.58,230.39c-2.35,3.64-3.99,7.6-5.26,11.72c-2.38,3.58-3.76,7.62-5.35,11.56
			c-1.25,1.25-1.37,3-2.03,4.51c-0.97,1.79-2.2,3.46-2.51,5.55c-1.97,4.33-3.94,8.65-5.91,12.98c-0.85,1.83-1.71,3.67-2.56,5.5
			c-0.94,2.02-1.89,4.04-2.83,6.05c-1.36,3.12-2.73,6.25-4.09,9.37c-1.48,3-2.98,6-4.42,9.02c-0.42,0.87-1.07,2.02,0.86,1.91
			c0.49,0.64,0.98,0.63,1.47,0c0.28,0,0.56,0,0.84,0c0.49,0.64,0.98,0.63,1.47,0c0.28,0,0.56,0,0.84,0c0.49,0.64,0.98,0.63,1.47,0
			c0.28,0,0.56,0,0.84,0c0.49,0.64,0.98,0.63,1.47,0c0.28,0,0.56,0,0.84,0c0.49,0.64,0.98,0.63,1.47,0c4.13,0,8.26,0,12.39,0
			c0.49,0.64,0.98,0.63,1.47,0c0.28,0,0.56,0,0.84,0c0.49,0.64,0.98,0.63,1.47,0c0.28,0,0.56,0,0.84,0c0.49,0.64,0.98,0.63,1.47,0
			c0.28,0,0.56,0,0.84,0c0.49,0.64,0.98,0.63,1.47,0c0.28,0,0.56,0,0.84,0c0.49,0.64,0.98,0.63,1.47,0
			c2.49-0.02,4.97-0.04,7.46-0.07c1.38-2.6,0.22-5.22,0.05-7.83c-0.1-2.31-0.19-4.62-0.29-6.94c0.13-1.02,0.3-2.05-0.18-3.04
			c-0.2-2.82-0.39-5.65-0.59-8.47c0.18-1.83,0.26-3.67-0.18-5.48c-0.2-3.83-0.39-7.66-0.59-11.49c-0.16-3.61-0.33-7.23-0.49-10.84
			c-0.09-4.09-0.19-8.19-0.28-12.28c0-3.87,0-7.73,0-11.6c0-3.92,0-7.85,0-12.8c-1.83,4.86-3.29,8.75-4.75,12.63L546.58,230.39z"/>
		<path class="st3" d="M605.77,477.13c0.35,3.26-1.92,1.55-3.2,1.69c-3.31-0.58-6.63-1.16-9.94-1.73c-0.36-0.75-1-0.7-1.66-0.59
			c-3.57-0.57-7.03-1.83-10.71-1.74c-3.8-1.07-7.63-1.94-11.59-2.11c-3.49-1.01-7.06-1.58-10.69-1.73
			c-3.96-1.75-8.34-1.1-12.42-2.12c-3.84-0.51-7.67-1.03-11.51-1.54c-3.77-1.24-7.77-0.73-11.6-1.54
			c-8.46-0.89-16.85-2.42-25.39-2.52c-3.5-1.2-7.21-0.67-10.77-1.33c-2.29-0.06-4.58-0.12-6.86-0.19
			c-5.09-1.21-10.34-0.73-15.48-1.35c-3.61,0.17-7.19-0.78-10.81-0.19c-3.79-1.37-7.7-0.52-11.56-0.58
			c-2.79,0.1-5.56-0.76-8.36-0.18c-5.11-1.49-10.32-0.45-15.49-0.59c-3.34,0-6.68,0-10.02,0c-5.68,0.13-11.4-0.92-17.03,0.59
			c-2.79-0.58-5.55,0.28-8.33,0.18c-4.41,0.14-8.88-0.91-13.23,0.59c-2.79,0.06-5.58,0.12-8.37,0.18
			c-3.86,0.26-7.73,0.51-11.59,0.77c-3.65-0.52-7.14,1-10.77,0.77c-3.81,0.84-7.78,0.2-11.56,1.33c-8.02,0.19-15.89,1.7-23.84,2.52
			c-3.87,0.51-7.73,1.03-11.6,1.54c-3.59,0.51-7.17,1.03-10.76,1.54c-4.06,1.07-8.38,0.75-12.35,2.31
			c-4.44,0.21-8.75,1.17-13.02,2.31c-4,0.14-7.85,1.09-11.69,2.13c-2.01,0.32-4.01,0.63-6.02,0.95c-1.4,1.08-3.42,0.01-4.75,1.36
			c-3.7,0.21-7.22,1.24-10.73,2.31c-4.49,0.58-8.84,1.78-13.16,3.09c-3.4,0.43-6.72,1.21-9.91,2.49c-2.81-0.12-5.2,1.3-7.75,2.12
			c-1.31,0.16-2.69,0.01-3.8,0.96c-4.05,0.35-7.75,1.99-11.6,3.08c-3.84,1.03-7.67,2.05-11.51,3.08
			c-7.38,2.73-15.19,4.18-22.37,7.51c-4.41,0.33-8.24,2.5-12.33,3.86c-1.08,0.31-2.2,0.53-3.24,0.94
			c-6.61,2.57-13.55,4.23-19.87,7.54c-4.07,0.68-7.76,2.46-11.51,4.04c-2.88,1.13-5.96,1.79-8.52,3.66
			c-1.1,0.04-2.13,0.27-3.03,0.96c-3.87,1.54-7.73,3.08-11.6,4.63c-4.88,2.06-9.75,4.11-14.63,6.17c-0.76-0.16-1.28-0.39-1.53-1.34
			c-1.26-4.81,3.01-5.3,5.47-7.2c1.49-0.57,2.99-1.15,4.48-1.72c2.36-1.22,4.71-2.45,7.07-3.67c3.57-1.62,7.13-3.24,10.7-4.86
			c3.85-1.78,7.69-3.56,11.54-5.35c4.14-1.99,8.28-3.99,12.42-5.98c2.52-1.09,5.05-2.18,7.57-3.27c1.05-0.52,2.1-1.03,3.16-1.55
			c4.01-1.39,8-2.84,11.58-5.18c3.84-0.97,7.44-2.49,10.76-4.65c0.49-0.06,0.97-0.12,1.46-0.18c3.62-1.54,7.24-3.09,10.86-4.63
			c7.69-3.08,15.37-6.16,23.06-9.25c4.06-0.98,7.95-2.37,11.6-4.43c7.86-2.12,15.37-5.29,23.06-7.9c4.14-1.48,8.28-2.96,12.42-4.43
			c7.43-2.31,14.86-4.63,22.29-6.94c4.46-1.02,8.88-2.21,13.16-3.86c6.9-1.86,13.81-3.72,20.71-5.58c4.65-1.22,9.3-2.45,13.95-3.67
			c3.4-0.44,6.73-1.18,9.91-2.49c4.47-0.65,8.88-1.55,13.2-2.89c3.03-0.57,6.07-1.15,9.1-1.72c0.67,0.12,1.31,0.17,1.67-0.59
			c3.31-0.58,6.62-1.15,9.94-1.73c4.65-0.97,9.3-1.93,13.95-2.9c3.37-0.2,6.73-0.43,9.9-1.72c4.7-0.42,9.4-0.86,13.98-2.13
			c5.46-0.22,10.79-1.33,16.14-2.33c5.45,0.1,10.75-1.21,16.14-1.7c3.78-0.93,7.81-0.01,11.51-1.54c3.93,0.63,7.73-0.6,11.6-0.77
			c3.64,0.53,7.14-1,10.76-0.77c3.35-0.21,6.71-0.36,10.05-0.67c2.07-0.19,4.28,0.75,6.21-0.69c2.53-0.06,5.06-0.12,7.59-0.18
			c3.9,0.23,7.79,0.29,11.6-0.77c3.84,0,7.67,0,11.51,0c11.57,0,23.14,0,34.71,0c3.84,0,7.67,0,11.51,0
			c3.86,0.29,7.69,1.23,11.6,0.77c3.56,0.06,7.12,0.13,10.69,0.19c5.35,1.24,10.84,0.65,16.23,1.35c2.29,0.06,4.58,0.13,6.87,0.19
			c4.05,1.31,8.32,0.57,12.42,1.35c3.87-0.22,7.61,1.45,11.51,0.77c1.09,1.8,4.26-0.46,4.77,2.46c-0.06,4.1-0.13,8.19-0.19,12.29
			c-1.15,3.3-0.66,6.69-0.58,10.06c-0.06,3.31-0.12,6.61-0.18,9.92c-1.53,4.34-0.44,8.8-0.59,13.2
			C606.08,469.44,605.49,473.26,605.77,477.13z"/>
		<path class="st2" d="M249.98,196.12c0.79-2.83,1.57-5.65,2.36-8.48c0.89-1.96,2.66-1.57,4.26-1.57
			c13.75-0.03,27.5-0.05,41.24-0.07c0.51,0.04,1.03,0.17,1.52,0.1c2.93-0.41,3.95,0.41,2.68,3.45c-0.87,2.09-1.24,4.39-1.84,6.59
			c-2.47,7.96-4.94,15.92-7.41,23.88c-0.87,3.09-1.74,6.17-2.61,9.26c-2.39,7.86-4.79,15.71-7.18,23.57
			c-1.52,3.86-2.68,7.83-3.6,11.88c-1.43,4.61-2.87,9.21-4.3,13.82c-0.11,0.53-0.22,1.06-0.33,1.59c-1.39,2.55-1.72,5.44-2.57,8.16
			c-1.2,3.96-2.39,7.92-3.59,11.87c-1.17,3.83-2.35,7.66-3.52,11.49c-2.49,7.12-4.66,14.34-6.5,21.65
			c-1.43,4.6-2.86,9.21-4.29,13.81c-1.13,3.87-2.27,7.74-3.4,11.6c-0.14,0.48-0.29,0.97-0.43,1.45c-1.08,2.8-2.27,5.58-2.57,8.61
			c-0.65,2.5-2.68,1.92-4.4,1.93c-15.13,0.07-30.26,0.12-45.4,0.17c-0.76-1.23-0.23-2.34,0.15-3.56c0.94-3.09,1.69-6.25,2.51-9.38
			c1.75-3.3,2.21-7,3.35-10.5c0.39-1.39,0.79-2.78,1.18-4.18c0.95-3.05,1.9-6.1,2.84-9.16c1.1-3.62,2.21-7.24,3.31-10.86
			c1.21-4.09,2.41-8.17,3.62-12.26c2.66-7.06,4.59-14.34,6.49-21.64c1.43-4.61,2.87-9.21,4.3-13.82c0.85-2.85,1.7-5.71,2.54-8.56
			c0.43-1.24,0.86-2.48,1.29-3.72c0.88-3.11,1.77-6.23,2.65-9.34c1.18-3.84,2.35-7.67,3.53-11.51c1.1-3.63,2.21-7.25,3.31-10.88
			c2.49-8.18,4.97-16.36,7.46-24.54C247.77,203.37,248.87,199.75,249.98,196.12z"/>
		<path class="st2" d="M426.31,329.82c-4.01,8.04-8.87,15.5-15.14,21.98c-0.48,0.38-0.95,0.76-1.43,1.14
			c-3.87,2.83-7.74,5.65-11.61,8.48c-1.75,0.83-3.5,1.66-5.26,2.49c-1.57,0.59-3.14,1.19-4.71,1.78c-4.34,1.21-8.67,2.41-13.01,3.62
			c-2.59,0.33-5.19,0.67-7.78,1c-2.81,0.18-5.62,0.36-8.44,0.54c-12.96,0.31-25.8-0.8-38.55-3.09c-8.23-2.29-16.39-4.8-24.3-8.05
			c-3.29-1.51-6.59-3.03-9.88-4.54c-1.74-1.41-3.68-2.45-5.73-3.32c-3.06-1.28-3.46-2.88-1.04-5.4c1.26-1.31,1.91-3.2,2.84-4.82
			c0.78-1.06,1.56-2.11,2.34-3.17c1.79-2.79,3.58-5.59,5.37-8.38c2.48-3.7,4.92-7.43,7.43-11.11c3.51-5.15,3.53-5.14,9.09-2.55
			c1.15,0.65,2.3,1.3,3.45,1.95c2.76,2.02,5.69,3.74,8.89,4.99c3.14,1.92,6.51,3.29,10.07,4.18c3.73,1.64,7.7,2.37,11.69,2.91
			c8.43,1.15,16.88,1.99,25.22-0.69c3.33-0.5,5.71-2.71,7.96-4.85c6.14-5.86,6.84-12.92,2.18-19c-3.03-3.56-6.62-6.4-10.83-8.45
			c-0.93-1.31-2.45-1.66-3.79-2.31c-2.86-1.77-5.72-3.54-8.58-5.31c-7.93-5.38-15.89-10.71-23.08-17.09
			c-0.51-0.5-1.02-0.99-1.53-1.49c-6.75-7.09-12.44-14.82-14.79-24.56c-0.26-3.1-0.51-6.21-0.77-9.31
			c0.37-3.49,0.74-6.97,1.12-10.46c1.2-3.7,2.4-7.41,3.6-11.11c0.65-1.5,1.31-3,1.96-4.51c1.69-2.85,3.38-5.7,5.07-8.55
			c1.79-2.03,3.59-4.07,5.38-6.1c1.8-1.56,3.6-3.12,5.4-4.68c2.03-1.31,4.06-2.62,6.09-3.92c3.36-1.65,6.71-3.3,10.07-4.94
			c3.05-0.95,6.1-1.9,9.15-2.85c1.65-0.4,3.3-0.79,4.95-1.19c4.51-0.63,9.02-1.27,13.53-1.9c3.87,0,7.73,0,11.6,0
			c2.47,0.12,4.95,0.25,7.42,0.37c3.96,0.65,7.92,1.3,11.88,1.95c1.5,0.43,2.99,0.86,4.49,1.29c2.1,0.6,4.2,1.2,6.3,1.8
			c4.85,1.98,9.7,3.96,14.55,5.93c5.08,3.14,10.36,5.95,15.3,9.35c1.73,1.19,1.7,2.17,0.81,3.64c-2.61,2.64-5.28,5.22-7.02,8.57
			l0.02,0.12c-1.22-0.05-1.39,0.99-1.84,1.75c-0.67,0.11-1.03,0.55-1.23,1.16c-4.49,5.21-9.17,10.27-13.4,15.69
			c-2.04,2.62-3.55,2.62-5.64,0.49c-1.56-1.14-3.13-2.28-4.69-3.42c-0.15-0.21-0.35-0.31-0.6-0.3c0,0,0.02,0.11,0.02,0.11
			c-1.81-1.79-3.91-3.15-6.27-4.1c-3.73-1.99-7.29-4.4-11.63-4.95c-4.74-1.92-9.68-2.16-14.7-1.71c-2.65-0.14-5.22,0.24-7.68,1.27
			c-5.36,1.46-9.86,4-11.9,9.59c-1.85,3.78-1.64,7.42,0.76,10.91c2.3,4.01,5.71,6.86,9.57,9.25c1.35,1.34,2.88,2.42,4.68,3.09
			c2.28,2.07,4.94,3.57,7.66,4.96c3.49,2.23,6.97,4.47,10.46,6.7c0.36,0.22,0.72,0.44,1.08,0.66c3.81,2.93,7.63,5.86,11.44,8.79
			c0.61,1.49,2.12,2.08,3.15,3.16c2.49,2.72,4.97,5.43,7.46,8.15c0.61,0.74,1.23,1.49,1.84,2.23c1.94,3.6,3.87,7.2,5.81,10.8
			c1.41,3.98,2.53,8.03,2.85,12.26c-0.29,3.86-0.57,7.73-0.86,11.59C429.17,322.16,427.74,325.99,426.31,329.82z"/>
	</g>
</g>
<g id="Capa_2" class="st0">
	<g class="st1">
		<path class="st4" d="M460.14,474.37c-12.33,0-24.66,0-36.98,0c-0.29-0.66-0.9-0.42-1.39-0.48c-19.83-2.38-38.73-7.9-56.67-16.69
			c-14.61-7.16-27.89-16.28-40.03-27.09c2.66-2.69,5.36-5.35,7.98-8.07c3.18-3.3,6.35-6.62,9.39-10.58c-1.16,0-1.9,0-2.64,0
			c-10.04,0-20.08-0.05-30.12,0.05c-1.81,0.02-2.92-0.56-3.94-1.99c-2.69-3.78-5.52-7.44-8.24-11.2c-1.14-1.57-2.12-3.25-3.4-5.23
			c1.26,0,2.07,0,2.87,0c18.86,0,37.73-0.03,56.59,0.04c1.68,0.01,2.57-0.54,3.41-1.93c2.79-4.62,5.31-9.38,7.72-14.2
			c1.2-2.41,1.2-2.42-1.54-2.42c-25.63,0-51.27-0.02-76.9,0.04c-1.7,0-2.57-0.47-3.23-2.04c-1.99-4.68-3.83-9.41-5.56-14.19
			c-0.63-1.75-0.5-2.29,1.56-2.27c11.18,0.09,22.36,0.04,33.54,0.04c19.47,0,38.95-0.02,58.42,0.04c1.62,0,2.44-0.4,2.85-2.03
			c0.75-2.94,1.71-5.82,2.58-8.72c0.98-1.58,3.11-2.09,3.75-4l-0.03,0.08c0.38-0.04,0.5-0.32,0.58-0.63
			c4.3-2.6,7.68-6.03,9.04-10.97c2.6-9.44,1.88-19.33-7.67-25.39c-0.01-3.63-0.02-7.26-0.03-10.89c4.03-0.01,4.03-0.01,4.89-4.11
			c0.08-0.36,0.11-0.74,0.16-1.11c0.83,0.06,1.67,0.05,2.48,0.19c1.62,0.28,2.37-0.1,2.63-1.97c0.62-4.34,1.53-8.64,2.42-12.93
			c0.24-1.16,0.06-1.6-1.19-1.7c-4.6-0.37-9.2-0.83-13.8-1.25c-0.27-1.42-0.67-2.83-0.77-4.25c-0.15-2.08-1.05-2.62-3.15-2.62
			c-33.78,0.08-67.55,0.06-101.33,0.06c-0.89,0-1.78,0-2.82,0c1.16-5.74,2.76-11.11,4.45-16.46c0.5-1.57,1.22-2.07,2.86-2.06
			c12.78,0.07,25.56,0.04,38.34,0.04c17.88,0,35.76-0.02,53.63,0.03c1.75,0.01,2.28-0.26,1.6-2.1c-1.78-4.85-3.62-9.65-5.64-14.41
			c-0.68-1.6-1.54-2.01-3.21-2.01c-25.64,0.06-51.27,0.04-76.91,0.04c-0.79,0-1.58-0.07-2.61-0.11c2.76-5.74,5.71-11.02,8.74-16.27
			c0.88-1.52,1.8-2.06,3.56-2.06c18.87,0.07,37.73,0.05,56.6,0.03c0.79,0,1.64,0.26,2.54-0.31c-3.51-5.92-7.54-11.41-11.8-16.74
			c-0.84-1.06-1.71-1.47-3.06-1.46c-10.19,0.06-20.39,0.04-30.58,0.01c-0.77,0-1.62,0.28-2.39-0.31
			c5.32-6.62,11.34-12.42,17.28-18.29c0.76-0.63,1.54-1.24,2.29-1.88c39.8-33.92,85.8-47.64,137.59-41.46
			c27.61,3.29,52.85,13.34,75.82,29.06c56.36,38.57,85.34,107.61,72.71,174.71c-9.18,48.79-34.83,87.03-76.09,114.64
			c-20.2,13.52-42.49,22.04-66.49,26.05C467.27,473.25,463.63,473.37,460.14,474.37z M543.19,339.75c0.18-0.18,0.37-0.35,0.55-0.53
			c3.65-2.77,7.01-5.83,9.42-9.78c6.43-10.53,8.17-21.99,6.05-33.96c-1.99-11.31-8.67-19-19.54-22.86
			c-13.19-4.69-35.23-3.12-47.85,12.32c-0.33,0.05-0.61,0.16-0.63,0.56c0,0,0.03-0.02,0.03-0.02c-1.04,0.02-1.5,0.88-2.1,1.49
			c-1.47,1.47-2.86,3.01-4.28,4.52c2.06-5.45,4.02-10.94,6.22-16.33c0.83-2.02,0.16-2.56-1.65-2.98
			c-5.52-1.28-10.49-0.24-15.09,3.05c-2.8,2-4.86,4.74-7.34,7.04c-0.06-0.08-0.12-0.15-0.19-0.23c0.48-2.68,0.9-5.36,1.45-8.02
			c0.27-1.32-0.06-1.73-1.43-1.7c-4.47,0.07-8.95,0.03-13.42,0.03c-4.43,0-4.43,0-5.36,4.2c-0.08,0.37-0.2,0.73-0.3,1.1
			c-4.31,0-4.36,0-5.16,4.27c-1.73,9.16-3.4,18.33-5.09,27.5c-2.32,12.52-4.62,25.04-6.96,37.56c-0.32,1.7,0.01,2.45,1.98,2.4
			c4.86-0.13,9.72-0.04,14.58-0.04c4.84,0,4.84,0,5.34-4.97c0.45-0.03,0.9-0.09,1.36-0.1c3.52-0.04,3.52-0.04,4.16-3.42
			c1.57-8.25,2.95-16.55,4.96-24.71c1.37-5.56,2.49-11.22,5.4-16.27c3.47-1.72,7.06-2.25,10.84-1.16c1.27,0.36,1.67,0.84,1.14,2.24
			c-3.02,8-3.65,16.29-2.31,24.69c1.85,11.55,8.13,19.61,19.35,23.51c5.84,2.03,11.92,2.37,18.03,2c9.36-0.58,18.15-2.94,25.56-9.07
			c0.59-0.49,1.55-0.78,1.41-1.85l-0.02,0.02c0.51,0.18,0.76-0.1,0.93-0.52C543.23,339.68,543.19,339.75,543.19,339.75z
			 M423.77,344.64c1.23-0.35,2.47-0.69,3.7-1.04c0.56-0.16,1.12-0.18,1.26-1.02c0.85-4.98,1.77-9.94,2.7-15.06
			c-2.59,0.45-4.91,0.65-7.25,0.47c-4.88-0.38-6.63-2.51-5.75-7.39c1.55-8.58,3.23-17.13,4.86-25.7c0.45,0.01,0.91,0.03,1.36,0.04
			c5.14,0.04,5.14,0.04,6.14-4.96c0.76-0.04,1.54-0.22,2.26-0.09c1.88,0.33,2.45-0.55,2.72-2.26c0.7-4.49,1.53-8.97,2.4-13.43
			c0.31-1.58-0.22-1.97-1.72-1.9c-2.2,0.11-4.42-0.14-6.6,0.07c-2.32,0.23-2.53-0.69-2.11-2.64c0.88-4.07,1.51-8.2,2.38-12.27
			c0.3-1.37-0.01-1.66-1.34-1.64c-4.86,0.07-9.72,0.03-14.58,0.03c-5.23,0-5.23,0-6.29,5.09c-0.38-0.01-0.76-0.04-1.14-0.04
			c-3.79,0-3.27-0.24-3.88,3.12c-2.67,14.56-5.44,29.1-8.02,43.67c-1.52,8.59-3.65,17.08-4.34,25.81
			c-0.75,9.37,3.8,15.37,13.03,16.92c5.41,0.91,10.76,0.04,16.05-1.12C423.3,348.49,423.29,348.45,423.77,344.64z M567.47,338.66
			c0.04-3.07-2.49-5.64-5.6-5.68c-3.07-0.04-5.74,2.52-5.78,5.54c-0.04,2.99,2.59,5.66,5.64,5.71
			C564.78,344.28,567.43,341.7,567.47,338.66z"/>
		<path class="st5" d="M376.43,345.45c-0.87,2.9-1.84,5.79-2.58,8.72c-0.42,1.63-1.23,2.03-2.85,2.03
			c-19.47-0.06-38.95-0.04-58.42-0.04c-11.18,0-22.36,0.05-33.54-0.04c-2.06-0.02-2.19,0.52-1.56,2.27
			c1.73,4.78,3.57,9.51,5.56,14.19c0.67,1.57,1.53,2.04,3.23,2.04c25.63-0.06,51.27-0.04,76.9-0.04c2.74,0,2.74,0.01,1.54,2.42
			c-2.41,4.82-4.93,9.58-7.72,14.2c-0.84,1.39-1.73,1.94-3.41,1.93c-18.86-0.07-37.73-0.04-56.59-0.04c-0.81,0-1.62,0-2.87,0
			c1.28,1.97,2.26,3.65,3.4,5.23c2.72,3.75,5.55,7.42,8.24,11.2c1.01,1.43,2.13,2.01,3.94,1.99c10.04-0.1,20.08-0.05,30.12-0.05
			c0.74,0,1.48,0,2.64,0c-3.03,3.96-6.21,7.28-9.39,10.58c-2.62,2.73-5.32,5.38-7.98,8.07c-3.83,3.09-7.59,6.28-11.5,9.26
			c-22.06,16.78-46.72,27.75-73.99,32.75c-4.69,0.86-9.42,1.5-14.12,2.25c-12.18,0-24.35,0-36.53,0c-0.27-0.67-0.9-0.45-1.38-0.5
			c-13.55-1.65-26.77-4.7-39.55-9.47c-36.2-13.52-64.97-36.42-86.16-68.69c-14.79-22.52-23.66-47.24-26.91-74
			c-0.38-3.11-0.17-6.31-1.25-9.33c0-7.45,0-14.91,0-22.36c0.53-0.26,0.4-0.76,0.43-1.19c0.46-7.06,1.35-14.06,2.73-21
			c7.84-39.65,26.92-72.96,57.68-99.09c38.79-32.96,83.9-46.37,134.51-40.73c29.28,3.26,55.85,13.85,79.91,30.8
			c5.6,3.94,10.74,8.46,16.07,12.72c-5.95,5.87-11.96,11.67-17.28,18.29c0.77,0.59,1.63,0.31,2.39,0.31
			c10.19,0.02,20.39,0.04,30.58-0.01c1.35-0.01,2.22,0.4,3.06,1.46c4.26,5.33,8.29,10.82,11.8,16.74c-0.9,0.57-1.75,0.31-2.54,0.31
			c-18.87,0.02-37.73,0.04-56.6-0.03c-1.76-0.01-2.69,0.54-3.56,2.06c-3.03,5.25-5.98,10.53-8.74,16.27
			c1.03,0.05,1.82,0.11,2.61,0.11c25.64,0.01,51.27,0.02,76.91-0.04c1.67,0,2.53,0.41,3.21,2.01c2.02,4.75,3.87,9.56,5.64,14.41
			c0.68,1.85,0.14,2.11-1.6,2.1c-17.88-0.05-35.76-0.03-53.63-0.03c-12.78,0-25.56,0.03-38.34-0.04c-1.64-0.01-2.36,0.49-2.86,2.06
			c-1.69,5.35-3.29,10.72-4.45,16.46c1.04,0,1.93,0,2.82,0c33.78,0,67.55,0.02,101.33-0.06c2.1,0,3.01,0.53,3.15,2.62
			c0.1,1.43,0.5,2.84,0.77,4.25c-2.66,0.03-5.33-0.07-7.98,0.1c-9.62,0.61-18.7,2.56-25.22,10.58c-0.16,0.13-0.33,0.26-0.49,0.39
			l0.07-0.05c-0.16,0.18-0.32,0.36-0.47,0.55l0.07-0.05c-1.01,0.09-1.56,0.87-2.2,1.48c-5.98,5.77-7.13,12.99-5.82,20.74
			c1.03,6.09,5.23,9.89,10.31,12.86c3.94,2.3,8.31,3.66,12.37,5.72c2.35,1.2,3.97,2.77,3.74,5.62c-0.89,0.18-1.77,0.43-2.67,0.52
			c-7.42,0.71-14.71-0.16-21.87-2.06c-1.91-0.51-2.36,0.13-2.58,1.74c-0.19,1.34-0.54,2.66-0.82,3.98
			c-1.03-0.28-2.05-0.56-3.08-0.84c-0.89-0.24-1.43-0.02-1.6,1c-0.75,4.57-1.52,9.13-2.34,13.68c-0.24,1.32,0.38,1.7,1.52,1.92
			c7.42,1.44,14.93,1.72,22.45,1.76C361.18,350.48,369.08,349.18,376.43,345.45z M277.5,284.61l0.07-0.05
			c-0.3,0.06-0.49,0.21-0.49,0.53l0.07-0.07c-0.46,0.14-0.97,0.26-0.51,0.92l-0.01,0.02c-1.88,0.05-2.49,1.73-3.4,2.85
			c-8.27,10.2-11.08,22.09-9.64,34.84c1.66,14.64,9.53,22.77,23.92,25.76c10.37,2.16,20.69,1.33,31-0.67
			c2.94-0.57,4.73-1.64,4.61-4.84c1.1-0.3,2.18-0.68,3.29-0.86c0.97-0.16,1.48-0.58,1.67-1.54c1.07-5.49,2.16-10.97,3.31-16.75
			c-5.77,2.2-11.41,3.82-17.32,4.28c-5.63,0.44-11.25,0.5-16.62-1.59c-3.65-1.42-6.37-3.79-7.08-7.89c10.84,0,21.67,0.01,32.51,0.01
			c4.94,0,4.94,0,5.88-4.97c0.6-0.04,1.22-0.2,1.81-0.11c2.01,0.3,2.9-0.38,3.3-2.53c0.8-4.18,1.6-8.35,1.93-12.6
			c0.99-12.99-5.35-23.02-17.17-26.9c-6.64-2.18-13.44-2.41-20.27-0.93c-8.19,1.77-14.72,6.28-20.13,12.54
			C277.98,284.25,277.74,284.43,277.5,284.61z M201.24,310.58l0.04-0.04c-0.33,0.01-0.58,0.09-0.46,0.51l0.01-0.01
			c-1.19-0.25-1.75,0.71-2.4,1.34c-6.52,6.22-8.75,13.91-7.3,22.63c1.27,7.61,5.8,12.82,13.27,14.62c9.63,2.32,18.7,0.61,26.69-5.6
			c0.62-0.48,1.04-1.33,2.05-1.29c0,1.54,0.15,3.05-0.04,4.53c-0.2,1.58,0.17,2.13,1.85,2.07c3.65-0.12,7.3-0.04,10.95-0.04
			c5.08,0,5.08,0,5.71-4.98c1.14-0.03,2.28-0.17,3.41-0.07c1.51,0.14,1.91-0.48,2.03-1.92c0.22-2.64,0.65-5.27,1.08-7.89
			c2.02-12.36,4.7-24.59,6.4-37.01c1.98-14.49-4.04-23.11-18.41-25.78c-10.44-1.94-20.71-0.45-30.97,1.67
			c-3.14,0.65-5.61,1.45-5.59,5.22c-1.19,0.25-2.38,0.48-3.56,0.75c-0.67,0.16-1.32,0.35-1.48,1.19c-0.89,4.5-1.81,9-2.71,13.5
			c-0.25,1.24,0.33,1.75,1.51,1.42c4.6-1.28,9.28-1.9,14.04-2.37c5.33-0.52,10.6-0.55,15.84,0.29c2.64,0.43,4.92,1.72,5.37,4.81
			c-4.25,0.07-8.51-0.06-12.75,0.5c-9.27,1.21-17.75,4.02-24.11,11.37C201.55,310.21,201.39,310.4,201.24,310.58z M143.85,301.03
			c-0.04-0.83-0.1-1.67-0.13-2.5c-0.39-13.52-0.77-27.05-1.16-40.57c-0.03-1.12,0.17-2.18-1.7-2.16c-10.27,0.1-20.54,0.07-30.8,0.02
			c-1.17-0.01-1.58,0.42-1.8,1.47c-0.26,1.22-0.06,2.59-1.06,3.6c-0.92,0.49-1.91,0.43-2.89,0.37c-1.33-0.08-2.03,0.21-2.2,1.8
			c-0.27,2.6-0.9,5.17-1.4,7.75c-2.39,12.19-4.84,24.38-7.16,36.58c-2.54,13.33-4.91,26.68-7.5,40c-0.33,1.67-0.04,1.96,1.5,1.94
			c4.18-0.06,8.37,0.02,12.55-0.04c1.81-0.02,4.03,0.74,5.31-0.35c1.02-0.86,0.94-3.02,1.34-4.61c0.98-0.03,1.97-0.16,2.94-0.08
			c1.32,0.11,1.84-0.37,2.08-1.7c1.47-8.03,3.01-16.05,4.58-24.07c1.46-7.49,2.98-14.96,4.48-22.44c0.32,4.77,0.69,9.55,0.94,14.32
			c0.67,12.37,1.32,24.74,1.89,37.11c0.07,1.57,0.72,1.87,2.1,1.84c3.65-0.07,7.3-0.02,10.96-0.02c5.37,0,5.37,0,7.41-4.97
			c2.95,0.55,4.15-1.07,5.15-3.61c1.99-5.06,4.3-9.99,6.51-14.97c4.16-9.39,8.34-18.77,12.51-28.16c0.01,0.6,0.13,1.23,0.02,1.81
			c-1.89,10.04-3.82,20.08-5.73,30.11c-1.17,6.13-2.28,12.28-3.48,18.41c-0.2,1-0.02,1.39,1.05,1.38c6.45-0.02,12.91-0.03,19.36,0
			c1.03,0,1.53-0.4,1.64-1.42c0.13-1.19,0.35-2.38,0.54-3.57c0.76-0.03,1.53-0.17,2.27-0.08c1.73,0.2,2.66-0.26,2.79-2.22
			c0.12-1.8,0.66-3.58,1.01-5.37c5.09-26.24,10.17-52.48,15.3-78.71c0.33-1.69,0.03-2.18-1.8-2.16c-8.98,0.1-17.97,0.32-26.93-0.07
			c-4.4-0.19-7.45,0.56-8.5,5.22c-4.33-0.16-4.32-0.16-6.08,3.84C154.44,276.88,149.14,288.95,143.85,301.03z"/>
		<path class="st6" d="M491.83,284.93c12.62-15.44,34.66-17.01,47.85-12.32c10.88,3.87,17.55,11.55,19.54,22.86
			c2.11,11.97,0.37,23.43-6.05,33.96c-2.41,3.95-5.77,7.01-9.42,9.78c-0.28,0.08-0.59,0.13-0.55,0.53c0,0,0.04-0.07,0.04-0.07
			c-0.43-0.04-0.77,0.08-0.93,0.52c0,0,0.02-0.02,0.02-0.02c-10.06,5.34-20.79,6.77-32.01,5.53c-13.36-1.48-22.91-9.33-26.19-21.83
			c-1.79-6.8-1.65-13.68-0.46-20.57c1.13-6.54,3.96-12.35,7.58-17.83c0,0-0.03,0.02-0.03,0.02
			C491.41,285.31,491.62,285.12,491.83,284.93z M512.23,295.51c-0.09,0.14-0.19,0.27-0.28,0.41c-4.77,7.75-6.29,16.01-3.39,24.74
			c1.59,4.79,5.03,7.73,10.26,7.93c3.69,0.15,6.67-1.66,9.34-4.03c0.25-0.21,0.82-0.18,0.57-0.76l-0.02,0.11
			c0.87-0.08,1.25-0.82,1.71-1.36c6.89-8.04,7.84-17.38,5.3-27.14c-1.44-5.55-6.81-8.35-12.48-7.44c-4.88,0.79-8.46,3.45-11.02,7.6
			C512.22,295.56,512.23,295.51,512.23,295.51z"/>
		<path class="st7" d="M346.47,281.47c6.52-8.02,15.6-9.97,25.22-10.58c2.65-0.17,5.32-0.07,7.98-0.1c4.6,0.42,9.2,0.88,13.8,1.25
			c1.25,0.1,1.43,0.54,1.19,1.7c-0.89,4.29-1.8,8.59-2.42,12.93c-0.27,1.87-1.02,2.25-2.63,1.97c-0.81-0.14-1.65-0.13-2.48-0.19
			c-2.94-0.22-5.88-0.49-8.82-0.64c-2.96-0.15-5.93-0.11-8.77,0.85c-2.17,0.73-4.02,1.85-3.99,4.56c-0.63,3.04,1.36,4.35,3.63,5.46
			c4.26,2.08,8.79,3.55,12.94,5.88c9.55,6.06,10.27,15.95,7.67,25.39c-1.36,4.94-4.74,8.37-9.04,10.97
			c-0.25,0.16-0.71,0.12-0.58,0.63c0,0,0.03-0.08,0.03-0.08c-1.96,0.24-3.61,1.37-5.49,1.84c-13.07,3.24-26.16,2.17-39.26,0.15
			c-1.43-0.22-0.95-1.09-0.84-1.82c0.47-2.91,0.99-5.81,1.5-8.71c0.28-1.33,0.63-2.64,0.82-3.98c0.23-1.61,0.68-2.25,2.58-1.74
			c7.16,1.91,14.45,2.78,21.87,2.06c0.9-0.09,1.78-0.34,2.67-0.52c0.36-0.08,0.74-0.13,1.09-0.24c2.44-0.76,4.08-2.23,4.35-4.93
			c0.27-2.67-1.09-4.3-3.32-5.38c-1.91-0.92-3.83-1.8-5.78-2.64c-3.69-1.59-7.32-3.24-10.53-5.74c-5.11-3.98-7.4-9.15-7.26-15.61
			c0.09-4.25,1.58-8.04,3.05-11.88c0,0-0.07,0.05-0.07,0.05c0.58,0.18,0.49-0.21,0.47-0.55c0,0-0.07,0.05-0.07,0.05
			C346.37,282.01,346.38,281.7,346.47,281.47z"/>
		<path class="st8" d="M423.29,294.91c-1.63,8.56-3.31,17.12-4.86,25.7c-0.88,4.88,0.87,7,5.75,7.39c2.34,0.18,4.66-0.02,7.25-0.47
			c-0.92,5.12-1.85,10.08-2.7,15.06c-0.14,0.84-0.7,0.86-1.26,1.02c-1.23,0.35-2.47,0.69-3.7,1.04c-4.14,0.53-8.25,1.25-12.45,1.02
			c-10.01-0.54-15.62-6.39-15.36-16.2c0.08-2.8,0.42-5.59,0.93-8.36c3.69-20.05,7.35-40.1,11.02-60.15
			c1.06-5.09,1.06-5.09,6.29-5.09c4.86,0,9.72,0.04,14.58-0.03c1.33-0.02,1.64,0.27,1.34,1.64c-0.88,4.07-1.5,8.2-2.38,12.27
			c-0.42,1.95-0.21,2.86,2.11,2.64c2.18-0.21,4.41,0.04,6.6-0.07c1.5-0.07,2.03,0.31,1.72,1.9c-0.87,4.46-1.7,8.94-2.4,13.43
			c-0.27,1.71-0.84,2.59-2.72,2.26c-0.73-0.13-1.51,0.05-2.26,0.09c-0.52-0.04-1.05-0.12-1.57-0.12
			C424.13,289.81,424.13,289.82,423.29,294.91z"/>
		<path class="st8" d="M468.31,299.83c-2.91,5.05-4.03,10.71-5.4,16.27c-2.01,8.16-3.39,16.46-4.96,24.71
			c-0.64,3.38-0.64,3.38-4.16,3.42c-0.45,0.01-0.9,0.06-1.36,0.1c-4.86-0.03-9.72-0.16-14.57-0.06c-1.89,0.04-2.26-0.48-1.92-2.27
			c2.26-11.91,4.45-23.83,6.64-35.76c1.75-9.54,3.44-19.08,5.16-28.62c0.1-0.36,0.22-0.73,0.3-1.1c0.93-4.2,0.93-4.2,5.36-4.2
			c4.47,0,8.95,0.04,13.42-0.03c1.37-0.02,1.7,0.39,1.43,1.7c-0.55,2.66-0.97,5.35-1.45,8.03c-0.04,0.18-0.15,0.5-0.11,0.52
			c0.29,0.14,0.26-0.12,0.3-0.29c2.49-2.3,4.54-5.04,7.34-7.04c4.6-3.28,9.58-4.32,15.09-3.05c1.8,0.42,2.48,0.96,1.65,2.98
			c-2.21,5.39-4.17,10.88-6.22,16.32c-0.39,1.53-1.19,1.77-2.8,1.44C475.37,291.55,470.5,294.1,468.31,299.83z"/>
		<path class="st9" d="M468.31,299.83c2.19-5.74,7.06-8.28,13.74-6.91c1.61,0.33,2.41,0.09,2.8-1.44c1.42-1.51,2.81-3.05,4.27-4.52
			c0.6-0.6,1.07-1.47,2.1-1.49c-3.62,5.48-6.45,11.29-7.58,17.83c-1.19,6.89-1.32,13.77,0.46,20.57
			c3.28,12.5,12.83,20.35,26.19,21.83c11.22,1.24,21.94-0.18,32.01-5.53c0.15,1.08-0.81,1.36-1.41,1.85
			c-7.41,6.13-16.19,8.49-25.56,9.07c-6.1,0.38-12.18,0.04-18.03-2c-11.22-3.9-17.5-11.96-19.35-23.51
			c-1.34-8.39-0.71-16.68,2.31-24.69c0.53-1.4,0.13-1.88-1.14-2.24C475.37,297.58,471.78,298.11,468.31,299.83z"/>
		<path class="st9" d="M407.91,260.94c-3.67,20.05-7.33,40.11-11.02,60.15c-0.51,2.77-0.86,5.56-0.93,8.36
			c-0.26,9.81,5.35,15.66,15.36,16.2c4.21,0.23,8.32-0.49,12.45-1.02c-0.48,3.81-0.47,3.85-4.17,4.66
			c-5.29,1.17-10.64,2.03-16.05,1.12c-9.23-1.55-13.78-7.55-13.03-16.92c0.7-8.73,2.82-17.22,4.34-25.81
			c2.58-14.57,5.35-29.12,8.02-43.67c0.62-3.36,0.09-3.12,3.88-3.12C407.15,260.9,407.53,260.93,407.91,260.94z"/>
		<path class="st9" d="M447.75,277.63c-1.72,9.54-3.42,19.08-5.16,28.62c-2.18,11.92-4.37,23.85-6.64,35.76
			c-0.34,1.79,0.03,2.31,1.92,2.27c4.85-0.1,9.71,0.02,14.57,0.06c-0.5,4.97-0.5,4.97-5.34,4.97c-4.86,0-9.73-0.09-14.58,0.04
			c-1.98,0.05-2.3-0.69-1.98-2.4c2.34-12.52,4.65-25.04,6.96-37.56c1.7-9.17,3.37-18.34,5.09-27.5
			C443.39,277.62,443.44,277.63,447.75,277.63z"/>
		<path class="st9" d="M336.09,332.91c-0.5,2.9-1.03,5.8-1.5,8.71c-0.12,0.73-0.59,1.6,0.84,1.82c13.1,2.02,26.18,3.09,39.26-0.15
			c1.88-0.47,3.53-1.6,5.49-1.84c-0.64,1.91-2.77,2.42-3.75,4c-7.35,3.73-15.25,5.03-23.38,4.99c-7.52-0.04-15.03-0.31-22.45-1.76
			c-1.13-0.22-1.75-0.6-1.52-1.92c0.82-4.55,1.59-9.12,2.34-13.68c0.17-1.02,0.7-1.24,1.6-1
			C334.04,332.35,335.07,332.63,336.09,332.91z"/>
		<path class="st5" d="M382.1,304.55c-4.15-2.33-8.68-3.8-12.94-5.88c-2.26-1.11-4.26-2.42-3.63-5.46
			c5.54-0.78,11.04-0.3,16.54,0.45C382.08,297.29,382.09,300.92,382.1,304.55z"/>
		<path class="st9" d="M382.07,293.66c-5.5-0.75-11-1.23-16.54-0.45c-0.03-2.71,1.82-3.83,3.99-4.56c2.84-0.96,5.81-1,8.77-0.85
			c2.94,0.15,5.88,0.42,8.82,0.64c-0.05,0.37-0.09,0.74-0.16,1.11C386.1,293.65,386.1,293.65,382.07,293.66z"/>
		<path class="st8" d="M567.47,338.66c-0.04,3.05-2.69,5.62-5.73,5.57c-3.04-0.05-5.68-2.72-5.64-5.71
			c0.04-3.02,2.71-5.58,5.78-5.54C564.97,333.02,567.51,335.59,567.47,338.66z M565.97,338.57c-0.01-2.28-1.93-4.23-4.16-4.24
			c-2.33-0.01-4.41,2.02-4.4,4.29c0.01,2.24,2.17,4.31,4.44,4.27C564.05,342.84,565.98,340.82,565.97,338.57z"/>
		<path class="st9" d="M423.29,294.91c0.85-5.1,0.85-5.1,5.93-5.05c0.52,0.01,1.05,0.08,1.57,0.12c-1,5-1,5-6.14,4.96
			C424.2,294.95,423.74,294.93,423.29,294.91z"/>
		<path class="st9" d="M542.3,340.2c0.17-0.44,0.5-0.56,0.93-0.52C543.06,340.1,542.81,340.38,542.3,340.2z"/>
		<path class="st9" d="M543.19,339.75c-0.03-0.4,0.28-0.45,0.55-0.53C543.56,339.39,543.37,339.57,543.19,339.75z"/>
		<path class="st9" d="M380.15,341.54c-0.13-0.51,0.34-0.47,0.58-0.63C380.65,341.22,380.52,341.49,380.15,341.54z"/>
		<path class="st9" d="M491.83,284.93c-0.21,0.19-0.42,0.37-0.63,0.56C491.22,285.1,491.5,284.99,491.83,284.93z"/>
		<path class="st7" d="M107.19,260.89c1.01-1,0.81-2.38,1.06-3.6c0.22-1.05,0.64-1.47,1.8-1.47c10.27,0.05,20.54,0.08,30.8-0.02
			c1.87-0.02,1.67,1.04,1.7,2.16c0.39,13.52,0.77,27.05,1.16,40.57c0.02,0.83,0.08,1.67,0.13,2.5c0,2.82,0,5.65,0,8.47
			c0.22,0.02,0.43,0.04,0.65,0.06c2.1-4.76,4.22-9.52,6.3-14.28c5.01-11.44,10.01-22.88,15.02-34.33c1.05-4.67,4.1-5.41,8.5-5.22
			c8.96,0.39,17.95,0.17,26.93,0.07c1.83-0.02,2.13,0.47,1.8,2.16c-5.13,26.23-10.21,52.47-15.3,78.71
			c-0.35,1.79-0.89,3.56-1.01,5.37c-0.13,1.96-1.06,2.43-2.79,2.22c-0.74-0.09-1.51,0.05-2.27,0.08c-5.71,0-11.43,0-17.23,0
			c4.15-21.86,8.24-43.4,12.33-64.93c-0.19-0.05-0.39-0.11-0.58-0.16c-1.04,2.28-2.14,4.53-3.12,6.84
			c-1.63,3.83-3.2,7.68-4.79,11.53c-4.17,9.38-8.35,18.77-12.51,28.16c-2.2,4.98-4.52,9.91-6.51,14.97c-1,2.53-2.2,4.15-5.15,3.61
			c-4.64-0.04-9.28-0.16-13.91-0.06c-1.76,0.04-2.33-0.46-2.41-2.23c-0.59-12.6-1.27-25.2-1.94-37.8
			c-0.46-8.66-0.96-17.33-1.44-25.99c-1.18,4.34-2.05,8.7-2.87,13.08c-0.3,1.56-0.49,3.14-0.74,4.72
			c-1.49,7.48-3.01,14.95-4.48,22.44c-1.56,8.02-3.11,16.04-4.58,24.07c-0.24,1.32-0.77,1.81-2.08,1.7
			c-0.97-0.08-1.96,0.04-2.94,0.08c-4.33-0.03-8.65-0.1-12.98-0.09c-1.56,0.01-2.47-0.07-1.74-2.12c0.66-1.86,0.79-3.9,1.16-5.87
			c1.25-6.75,2.48-13.51,3.76-20.26c1.12-5.88,2.34-11.74,3.48-17.62c1.66-8.55,3.39-17.08,4.87-25.66
			C105.97,268.79,107.17,264.93,107.19,260.89z"/>
		<path class="st7" d="M201.7,310.03c6.36-7.35,14.84-10.16,24.11-11.37c4.24-0.55,8.49-0.42,12.75-0.5
			c0.51,0.13,1.02,0.26,1.53,0.38c2.92,0.69,3.74,0.15,4.09-2.83c0.55-4.78-0.81-5.83-4.03-6.96c-2.19-0.77-4.61-1.07-7-1.14
			c-7.85-0.21-15.6,0.35-23.2,2.47c-2.43,0.68-2.56,0.44-2.07-1.99c0.64-3.17,1.13-6.36,1.68-9.54c-0.02-3.77,2.45-4.57,5.59-5.22
			c10.26-2.12,20.54-3.61,30.97-1.67c14.37,2.67,20.39,11.28,18.41,25.78c-1.7,12.41-4.38,24.65-6.4,37.01
			c-0.43,2.62-0.86,5.25-1.08,7.89c-0.12,1.44-0.53,2.05-2.03,1.92c-1.13-0.1-2.27,0.04-3.41,0.07c-3.8-0.03-7.6-0.11-11.4-0.08
			c-1.2,0.01-1.63-0.31-1.49-1.54c0.2-1.81,0.27-3.63,0.43-5.88c-6.94,6.96-15.11,8.85-24,8.48c-10.8-0.44-18.21-8.14-18.47-18.93
			c-0.13-5.56,1.45-10.6,4.16-15.36c0,0-0.01,0.01-0.01,0.01c0.33-0.01,0.43-0.23,0.46-0.51c0,0-0.04,0.04-0.04,0.04
			C201.39,310.4,201.55,310.21,201.7,310.03z M234.63,326.53l-0.02,0.04c4.49-3.37,5.68-8.3,6.31-13.48
			c0.15-1.24-0.94-0.97-1.59-1.03c-4.33-0.36-8.65-0.18-12.85,0.94c-3.5,0.93-6.73,2.41-8.08,6.22c-2.18,6.02,0.71,10.82,6.61,10.94
			c3.36,0.07,6.43-0.79,9.07-2.96C234.27,326.98,234.45,326.75,234.63,326.53z"/>
		<path class="st7" d="M278.21,284.07c5.41-6.27,11.93-10.77,20.13-12.54c6.82-1.48,13.63-1.25,20.27,0.93
			c11.82,3.88,18.16,13.91,17.17,26.9c-0.32,4.25-1.13,8.42-1.93,12.6c-0.41,2.15-1.29,2.82-3.3,2.53c-0.58-0.09-1.2,0.07-1.81,0.11
			c-0.83-0.05-1.66-0.14-2.49-0.14c-10.92-0.01-21.84-0.01-32.76-0.01c-3.69,0-3.99,0.35-3.4,4c0.06,0.37,0.18,0.74,0.26,1.1
			c0.72,4.1,3.43,6.47,7.08,7.89c5.37,2.09,10.99,2.03,16.62,1.59c5.91-0.46,11.55-2.08,17.32-4.28
			c-1.14,5.78-2.24,11.26-3.31,16.75c-0.19,0.96-0.7,1.38-1.67,1.54c-1.11,0.18-2.2,0.57-3.29,0.86c-0.52,0.06-1.06,0.09-1.57,0.19
			c-9.58,1.76-19.19,2.26-28.78,0.19c-12.4-2.68-20.77-9.69-23.28-22.57c-1.29-6.65-0.91-13.3,0.48-19.92
			c1.2-5.71,3.81-10.81,6.66-15.82c0,0,0.01-0.02,0.01-0.02c0.42-0.17,0.83-0.34,0.51-0.92c0,0-0.07,0.07-0.07,0.07
			c0.54,0.16,0.59-0.12,0.49-0.53c0,0-0.07,0.05-0.07,0.05C277.99,284.75,278.06,284.35,278.21,284.07z M295.3,293.17
			c-0.32,0.06-0.41,0.28-0.41,0.56c-1.19,1.43-1.64,3.2-2.24,4.9c-0.34,0.94-0.01,1.36,1.06,1.35c6.05-0.06,12.09-0.08,18.14-0.11
			c1.13,0.03,2.27,0.08,3.4,0.1c0.44,0.01,0.84,0.04,1.09-0.54c1.39-3.29-0.89-9.35-4.24-11.14c-5.71-3.06-13.57-0.77-16.83,4.91
			L295.3,293.17z"/>
		<path class="st9" d="M276.63,285.97c-2.85,5.01-5.46,10.11-6.66,15.82c-1.4,6.62-1.78,13.27-0.48,19.92
			c2.5,12.88,10.87,19.89,23.28,22.57c9.59,2.07,19.2,1.57,28.78-0.19c0.52-0.1,1.05-0.13,1.57-0.19c0.13,3.2-1.67,4.27-4.61,4.84
			c-10.32,2-20.63,2.82-31,0.67c-14.39-2.99-22.26-11.12-23.92-25.76c-1.44-12.75,1.37-24.64,9.64-34.84
			C274.14,287.7,274.75,286.02,276.63,285.97z"/>
		<path class="st9" d="M107.19,260.89c-0.02,4.04-1.22,7.9-1.9,11.83c-1.48,8.58-3.21,17.12-4.87,25.66
			c-1.14,5.88-2.36,11.74-3.48,17.62c-1.29,6.75-2.51,13.51-3.76,20.26c-0.36,1.96-0.5,4.01-1.16,5.87
			c-0.73,2.05,0.18,2.12,1.74,2.12c4.33-0.01,8.65,0.05,12.98,0.09c-0.41,1.58-0.33,3.74-1.34,4.61c-1.28,1.09-3.5,0.33-5.31,0.35
			c-4.18,0.05-8.37-0.02-12.55,0.04c-1.53,0.02-1.82-0.26-1.5-1.94c2.59-13.32,4.96-26.67,7.5-40c2.32-12.21,4.78-24.39,7.16-36.58
			c0.5-2.58,1.13-5.15,1.4-7.75c0.16-1.59,0.86-1.89,2.2-1.8C105.28,261.31,106.28,261.37,107.19,260.89z"/>
		<path class="st9" d="M200.83,311.04c-2.72,4.76-4.29,9.79-4.16,15.36c0.26,10.79,7.66,18.49,18.47,18.93
			c8.9,0.36,17.07-1.53,24-8.48c-0.16,2.25-0.22,4.07-0.43,5.88c-0.14,1.23,0.29,1.55,1.49,1.54c3.8-0.04,7.6,0.04,11.4,0.08
			c-0.63,4.98-0.63,4.98-5.71,4.98c-3.65,0-7.3-0.09-10.95,0.04c-1.69,0.06-2.06-0.49-1.85-2.07c0.19-1.47,0.04-2.99,0.04-4.53
			c-1.01-0.04-1.42,0.8-2.05,1.29c-7.99,6.21-17.05,7.92-26.69,5.6c-7.47-1.8-12-7.01-13.27-14.62c-1.45-8.72,0.77-16.42,7.3-22.63
			C199.08,311.75,199.64,310.79,200.83,311.04z"/>
		<path class="st9" d="M168.29,297.61c1.59-3.84,3.15-7.7,4.79-11.53c0.98-2.3,2.08-4.56,3.12-6.84c0.19,0.05,0.39,0.11,0.58,0.16
			c-4.09,21.54-8.18,43.08-12.33,64.93c5.8,0,11.52,0,17.23,0c-0.18,1.19-0.4,2.37-0.54,3.57c-0.12,1.02-0.61,1.42-1.64,1.42
			c-6.45-0.03-12.91-0.02-19.36,0c-1.06,0-1.24-0.38-1.05-1.38c1.2-6.13,2.31-12.27,3.48-18.41c1.91-10.04,3.84-20.07,5.73-30.11
			C168.42,298.83,168.3,298.21,168.29,297.61z"/>
		<path class="st9" d="M345.64,282.31c-1.48,3.84-2.96,7.63-3.05,11.88c-0.14,6.46,2.15,11.63,7.26,15.61
			c3.21,2.5,6.84,4.15,10.53,5.74c1.94,0.84,3.87,1.72,5.78,2.64c2.23,1.08,3.59,2.71,3.32,5.38c-0.27,2.71-1.9,4.17-4.35,4.93
			c-0.35,0.11-0.73,0.16-1.09,0.24c0.22-2.85-1.39-4.42-3.74-5.62c-4.05-2.06-8.43-3.42-12.37-5.72
			c-5.09-2.97-9.29-6.77-10.31-12.86c-1.31-7.75-0.16-14.97,5.82-20.74C344.08,283.18,344.64,282.4,345.64,282.31z"/>
		<path class="st9" d="M120.82,296.06c0.24-1.57,0.44-3.15,0.74-4.72c0.83-4.37,1.69-8.74,2.87-13.08
			c0.48,8.66,0.98,17.32,1.44,25.99c0.67,12.6,1.35,25.2,1.94,37.8c0.08,1.77,0.66,2.26,2.41,2.23c4.63-0.1,9.27,0.03,13.91,0.06
			c-2.04,4.97-2.04,4.97-7.41,4.97c-3.65,0-7.3-0.05-10.96,0.02c-1.38,0.03-2.03-0.27-2.1-1.84c-0.58-12.37-1.23-24.74-1.89-37.11
			C121.51,305.61,121.14,300.83,120.82,296.06z"/>
		<path class="st9" d="M209.55,278.56c-0.55,3.18-1.04,6.38-1.68,9.54c-0.49,2.43-0.36,2.67,2.07,1.99
			c7.6-2.13,15.35-2.69,23.2-2.47c2.39,0.06,4.81,0.36,7,1.14c3.22,1.14,4.58,2.19,4.03,6.96c-0.34,2.98-1.17,3.52-4.09,2.83
			c-0.51-0.12-1.02-0.25-1.53-0.38c-0.46-3.09-2.73-4.38-5.37-4.81c-5.25-0.84-10.51-0.81-15.84-0.29
			c-4.76,0.47-9.44,1.09-14.04,2.37c-1.17,0.33-1.75-0.18-1.51-1.42c0.9-4.5,1.82-9,2.71-13.5c0.17-0.85,0.82-1.04,1.48-1.19
			C207.17,279.04,208.36,278.81,209.55,278.56z"/>
		<path class="st9" d="M165.82,260.96c-5,11.44-10,22.89-15.02,34.33c-2.09,4.77-4.2,9.52-6.3,14.28c-0.22-0.02-0.43-0.04-0.65-0.06
			c0-2.82,0-5.65,0-8.47c5.3-12.08,10.6-24.16,15.89-36.24C161.49,260.79,161.49,260.79,165.82,260.96z"/>
		<path class="st9" d="M290.36,319.56c-0.09-0.37-0.2-0.73-0.26-1.1c-0.59-3.65-0.29-4,3.4-4c10.92,0,21.84,0,32.76,0.01
			c0.83,0,1.66,0.09,2.49,0.14c-0.94,4.97-0.94,4.97-5.88,4.97C312.03,319.57,301.19,319.56,290.36,319.56z"/>
		<path class="st9" d="M277.16,285.03c0.32,0.58-0.1,0.75-0.51,0.92C276.2,285.29,276.7,285.18,277.16,285.03z"/>
		<path class="st9" d="M346.47,281.47c-0.08,0.23-0.1,0.55-0.49,0.39C346.14,281.73,346.3,281.6,346.47,281.47z"/>
		<path class="st9" d="M346.05,281.81c0.02,0.33,0.1,0.73-0.47,0.55C345.73,282.17,345.89,281.99,346.05,281.81z"/>
		<path class="st9" d="M201.28,310.55c-0.04,0.28-0.13,0.5-0.46,0.51C200.69,310.63,200.95,310.56,201.28,310.55z"/>
		<path class="st9" d="M201.7,310.03c-0.15,0.18-0.31,0.37-0.46,0.55C201.39,310.4,201.55,310.21,201.7,310.03z"/>
		<path class="st9" d="M277.58,284.56c0.1,0.42,0.05,0.7-0.49,0.53C277.09,284.77,277.28,284.62,277.58,284.56z"/>
		<path class="st9" d="M278.21,284.07c-0.16,0.28-0.23,0.68-0.71,0.54C277.74,284.43,277.98,284.25,278.21,284.07z"/>
		<path class="st4" d="M528.16,324.56c-2.67,2.38-5.65,4.18-9.34,4.03c-5.23-0.21-8.67-3.15-10.26-7.93
			c-2.9-8.74-1.38-16.99,3.39-24.74c0.09-0.14,0.19-0.27,0.28-0.41c0,0-0.02,0.05-0.02,0.05c0.7-0.29,1.4-0.56,2.09-0.86
			c7.8-3.31,14.99,0.22,16.88,8.33c0.64,2.75,0.68,5.54,0.48,8.36c-0.32,4.34-1.29,8.5-2.95,12.51c0,0,0.02-0.11,0.02-0.11
			C528.54,324.05,528.35,324.3,528.16,324.56z"/>
		<path class="st9" d="M528.71,323.9c1.67-4.01,2.64-8.17,2.95-12.51c0.21-2.82,0.16-5.61-0.48-8.36
			c-1.88-8.11-9.08-11.64-16.88-8.33c-0.69,0.29-1.39,0.57-2.09,0.86c2.56-4.14,6.14-6.81,11.02-7.6
			c5.67-0.91,11.04,1.89,12.48,7.44c2.54,9.76,1.59,19.1-5.3,27.14C529.95,323.09,529.57,323.82,528.71,323.9z"/>
		<path class="st9" d="M528.16,324.56c0.19-0.25,0.38-0.51,0.57-0.76C528.97,324.37,528.41,324.35,528.16,324.56z"/>
		<path class="st9" d="M512.23,295.51c-0.09,0.14-0.19,0.27-0.28,0.41C512.04,295.78,512.14,295.64,512.23,295.51z"/>
		<path class="st4" d="M466.99,282.26c-0.04,0.17,0,0.43-0.3,0.29c-0.04-0.02,0.07-0.34,0.11-0.52
			C466.87,282.11,466.93,282.19,466.99,282.26z"/>
		<path class="st4" d="M565.97,338.57c0.01,2.25-1.92,4.27-4.12,4.31c-2.27,0.04-4.43-2.03-4.44-4.27c-0.01-2.27,2.07-4.3,4.4-4.29
			C564.04,334.34,565.95,336.29,565.97,338.57z M561.31,339.2c1.14,0.25,0.75,2.08,1.84,1.78c1.39-0.38-0.42-1.48,0.21-2.22
			c0.23-0.27,0.39-0.66,0.43-1.01c0.1-0.89-0.37-1.51-1.24-1.56c-0.83-0.04-2.19-0.58-2.39,0.38c-0.29,1.41-0.49,3.02,0.25,4.56
			C561.35,340.64,560.79,339.76,561.31,339.2z"/>
		<path class="st5" d="M234.09,327.2c-2.64,2.17-5.71,3.03-9.07,2.96c-5.9-0.12-8.79-4.93-6.61-10.95
			c5.2-2.02,10.59-2.54,16.11-2.07c1.46,0.12,1.86,0.65,1.7,2.16c-0.27,2.5-1.35,4.78-1.62,7.26c0,0,0.02-0.04,0.02-0.04
			C234.19,326.55,234.19,326.92,234.09,327.2z"/>
		<path class="st9" d="M234.61,326.57c0.26-2.48,1.34-4.76,1.62-7.26c0.16-1.51-0.24-2.04-1.7-2.16
			c-5.53-0.46-10.91,0.05-16.11,2.07c1.35-3.81,4.58-5.29,8.08-6.22c4.2-1.11,8.52-1.29,12.85-0.94c0.65,0.05,1.74-0.22,1.59,1.03
			C240.29,318.26,239.1,323.19,234.61,326.57z"/>
		<path class="st9" d="M234.09,327.2c0.1-0.29,0.11-0.65,0.54-0.67C234.45,326.75,234.27,326.98,234.09,327.2z"/>
		<path class="st9" d="M295.25,293.19c3.27-5.67,11.12-7.96,16.83-4.91c3.35,1.79,5.63,7.85,4.24,11.14
			c-0.24,0.58-0.65,0.54-1.09,0.54c-1.13-0.02-2.27-0.06-3.4-0.1c-0.75-4.53-3.62-7.11-8.17-7.63
			C300.76,291.9,298.03,292.67,295.25,293.19z"/>
		<path class="st5" d="M295.25,293.19c2.78-0.53,5.5-1.29,8.42-0.96c4.55,0.53,7.43,3.1,8.17,7.63c-6.05,0.03-12.09,0.05-18.14,0.11
			c-1.06,0.01-1.39-0.41-1.06-1.35c0.6-1.69,1.05-3.47,2.24-4.9c0.14-0.19,0.27-0.38,0.41-0.56L295.25,293.19z"/>
		<path class="st9" d="M295.3,293.17c-0.14,0.19-0.27,0.38-0.41,0.56C294.89,293.45,294.98,293.23,295.3,293.17z"/>
		<path class="st8" d="M598.59,402.22c-2.24-0.01-4.14-1.98-4.15-4.27c-0.01-2.3,1.88-4.27,4.12-4.31c2.31-0.03,4.44,2.01,4.46,4.27
			C603.03,400.17,600.9,402.24,598.59,402.22z M596.75,398.02c0,0.23-0.04,0.46,0.01,0.68c0.11,0.55-0.36,1.42,0.36,1.59
			c1.01,0.25,0.57-0.77,0.76-1.24c0.29-0.73,0.66-0.76,1.07-0.11c0.32,0.51,0.15,1.68,1.08,1.37c0.92-0.31,0-1.12,0.03-1.71
			c0.02-0.34,0.31-0.66,0.42-1.01c0.4-1.19-0.05-1.88-1.26-2.12C597.07,395.03,596.75,395.37,596.75,398.02z"/>
		<path class="st8" d="M561.31,339.2c-0.51,0.56,0.05,1.44-0.89,1.93c-0.75-1.54-0.54-3.15-0.25-4.56c0.2-0.96,1.56-0.43,2.39-0.38
			c0.87,0.05,1.34,0.67,1.24,1.56c-0.04,0.35-0.2,0.74-0.43,1.01c-0.63,0.74,1.18,1.84-0.21,2.22
			C562.06,341.28,562.45,339.45,561.31,339.2z"/>
	</g>
</g>
<g id="Capa_3">
	<path class="st10" d="M325.92,181.34c8.16-8,18.17-13.12,28.37-17.81c19.71-9.06,40.53-13.47,62.17-12.81
		c36.08,1.11,67.69,13.62,94.34,38.25c24.75,22.87,39.85,51.06,44.39,84.24c5.81,42.48-5,80.67-33.01,113.59
		c-23.17,27.22-52.69,43.54-87.88,48.56c-39.68,5.66-75.93-3.84-108.11-28.03c-0.39-0.3-0.83-0.54-1.24-0.81
		c-0.05-0.25-0.06-0.51-0.03-0.77c1.27-0.77,2.73-1.33,3.78-2.33c9.08-8.73,18.31-17.33,25.38-27.88
		c21.04-31.4,29.61-65.65,23.89-103.25c-4.66-30.61-18.12-56.74-39.49-79.02C334.46,189.09,329.32,186.14,325.92,181.34z"/>
	<path class="st11" d="M324.92,405.76c-0.03,0.26-0.02,0.51,0.03,0.77c-22.2,17.03-47.17,27.43-75.05,29.78
		c-36.78,3.1-70.39-6.02-99.9-28.52c-30.79-23.47-49.5-54.56-55.06-92.75c-5.94-40.77,3.81-77.94,29.7-110.37
		c23.93-29.99,55.21-47.7,93.14-52.66c39.63-5.18,75.54,4.76,107.18,29.43c-7.65,6.12-14.69,12.83-21.02,20.36
		c-21.25,25.3-32.19,54.61-33.64,87.37c-0.86,19.37,2.62,38.22,9.76,56.35C289.57,369.67,304.23,389.95,324.92,405.76z"/>
	<path class="st12" d="M324.92,405.76c-20.69-15.81-35.35-36.1-44.86-60.24c-7.14-18.13-10.62-36.98-9.76-56.35
		c1.45-32.76,12.39-62.07,33.64-87.37c6.33-7.53,13.36-14.24,21.02-20.36c0.32-0.02,0.64-0.05,0.95-0.1
		c3.4,4.79,8.55,7.75,12.56,11.93c21.37,22.28,34.83,48.42,39.49,79.02c5.72,37.6-2.85,71.85-23.89,103.25
		c-7.07,10.55-16.3,19.16-25.38,27.88C327.66,404.43,326.19,405,324.92,405.76z"/>
	<path class="st13" d="M125.48,475.11c7.77-6.92,15.31-7.01,22.03-0.66c1.7,1.61,2.31,1.3,3.74-0.11c5.2-5.11,11.39-5.69,17.91-3.09
		c6.41,2.56,8.49,7.91,8.49,14.37c0,6.64-0.24,13.29,0.09,19.92c0.19,3.8-1.97,3.33-4.34,3.4c-2.54,0.08-4.4,0.13-4.19-3.5
		c0.34-5.79,0.15-11.62,0.08-17.43c-0.09-6.59-3.09-10.36-8.17-10.42c-5.76-0.08-9.28,3.66-9.47,10.42
		c-0.17,5.81-0.27,11.63,0.03,17.42c0.19,3.63-1.74,3.49-4.26,3.52c-2.59,0.03-4.33,0.02-4.16-3.56c0.31-6.29,0.37-12.63-0.09-18.91
		c-0.56-7.77-6.9-11.09-13.32-7.41c-3.54,2.03-4.05,5.47-4.14,8.99c-0.14,5.81-0.27,11.63,0.04,17.43c0.2,3.71-1.88,3.38-4.32,3.47
		c-2.65,0.09-4.22-0.07-4.12-3.59c0.27-10.29,0.1-20.58,0.09-30.87c0-2-0.43-4.16,2.85-3.76
		C122.75,471.03,126.26,469.52,125.48,475.11z"/>
	<path class="st13" d="M525.96,475.04c0-5.98,0.19-11.26-0.06-16.51c-0.18-3.73,2.27-2.95,4.25-2.86c1.84,0.08,4.42-1.21,4.39,2.68
		c-0.14,15.93-0.06,31.86-0.05,47.79c0,1.33,0.23,3-1.79,2.71c-2.26-0.33-5.88,1.62-6.51-1.44c-0.69-3.38-1.43-1.41-2.5-0.69
		c-6.99,4.65-15.5,4.08-22.01-1.48c-6.74-5.75-8.66-16.53-4.45-25.01c3.64-7.35,12.04-11.58,19.84-10.16
		C520.39,470.67,523.08,472.35,525.96,475.04z M526.59,490.06c0.07-6.94-5.01-12.42-11.57-12.47c-6.18-0.05-11.29,5.39-11.39,12.12
		c-0.11,7.04,4.83,12.26,11.56,12.22C521.68,501.91,526.52,496.87,526.59,490.06z"/>
	<path class="st13" d="M449,473.33c0.73-4.78,4.42-2.2,6.72-2.45c3.14-0.34,1.9,2.48,1.91,3.98c0.11,9.96,0.1,19.91,0.01,29.87
		c-0.02,1.64,1.25,4.64-2.3,4.08c-2.35-0.37-6.76,2.67-6.06-3.46c-10.48,6.65-20.05,5.58-26.77-2.7
		c-6.04-7.45-5.52-19.98,1.12-26.97c6.76-7.11,16.65-7.74,24.63-1.57c0.41,0.28,0.87,0.54,1.17-0.06
		C449.5,473.92,449.15,473.57,449,473.33z M438.14,501.96c6.69,0.1,11.59-4.98,11.65-12.08c0.06-6.64-4.78-12.05-10.98-12.3
		c-6.41-0.26-11.92,5.24-12.01,11.97C426.7,496.59,431.53,501.87,438.14,501.96z"/>
	<path class="st13" d="M215.81,474.36c-0.35-5.23,3.44-3.38,5.99-3.58c3.57-0.29,2.33,2.5,2.35,4.15c0.09,9.95,0.09,19.9,0,29.85
		c-0.01,1.66,1.16,4.64-2.37,4.03c-2.29-0.39-6.99,2.82-5.68-3.7c-10.48,6.71-19.7,5.94-26.55-1.89c-6.29-7.19-6.19-19.45,0.22-27
		C196.08,468.81,205.77,468.06,215.81,474.36z M216.35,490.22c0.11-7.1-4.66-12.52-11.15-12.63c-6.5-0.12-11.66,5.27-11.71,12.21
		c-0.05,7.12,4.7,12.15,11.47,12.16C211.48,501.96,216.24,497.05,216.35,490.22z"/>
	<path class="st13" d="M330.81,493.17c-3.82,0-7.64,0.06-11.46-0.02c-2.6-0.05-2.67,0.92-1.71,3c2.81,6.12,10.77,8.36,18.05,4.12
		c4.06-2.37,4.72-0.09,6.32,2.5c2.2,3.56-1.36,3.51-2.69,4.26c-7.72,4.33-18.44,3.73-24.39-1.42c-6.91-5.97-8.24-13.71-6-22.16
		c2.49-9.41,11.72-15.2,20.92-13.44c9.79,1.88,16.22,10.8,15.19,20.72c-0.21,2.05-1.02,2.47-2.78,2.44
		C338.45,493.13,334.63,493.17,330.81,493.17z M326.55,486.53c2.16,0,4.33-0.14,6.47,0.03c3.37,0.27,3.68-1.08,2.32-3.73
		c-1.63-3.18-3.97-5.2-7.7-5.39c-3.96-0.2-7.24,0.98-9.23,4.57c-0.68,1.23-2.1,2.73-1.05,4.04c0.57,0.7,2.42,0.43,3.7,0.47
		C322.9,486.58,324.73,486.53,326.55,486.53z"/>
	<path class="st13" d="M249.54,509.89c-5.36-0.17-9.2-0.96-12.98-2.4c-3.75-1.43-4.72-3.1-2.08-6.62c1.38-1.84,2.08-2.18,4.15-1.02
		c4.62,2.6,9.63,3.43,14.87,1.93c2.07-0.59,3.83-1.58,3.78-3.95c-0.05-2.23-1.93-2.96-3.77-3.34c-3.56-0.75-7.22-1.14-10.72-2.09
		c-6.03-1.64-9.06-5.28-9.07-10.33c-0.02-5.36,3.57-9.82,9.41-11.36c6.67-1.76,13.16-0.98,19.45,1.81c1.64,0.73,3.4,1.48,1.5,3.38
		c-1.37,1.37-0.52,5.74-4.73,3.65c-3.47-1.73-7.22-2.38-11.13-2.09c-2.7,0.2-5.3,1.07-5.6,3.92c-0.32,3.06,2.65,3.37,4.87,3.86
		c2.59,0.56,5.25,0.79,7.84,1.33c7.03,1.46,10.6,4.98,10.76,10.45c0.17,5.75-3.38,10.11-10.02,11.87
		C253.53,509.57,250.85,509.7,249.54,509.89z"/>
	<path class="st13" d="M279.25,489.42c0-1.82-0.17-3.67,0.04-5.47c0.46-3.92-0.25-6.45-5.09-5.47c-2.78,0.56-2.97-1.4-2.67-3.36
		c0.25-1.66-1.22-4.87,2.21-4.26c6.21,1.11,5.91-2.65,5.48-6.57c-0.41-3.67,0.5-5.31,4.69-5.09c3.29,0.17,4.13,1.07,4.04,4.28
		c-0.19,7.26-0.01,7.21,7.6,7.3c2.62,0.03,6.13-1.47,5.87,3.84c-0.16,3.4-1.27,4-4.33,3.96c-9.22-0.1-9.22,0.02-9.22,9.16
		c0,2.16-0.02,4.31,0,6.47c0.05,7.17,2.86,9.39,9.7,6.74c3.21-1.24,3.51,0.19,4.32,2.33c0.89,2.37,1.4,3.96-1.86,5.23
		c-12.15,4.7-20.7-0.78-20.76-13.62C279.24,493.06,279.25,491.24,279.25,489.42z"/>
	<path class="st13" d="M401.58,509.84c-9.88,0.08-17.15-4.42-20.05-12c-3.32-8.69-1.08-18.24,5.52-23.56
		c6.55-5.28,17.08-5.97,24.39-1.7c1.74,1.02,3.43,2.03,1.41,4c-1.44,1.4-0.76,5.63-5.37,3.17c-9.18-4.9-18.17-0.21-18.65,9.11
		c-0.54,10.41,8.77,16.55,18.31,11.4c4.59-2.48,4.34,1.18,5.73,2.91c2.48,3.09-0.87,3.55-2.38,4.47
		C407.6,509.39,404.26,509.76,401.58,509.84z"/>
	<path class="st13" d="M361.91,474.85c3.77-4.03,7.8-5.95,12.75-4.66c0.98,0.26,3.75-0.36,2.48,2.31c-0.98,2.06,0.1,5.8-3.74,5.75
		c-9.6-0.12-11.5,1.64-11.51,11.3c-0.01,5.13-0.26,10.28,0.09,15.39c0.24,3.47-1.06,4.14-4.16,4.04c-2.81-0.09-4.51-0.14-4.39-3.9
		c0.31-10.09,0.08-20.19,0.13-30.29c0.01-1.76-0.97-4.45,2.5-4.01C358.5,471.1,362.54,468.85,361.91,474.85z"/>
	<path class="st13" d="M476.87,475.15c2.78-3.55,5.77-5.14,9.39-5.32c2.16-0.11,5.14-0.21,5.9,1.52c0.65,1.48-0.95,3.96-1.57,5.99
		c-0.52,1.73-1.75,0.94-2.84,0.83c-7.78-0.8-10.93,2.01-11.04,9.99c-0.08,5.64-0.28,11.29,0.08,16.9c0.23,3.66-1.41,3.88-4.31,3.93
		c-2.93,0.06-3.96-0.55-3.88-3.78c0.25-10.11,0.05-20.22,0.13-30.34c0.01-1.65-1.31-4.38,2.32-4.13
		C473.64,470.94,477.27,469.3,476.87,475.15z"/>
	<path class="st14" d="M449,473.33c0.16,0.25,0.5,0.59,0.44,0.72c-0.31,0.6-0.76,0.34-1.17,0.06
		C448.51,473.85,448.75,473.59,449,473.33z"/>
</g>
</svg>
