<?xml version="1.0" encoding="utf-8"?>
<!-- Generator: Adobe Illustrator 24.2.3, SVG Export Plug-In . SVG Version: 6.00 Build 0)  -->
<svg version="1.1" id="Capa_1" xmlns="http://www.w3.org/2000/svg" xmlns:xlink="http://www.w3.org/1999/xlink" x="0px" y="0px"
	 viewBox="0 0 650 650" style="enable-background:new 0 0 650 650;" xml:space="preserve">
<style type="text/css">
	.st0{fill:#FFFFFF;}
</style>
<path class="st0" d="M325.91,44.41c42.43,0.47,83.61,8.41,121.78,28.9c21.52,11.55,40.53,26.27,53.93,47.03
	c20.93,32.41,20.71,66.66,5.91,100.95c-12.59,29.17-35.81,48.57-63.51,62.94c-26.24,13.62-54.38,20.62-83.61,23.93
	c-17.91,2.02-35.89,2.46-53.78,1.4c-43.43-2.57-84.66-12.81-120.76-38.46c-22.89-16.26-40.34-37.04-47.83-64.56
	c-11.99-44-0.92-81.49,33.77-111.51c27.22-23.56,59.43-36.69,94.16-44.34C285.54,46.39,305.4,44.67,325.91,44.41z M326.82,288.02
	c19.89-0.32,40-2.15,59.69-6.75c25.45-5.95,49.74-14.85,71.69-29.62c14.86-10,27.99-21.64,37.77-36.67
	c9.3-14.29,14.61-29.9,13.78-47.25c-0.12-2.55-0.44-3.45-3.39-2.69c-6.82,1.76-13.65,3.49-20.48,5.23
	c-16.91,4.33-33.22,10.39-49.55,16.41c-1.83,0.67-2.34,1.75-1.64,3.72c1.07,3.02,1.58,6.22,1.01,9.43
	c-1.57,8.87-9.82,15.51-19.22,15.61c-1.88,0.02-3.74-0.63-4.55,2.4c-2.92,10.85-10.46,16.59-21.8,16.86
	c-2.12,0.05-3.25,0.92-4.03,2.56c-2.7,5.69-7.25,9.54-13.22,10.62c-6.76,1.23-13.57,1.8-19.13,6.43c-0.38,0.32-0.99,0.39-1.5,0.53
	c-7.52,2.02-14.55,0.29-21.34-2.88c-2.07-0.97-3.85-1.38-6-0.01c-12.68,8.09-23.98,5.95-32.56-6.12c-1.04-1.46-1.96-1.9-3.92-1.75
	c-8.29,0.65-15.22-2.39-20.22-9.07c-1.48-1.98-2.78-2.7-5.22-2.65c-8.88,0.2-17.48-5.69-20.37-13.99c-0.83-2.39-2.11-2.96-4.39-3.06
	c-7.36-0.33-12.83-3.82-16.57-10.2c-2.5-4.26-1.79-8.84-1.53-13.34c0.15-2.54-0.75-3.85-2.92-5.05
	c-11.84-6.56-24.52-10.89-37.42-14.8c-11.75-3.56-23.74-6.07-35.6-9.15c-2.62-0.68-2.94,0.6-3.02,2.66
	c-0.74,18.25,4.49,34.88,14.2,50.08c10.4,16.3,24.91,28.44,41.12,38.6c23.45,14.7,49.21,23.56,76.19,28.83
	C290.4,286.42,308.4,287.83,326.82,288.02z M278.06,108.82c-2.39-0.48-4.24,0.44-6.06,1.04c-12.58,4.17-25.29,5.53-38.36,2.48
	c-16.83-3.94-33.34-8.93-49.41-15.29c-1.95-0.77-3.15-0.48-4.65,0.77c-4.33,3.61-8.46,7.42-12.29,11.55
	c-11.19,12.06-19.66,25.66-23.78,41.78c-0.62,2.41-0.14,3.17,2.23,3.75c9.62,2.34,19.23,4.76,28.76,7.41
	c17.04,4.74,33.89,10.05,48.98,19.63c1.76,1.11,2.57,0.31,3.8-0.54c7.78-5.39,16.69-4.97,23.56,1.34c1.65,1.51,2.69,1.34,4.46,0.47
	c9.68-4.77,20.17-2.47,26.99,5.97c1.26,1.56,2.38,1.67,4.1,1.39c13.68-2.27,23.63,5.51,24.34,19.2c0.12,2.28,0.85,2.76,2.92,3.08
	c14.93,2.31,22.53,14.31,18.52,29.08c-0.28,1.02-0.95,1.98,0.52,2.69c6.19,2.97,12.52,4.9,19.33,2.35c3.91-1.47,4.1-2.43,1.36-5.46
	c-4.39-4.87-8.82-9.71-13.19-14.61c-1.01-1.13-1.9-2.54-0.61-3.92c1.29-1.38,2.71-0.58,3.95,0.33c0.65,0.48,1.23,1.03,1.85,1.55
	c5.45,4.57,10.38,9.69,15.49,14.61c3.84,3.69,11.49,2.94,15.68-1.31c3.69-3.75,3.38-6.56-1.24-11.72
	c-5.36-5.99-10.69-11.99-16-18.01c-1.01-1.15-1.9-2.58-0.71-3.95c1.25-1.45,2.75-0.46,3.97,0.33c1.12,0.72,2.13,1.63,3.09,2.56
	c5.62,5.36,11.32,10.64,16.79,16.15c3.4,3.43,7.36,4.42,11.75,3.25c4.83-1.29,8.88-3.89,10.34-9.1c1.33-4.73-1.49-7.85-4.53-10.84
	c-3.44-3.38-6.85-6.78-10.25-10.2c-4.06-4.08-8.12-8.17-12.12-12.31c-1.19-1.24-2.72-2.8-1.08-4.49c1.61-1.65,3.18-0.2,4.55,0.88
	c0.95,0.75,1.89,1.5,2.78,2.3c7.98,7.15,15.96,14.3,23.92,21.46c5.32,4.78,13.66,4.34,18.36-1.01c3.95-4.49,2.91-10.48-2.74-15.39
	c-13.34-11.6-26.61-23.28-40.08-34.72c-11.53-9.79-22.71-20.02-35.1-28.75c-5.94-4.18-12.37-6.29-19.7-4.2
	c-3.79,1.08-7.25,2.83-10.42,5.07c-7.65,5.41-15.03,11.21-22.78,16.46c-10.31,6.98-21.29,6.52-32.08,1.34
	c-7.55-3.62-8.34-9.32-2.76-15.43C266.28,121.52,272.1,115.27,278.06,108.82z M334.42,91.32c-15.99-0.12-30.35,4.36-42.55,15.01
	c-9.41,8.21-17.5,17.7-26.08,26.72c-1.73,1.82-1.18,2.93,0.7,4.01c4.24,2.43,8.83,2.84,13.58,2.55c6.96-0.43,12.23-4.36,17.48-8.32
	c6.62-4.99,12.81-10.57,20-14.79c11.18-6.56,22.24-7.06,33.14,0.64c2.84,2.01,5.75,3.93,8.45,6.12
	c22.56,18.32,44.38,37.51,66.27,56.6c1.79,1.56,3.13,2.16,5.58,1.1c23.73-10.32,48.3-18.18,73.51-23.97
	c3.65-0.84,4.28-2.01,3.37-5.47c-5.34-20.28-16.99-36.41-32.26-50.3c-2.17-1.97-3.83-2.36-6.62-1.12
	c-32.83,14.54-65.63,15.7-98.55-0.1C359.14,94.57,347.08,91.46,334.42,91.32z M420.35,103.98c3.22,0.33,8.17-0.36,13.03-1.13
	c9.75-1.53,19.28-4.03,28.46-7.81c3.22-1.32,3.45-2.43,0.5-4.37c-7.44-4.91-15.04-9.55-22.99-13.6
	c-19.87-10.13-41.05-16.35-62.81-20.61c-12.98-2.54-26.18-3.8-39.39-4.2c-16.58-0.5-33.13,0.02-49.64,2.27
	c-21.5,2.92-42.31,8.3-62.41,16.42c-11.76,4.75-22.74,10.98-33.39,17.82c-0.77,0.49-1.94,0.85-1.95,1.87
	c-0.02,1.31,1.36,0.97,2.15,1.29c13.64,5.5,27.87,9.04,42.09,12.61c9.47,2.38,18.97,2.76,28.5,0.12c8.22-2.27,16.32-5.24,25.05-5
	c0.9,0.02,1.37-0.64,2.01-1.13c9.79-7.6,20.76-12.22,33.1-14.08c10.12-1.52,20.09-0.71,29.9,1.27c10.93,2.21,20.94,7.44,31.27,11.51
	C395.07,101.69,406.6,103.77,420.35,103.98z M250.34,197.85c-0.52-2.29-0.73-3.74-1.18-5.1c-2.02-6.08-8.61-9.4-14.48-7.36
	c-6.18,2.15-9.48,8.85-7.34,14.89c2.59,7.32,11.13,9.93,17.86,5.51c0.78-0.51,1.27-2.08,2.6-1.14c1.06,0.75,0.61,1.93,0.49,2.98
	c-0.03,0.27-0.05,0.53-0.08,0.8c-1.25,12.12,12.19,21.48,21.17,14.35c2.05-1.63,3.18-0.64,3.03,1.89
	c-0.32,5.28,2.61,8.47,6.96,10.72c4.41,2.27,8.57,2.38,12.68-0.94c2.86-2.31,4.29-1.69,4.43,1.91c0.16,4.03,2.19,6.9,4.93,9.42
	c5.15,4.73,13.17,5.06,18.89,0.88c5.55-4.06,7.62-11.82,4.8-17.96c-2.92-6.38-10.02-10.04-16.48-8.51
	c-6.85,1.63-6.85,1.63-5.31-5.24c1.53-6.82-0.22-12.38-4.84-15.42c-5.25-3.46-10.66-3.23-16.33,0.93c-2.17,1.59-2.9,1.08-3.41-1.38
	c-1.84-9.01-9.33-13.08-18.12-10.12C256.2,190.42,253.31,193.61,250.34,197.85z"/>
<path class="st0" d="M380.75,561.68c-15.01,17.34-41.33,11.58-51.13-8.62c-8.51-17.53-7.59-35.62,1.58-52.87
	c5.07-9.54,13.97-13.42,24.4-14.63c12.09-1.41,23.45-0.26,33.58,7.35c7.41,5.56,11.66,12.97,12.52,21.98
	c1.75,18.3,0.67,36.68,0.64,55.02c-0.01,5.67-1.93,11.02-4.48,16.11c-5.56,11.12-14.36,18.03-26.79,19.21
	c-15.11,1.43-29.21-0.81-39.01-14.28c-2.21-3.04-3.81-6.41-5.06-9.96c-0.72-2.03-0.08-2.62,1.94-2.59
	c6.03,0.08,12.06,0.05,18.09,0.05c1.13,0,2.08,0.3,2.83,1.21c4.87,5.94,11.01,8.6,18.5,6.2c7.61-2.44,10.78-8.71,12.24-16.02
	C381.11,567.23,381.05,564.6,380.75,561.68z M380.95,528.68c0.24-6.22-1.19-12.49-4.78-18.24c-3.08-4.94-7.66-6.9-13.23-6.71
	c-5.6,0.19-10.56,1.83-13.23,7.35c-5.02,10.37-5.41,21.1-2.15,32c1.86,6.21,5.98,9.87,12.68,10.47c7.58,0.68,13.81-1.27,17.52-8.42
	C380.35,540.13,381.01,534.71,380.95,528.68z"/>
<path class="st0" d="M22.67,427.43c0.62-8.51-1.23-18.77,1.07-28.82c2.84-12.44,10.14-21.27,22.57-24.84
	c12.5-3.59,24.19-2.02,33.75,7.75c1.5,1.53,2.24,1.41,3.73-0.04c10.46-10.21,22.87-11.65,36.06-6.97
	c12.88,4.57,19.32,14.8,20.34,27.84c1.38,17.63,0.28,35.35,0.52,53.03c0.03,1.93-0.94,2.16-2.5,2.15
	c-4.69-0.05-9.38-0.16-14.06,0.05c-2.65,0.12-3.36-0.71-3.34-3.37c0.13-15.41,0.12-30.81,0.02-46.22
	c-0.04-5.72-1.45-11.04-7.11-13.85c-5.28-2.62-10.67-2.4-15.7,0.78c-4.87,3.09-6.54,7.92-6.55,13.44
	c-0.03,14.74-0.13,29.48,0.05,44.21c0.05,3.93-0.99,5.49-5.14,5.04c-3.71-0.4-7.51-0.27-11.24-0.03c-2.82,0.18-3.61-0.71-3.59-3.54
	c0.13-15.54,0.15-31.08,0.01-46.62c-0.11-11.5-8.37-17.47-19.23-14.14c-6.03,1.85-9.78,7.27-9.81,14.53
	c-0.06,15.27-0.12,30.55,0.04,45.82c0.04,3.2-0.82,4.18-4.01,3.97c-4.27-0.28-8.58-0.24-12.85-0.01c-2.6,0.14-3.13-0.82-3.1-3.21
	C22.74,445.95,22.67,437.51,22.67,427.43z"/>
<path class="st0" d="M179.82,561.08c0,8.71-0.36,16.59,0.1,24.42c0.46,7.76-4.68,13.57-12.91,13.1c-8.93-0.51-8.95-0.09-8.95-9.08
	c0-21.97-0.01-43.94,0.01-65.91c0.01-6.2,0.54-12.35,3.23-18.03c5.82-12.29,16.16-18.1,29.19-19.67c5.85-0.7,11.81-0.88,17.62,0.3
	c13.09,2.65,22.47,10.16,26.61,22.91c5.52,17.02,5.03,33.84-4.93,49.36c-9.03,14.07-28.58,18.22-42.53,9.52
	C184.58,566.34,182.84,563.78,179.82,561.08z M179.79,530c-0.25,3.2,0.33,7.18,1.63,11c2.16,6.31,6.02,11.06,12.94,12.33
	c6.87,1.26,12.75-0.61,17-6.39c6.23-8.48,6.04-27.8-0.27-36.33c-7.11-9.61-22.26-8.7-27.98,1.79
	C180.28,517.58,179.77,523.33,179.79,530z"/>
<path class="st0" d="M515.22,384.05c0-7.56-0.03-14.21,0.01-20.86c0.07-11.32,9.37-18.85,20.49-16.76c2.23,0.42,1.44,1.93,1.44,3.06
	c0,14.07-0.07,28.15-0.1,42.22c-0.02,10.05-0.35,20.12,0.06,30.16c0.73,17.9-9.49,35.86-35.95,37.27
	c-6.2,0.33-12.31-0.37-18.31-1.95c-15.52-4.08-22.78-15.23-24.97-30.14c-1.92-13.1-0.76-25.99,5.76-37.87
	c7.17-13.07,22.09-19.52,36.25-15.92C505.68,374.74,509.52,377.36,515.22,384.05z M515.92,418.45c-0.04-7.23-0.78-12.66-3.32-17.64
	c-3.19-6.26-8.34-9.52-15.48-9.44c-7.02,0.08-12.01,3.25-14.72,9.73c-4.22,10.11-4.03,20.33-0.11,30.44
	c2.4,6.18,7.22,9.47,13.85,9.85c6.64,0.38,12.03-1.92,15.65-7.74C515.01,428.46,515.84,422.71,515.92,418.45z"/>
<path class="st0" d="M200.26,421.67c-8.71,0-17.42,0.11-26.13-0.07c-2.85-0.06-3.42,0.85-2.97,3.47c1.34,7.81,5.31,14.22,12.97,15.9
	c6.95,1.53,14.72,1.71,20.49-4.38c1.13-1.19,2.2-1.69,3.78-1.67c5.89,0.08,11.79,0.1,17.68,0.05c2.6-0.02,3.01,0.01,1.66,2.96
	c-6.61,14.5-18.46,20.51-33.47,21.36c-16.1,0.91-30.16-3.69-39.26-17.85c-6.36-9.9-6.53-21.31-5.37-32.68
	c1.49-14.58,7.91-25.94,21.55-32.5c14.34-6.9,42.02-6.32,53.63,14.3c5.15,9.15,5.94,19.01,5.79,29.15
	c-0.04,2.49-1.69,1.96-3.03,1.97c-9.11,0.04-18.22,0.02-27.33,0.02C200.26,421.7,200.26,421.68,200.26,421.67z M189.71,407.47
	c4.81,0,9.63,0,14.44,0c4.31,0,4.53-0.32,3.32-4.58c-2.44-8.57-9.55-13.19-19.4-12.61c-8.29,0.48-14.72,6.39-16.21,14.72
	c-0.37,2.04,0.22,2.57,2.21,2.53C179.28,407.41,184.49,407.48,189.71,407.47z"/>
<path class="st0" d="M452.88,484.95c29.55-0.85,42.55,22.6,41.66,46.41c-0.45,12.16-4.39,23.18-13.56,31.6
	c-10.57,9.7-23.58,10.76-36.96,8.99c-22.26-2.94-31.7-20.83-33.31-38.05c-1.01-10.88,0.87-21.27,6.56-30.89
	c6.98-11.8,17.56-17.1,30.79-18.04C449.66,484.86,451.27,484.95,452.88,484.95z M471.85,528.8c0.07-3.5-0.3-6.96-1.05-10.37
	c-1.96-8.9-8.21-14.65-16.39-15.13c-10.14-0.59-16.56,3.47-19.58,12.94c-2.85,8.93-2.72,17.96,0.64,26.77
	c2.84,7.44,8.87,11.27,17.21,11.29c7.86,0.02,13.85-4.11,16.78-11.36C471.29,538.38,471.79,533.63,471.85,528.8z"/>
<path class="st0" d="M627.46,414.38c-0.41,15.64-4.17,28.57-15.83,37.05c-14.6,10.62-31.12,10.72-46.93,3.36
	c-15.21-7.07-20.25-21.28-21.18-37.08c-0.53-8.97,1.17-17.61,5.47-25.61c8.21-15.26,22.34-22.09,41.61-20.17
	c19.24,1.91,31.92,13.41,35.64,32.53C626.98,408.26,627.19,412.16,627.46,414.38z M604.68,415.65c0.04-4.85-0.45-9.61-2.28-14.16
	c-3-7.44-8.72-11.36-16.71-11.44c-8.3-0.08-14.48,3.62-17.3,11.12c-3.67,9.75-3.69,19.71,0.28,29.38
	c2.87,6.99,8.6,10.46,16.08,10.62c7.57,0.16,13.47-2.87,16.93-9.92C604.09,426.32,604.68,421.04,604.68,415.65z"/>
<path class="st0" d="M316.34,526.92c0,5.89,0.29,11.81-0.06,17.68c-0.67,11.29-6.3,19.36-16.73,23.9
	c-11.45,4.99-23.57,5.44-35.54,3.64c-19.33-2.91-23.38-19.27-19.11-33.46c2.76-9.17,10.02-13.45,18.69-15.85
	c6.48-1.79,13.18-2.27,19.81-3.18c2.53-0.35,5.06-0.69,7.35-1.88c2.51-1.3,4.32-3.11,4.11-6.28c-0.2-3.04-1.28-5.47-4.25-6.67
	c-5.56-2.24-11.24-2.2-16.86-0.38c-3.51,1.13-5.14,4.15-6.08,7.47c-0.5,1.76-1.15,2.78-3.22,2.74c-5.22-0.11-10.45-0.11-15.67,0
	c-2.52,0.05-2.77-1.04-2.47-3.23c1.89-14,9.32-21.94,24.4-24.82c10.84-2.07,21.63-1.17,32.01,2.85
	c9.16,3.55,13.51,10.53,13.72,20.17c0.13,5.76,0.02,11.52,0.02,17.28C316.41,526.92,316.37,526.92,316.34,526.92z M294.81,537
	c0.12-6.17,0.14-6.12-5.48-4.42c-2.17,0.66-4.41,1.08-6.64,1.51c-3.67,0.71-7.38,1.24-10.87,2.71c-5.08,2.13-7.59,6.84-6.51,12.32
	c0.94,4.77,4.8,7.88,10.24,7.75C286.81,556.6,295.17,551.33,294.81,537z"/>
<path class="st0" d="M450.71,412.99c0,5.49,0.22,11-0.04,16.48c-0.67,13.66-7.41,22.48-20.41,26.68
	c-10.65,3.45-21.6,4.01-32.57,2.18c-12.08-2.01-19.02-9.91-19.82-21.81c-0.87-12.92,5.35-22.49,17.11-26.38
	c7.05-2.34,14.4-2.95,21.69-3.96c2.64-0.36,5.29-0.92,7.81-1.76c2.87-0.96,4.73-2.98,4.7-6.27c-0.02-3.23-1.2-5.91-4.34-7.03
	c-5.56-1.99-11.27-2.34-16.91-0.24c-3.47,1.29-5.24,4.2-5.94,7.58c-0.44,2.13-1.44,2.49-3.28,2.46c-5.23-0.08-10.46-0.21-15.68,0
	c-2.49,0.1-2.46-0.93-2.31-2.82c0.9-11.71,8.24-20.94,19.9-24.01c12.23-3.22,24.38-2.62,36.31,1.87
	c9.53,3.59,13.45,10.91,13.79,20.55c0.2,5.49,0.04,10.99,0.04,16.48C450.74,412.99,450.72,412.99,450.71,412.99z M428.98,416.82
	c-4.88,2.49-9.74,3.26-14.6,4.11c-3.15,0.55-6.32,1.18-9.22,2.64c-4.15,2.1-6.29,6.29-5.65,11c0.62,4.62,3.34,7.54,7.85,8.45
	c10.65,2.15,20.65-5.18,21.59-15.99C429.21,423.86,428.98,420.63,428.98,416.82z"/>
<path class="st0" d="M359.6,403.87c-0.94,0.01-1.88-0.08-2.81,0.02c-5.28,0.55-8.88-0.1-11.25-6.4c-3.27-8.69-18.04-9.26-24.65-1.73
	c-1.34,1.52-2.49,3.19-3.13,5.1c-3.4,10.09-3.61,20.3-0.11,30.33c2.25,6.44,7.34,9.72,14.18,9.94c5.93,0.19,11.23-1.09,14.07-7.12
	c0.17-0.36,0.3-0.74,0.48-1.1c0.96-2.01,0.3-5.23,2.21-6.09c2.13-0.96,4.98-0.35,7.52-0.37c4.02-0.03,8.04,0.12,12.05-0.05
	c2.53-0.11,3.33,0.52,2.7,3.18c-4.34,18.27-17.03,28.38-34.68,29.54c-3.59,0.24-7.26,0.25-10.83-0.17
	c-19.04-2.27-30.32-13.46-33.11-32.53c-1.34-9.14-1.07-18.2,1.66-27.03c4.52-14.61,14.3-23.61,29.47-26.18
	c11.48-1.95,22.68-0.9,33.19,4.6c9.69,5.07,13.06,13.98,14.63,24.01c0.25,1.62-0.39,2.11-1.95,2.07
	C366.03,403.81,362.81,403.87,359.6,403.87z"/>
<path class="st0" d="M240.54,432.46c0-6.03,0-12.06,0-18.09c0-25.02,15.99-41.36,41.03-41.91c6.74-0.15,6.74-0.15,6.74,6.69
	c0,4.15-0.07,8.31,0.03,12.46c0.05,2.07-0.17,3.04-2.79,2.93c-17.33-0.69-23.11,4.9-23.2,22.18c-0.06,12.33-0.1,24.66,0.04,36.99
	c0.03,2.85-0.47,4.08-3.69,3.89c-5.07-0.3-10.19-0.2-15.27-0.03c-2.37,0.08-2.97-0.78-2.94-3.01
	C240.6,447.2,240.54,439.83,240.54,432.46z"/>
</svg>
