<?xml version="1.0" encoding="utf-8"?>
<!-- Generator: Adobe Illustrator 24.2.3, SVG Export Plug-In . SVG Version: 6.00 Build 0)  -->
<svg version="1.1" xmlns="http://www.w3.org/2000/svg" xmlns:xlink="http://www.w3.org/1999/xlink" x="0px" y="0px"
	 viewBox="0 0 650 650" style="enable-background:new 0 0 650 650;" xml:space="preserve">
<style type="text/css">
	.st0{display:none;}
	.st1{display:inline;fill:#FFFFFF;}
	.st2{display:inline;}
	.st3{fill:#FFFFFF;}
</style>
<g id="Capa_1" class="st0">
	<path class="st1" d="M325.91,44.41c42.43,0.47,83.61,8.41,121.78,28.9c21.52,11.55,40.53,26.27,53.93,47.03
		c20.93,32.41,20.71,66.66,5.91,100.95c-12.59,29.17-35.81,48.57-63.51,62.94c-26.24,13.62-54.38,20.62-83.61,23.93
		c-17.91,2.02-35.89,2.46-53.78,1.4c-43.43-2.57-84.66-12.81-120.76-38.46c-22.89-16.26-40.34-37.04-47.83-64.56
		c-11.99-44-0.92-81.49,33.77-111.51c27.22-23.56,59.43-36.69,94.16-44.34C285.54,46.39,305.4,44.67,325.91,44.41z M326.82,288.02
		c19.89-0.32,40-2.15,59.69-6.75c25.45-5.95,49.74-14.85,71.69-29.62c14.86-10,27.99-21.64,37.77-36.67
		c9.3-14.29,14.61-29.9,13.78-47.25c-0.12-2.55-0.44-3.45-3.39-2.69c-6.82,1.76-13.65,3.49-20.48,5.23
		c-16.91,4.33-33.22,10.39-49.55,16.41c-1.83,0.67-2.34,1.75-1.64,3.72c1.07,3.02,1.58,6.22,1.01,9.43
		c-1.57,8.87-9.82,15.51-19.22,15.61c-1.88,0.02-3.74-0.63-4.55,2.4c-2.92,10.85-10.46,16.59-21.8,16.86
		c-2.12,0.05-3.25,0.92-4.03,2.56c-2.7,5.69-7.25,9.54-13.22,10.62c-6.76,1.23-13.57,1.8-19.13,6.43c-0.38,0.32-0.99,0.39-1.5,0.53
		c-7.52,2.02-14.55,0.29-21.34-2.88c-2.07-0.97-3.85-1.38-6-0.01c-12.68,8.09-23.98,5.95-32.56-6.12c-1.04-1.46-1.96-1.9-3.92-1.75
		c-8.29,0.65-15.22-2.39-20.22-9.07c-1.48-1.98-2.78-2.7-5.22-2.65c-8.88,0.2-17.48-5.69-20.37-13.99
		c-0.83-2.39-2.11-2.96-4.39-3.06c-7.36-0.33-12.83-3.82-16.57-10.2c-2.5-4.26-1.79-8.84-1.53-13.34c0.15-2.54-0.75-3.85-2.92-5.05
		c-11.84-6.56-24.52-10.89-37.42-14.8c-11.75-3.56-23.74-6.07-35.6-9.15c-2.62-0.68-2.94,0.6-3.02,2.66
		c-0.74,18.25,4.49,34.88,14.2,50.08c10.4,16.3,24.91,28.44,41.12,38.6c23.45,14.7,49.21,23.56,76.19,28.83
		C290.4,286.42,308.4,287.83,326.82,288.02z M278.06,108.82c-2.39-0.48-4.24,0.44-6.06,1.04c-12.58,4.17-25.29,5.53-38.36,2.48
		c-16.83-3.94-33.34-8.93-49.41-15.29c-1.95-0.77-3.15-0.48-4.65,0.77c-4.33,3.61-8.46,7.42-12.29,11.55
		c-11.19,12.06-19.66,25.66-23.78,41.78c-0.62,2.41-0.14,3.17,2.23,3.75c9.62,2.34,19.23,4.76,28.76,7.41
		c17.04,4.74,33.89,10.05,48.98,19.63c1.76,1.11,2.57,0.31,3.8-0.54c7.78-5.39,16.69-4.97,23.56,1.34c1.65,1.51,2.69,1.34,4.46,0.47
		c9.68-4.77,20.17-2.47,26.99,5.97c1.26,1.56,2.38,1.67,4.1,1.39c13.68-2.27,23.63,5.51,24.34,19.2c0.12,2.28,0.85,2.76,2.92,3.08
		c14.93,2.31,22.53,14.31,18.52,29.08c-0.28,1.02-0.95,1.98,0.52,2.69c6.19,2.97,12.52,4.9,19.33,2.35c3.91-1.47,4.1-2.43,1.36-5.46
		c-4.39-4.87-8.82-9.71-13.19-14.61c-1.01-1.13-1.9-2.54-0.61-3.92c1.29-1.38,2.71-0.58,3.95,0.33c0.65,0.48,1.23,1.03,1.85,1.55
		c5.45,4.57,10.38,9.69,15.49,14.61c3.84,3.69,11.49,2.94,15.68-1.31c3.69-3.75,3.38-6.56-1.24-11.72
		c-5.36-5.99-10.69-11.99-16-18.01c-1.01-1.15-1.9-2.58-0.71-3.95c1.25-1.45,2.75-0.46,3.97,0.33c1.12,0.72,2.13,1.63,3.09,2.56
		c5.62,5.36,11.32,10.64,16.79,16.15c3.4,3.43,7.36,4.42,11.75,3.25c4.83-1.29,8.88-3.89,10.34-9.1c1.33-4.73-1.49-7.85-4.53-10.84
		c-3.44-3.38-6.85-6.78-10.25-10.2c-4.06-4.08-8.12-8.17-12.12-12.31c-1.19-1.24-2.72-2.8-1.08-4.49c1.61-1.65,3.18-0.2,4.55,0.88
		c0.95,0.75,1.89,1.5,2.78,2.3c7.98,7.15,15.96,14.3,23.92,21.46c5.32,4.78,13.66,4.34,18.36-1.01c3.95-4.49,2.91-10.48-2.74-15.39
		c-13.34-11.6-26.61-23.28-40.08-34.72c-11.53-9.79-22.71-20.02-35.1-28.75c-5.94-4.18-12.37-6.29-19.7-4.2
		c-3.79,1.08-7.25,2.83-10.42,5.07c-7.65,5.41-15.03,11.21-22.78,16.46c-10.31,6.98-21.29,6.52-32.08,1.34
		c-7.55-3.62-8.34-9.32-2.76-15.43C266.28,121.52,272.1,115.27,278.06,108.82z M334.42,91.32c-15.99-0.12-30.35,4.36-42.55,15.01
		c-9.41,8.21-17.5,17.7-26.08,26.72c-1.73,1.82-1.18,2.93,0.7,4.01c4.24,2.43,8.83,2.84,13.58,2.55c6.96-0.43,12.23-4.36,17.48-8.32
		c6.62-4.99,12.81-10.57,20-14.79c11.18-6.56,22.24-7.06,33.14,0.64c2.84,2.01,5.75,3.93,8.45,6.12
		c22.56,18.32,44.38,37.51,66.27,56.6c1.79,1.56,3.13,2.16,5.58,1.1c23.73-10.32,48.3-18.18,73.51-23.97
		c3.65-0.84,4.28-2.01,3.37-5.47c-5.34-20.28-16.99-36.41-32.26-50.3c-2.17-1.97-3.83-2.36-6.62-1.12
		c-32.83,14.54-65.63,15.7-98.55-0.1C359.14,94.57,347.08,91.46,334.42,91.32z M420.35,103.98c3.22,0.33,8.17-0.36,13.03-1.13
		c9.75-1.53,19.28-4.03,28.46-7.81c3.22-1.32,3.45-2.43,0.5-4.37c-7.44-4.91-15.04-9.55-22.99-13.6
		c-19.87-10.13-41.05-16.35-62.81-20.61c-12.98-2.54-26.18-3.8-39.39-4.2c-16.58-0.5-33.13,0.02-49.64,2.27
		c-21.5,2.92-42.31,8.3-62.41,16.42c-11.76,4.75-22.74,10.98-33.39,17.82c-0.77,0.49-1.94,0.85-1.95,1.87
		c-0.02,1.31,1.36,0.97,2.15,1.29c13.64,5.5,27.87,9.04,42.09,12.61c9.47,2.38,18.97,2.76,28.5,0.12c8.22-2.27,16.32-5.24,25.05-5
		c0.9,0.02,1.37-0.64,2.01-1.13c9.79-7.6,20.76-12.22,33.1-14.08c10.12-1.52,20.09-0.71,29.9,1.27
		c10.93,2.21,20.94,7.44,31.27,11.51C395.07,101.69,406.6,103.77,420.35,103.98z M250.34,197.85c-0.52-2.29-0.73-3.74-1.18-5.1
		c-2.02-6.08-8.61-9.4-14.48-7.36c-6.18,2.15-9.48,8.85-7.34,14.89c2.59,7.32,11.13,9.93,17.86,5.51c0.78-0.51,1.27-2.08,2.6-1.14
		c1.06,0.75,0.61,1.93,0.49,2.98c-0.03,0.27-0.05,0.53-0.08,0.8c-1.25,12.12,12.19,21.48,21.17,14.35c2.05-1.63,3.18-0.64,3.03,1.89
		c-0.32,5.28,2.61,8.47,6.96,10.72c4.41,2.27,8.57,2.38,12.68-0.94c2.86-2.31,4.29-1.69,4.43,1.91c0.16,4.03,2.19,6.9,4.93,9.42
		c5.15,4.73,13.17,5.06,18.89,0.88c5.55-4.06,7.62-11.82,4.8-17.96c-2.92-6.38-10.02-10.04-16.48-8.51
		c-6.85,1.63-6.85,1.63-5.31-5.24c1.53-6.82-0.22-12.38-4.84-15.42c-5.25-3.46-10.66-3.23-16.33,0.93c-2.17,1.59-2.9,1.08-3.41-1.38
		c-1.84-9.01-9.33-13.08-18.12-10.12C256.2,190.42,253.31,193.61,250.34,197.85z"/>
	<path class="st1" d="M380.75,561.68c-15.01,17.34-41.33,11.58-51.13-8.62c-8.51-17.53-7.59-35.62,1.58-52.87
		c5.07-9.54,13.97-13.42,24.4-14.63c12.09-1.41,23.45-0.26,33.58,7.35c7.41,5.56,11.66,12.97,12.52,21.98
		c1.75,18.3,0.67,36.68,0.64,55.02c-0.01,5.67-1.93,11.02-4.48,16.11c-5.56,11.12-14.36,18.03-26.79,19.21
		c-15.11,1.43-29.21-0.81-39.01-14.28c-2.21-3.04-3.81-6.41-5.06-9.96c-0.72-2.03-0.08-2.62,1.94-2.59
		c6.03,0.08,12.06,0.05,18.09,0.05c1.13,0,2.08,0.3,2.83,1.21c4.87,5.94,11.01,8.6,18.5,6.2c7.61-2.44,10.78-8.71,12.24-16.02
		C381.11,567.23,381.05,564.6,380.75,561.68z M380.95,528.68c0.24-6.22-1.19-12.49-4.78-18.24c-3.08-4.94-7.66-6.9-13.23-6.71
		c-5.6,0.19-10.56,1.83-13.23,7.35c-5.02,10.37-5.41,21.1-2.15,32c1.86,6.21,5.98,9.87,12.68,10.47c7.58,0.68,13.81-1.27,17.52-8.42
		C380.35,540.13,381.01,534.71,380.95,528.68z"/>
	<path class="st1" d="M22.67,427.43c0.62-8.51-1.23-18.77,1.07-28.82c2.84-12.44,10.14-21.27,22.57-24.84
		c12.5-3.59,24.19-2.02,33.75,7.75c1.5,1.53,2.24,1.41,3.73-0.04c10.46-10.21,22.87-11.65,36.06-6.97
		c12.88,4.57,19.32,14.8,20.34,27.84c1.38,17.63,0.28,35.35,0.52,53.03c0.03,1.93-0.94,2.16-2.5,2.15
		c-4.69-0.05-9.38-0.16-14.06,0.05c-2.65,0.12-3.36-0.71-3.34-3.37c0.13-15.41,0.12-30.81,0.02-46.22
		c-0.04-5.72-1.45-11.04-7.11-13.85c-5.28-2.62-10.67-2.4-15.7,0.78c-4.87,3.09-6.54,7.92-6.55,13.44
		c-0.03,14.74-0.13,29.48,0.05,44.21c0.05,3.93-0.99,5.49-5.14,5.04c-3.71-0.4-7.51-0.27-11.24-0.03c-2.82,0.18-3.61-0.71-3.59-3.54
		c0.13-15.54,0.15-31.08,0.01-46.62c-0.11-11.5-8.37-17.47-19.23-14.14c-6.03,1.85-9.78,7.27-9.81,14.53
		c-0.06,15.27-0.12,30.55,0.04,45.82c0.04,3.2-0.82,4.18-4.01,3.97c-4.27-0.28-8.58-0.24-12.85-0.01c-2.6,0.14-3.13-0.82-3.1-3.21
		C22.74,445.95,22.67,437.51,22.67,427.43z"/>
	<path class="st1" d="M179.82,561.08c0,8.71-0.36,16.59,0.1,24.42c0.46,7.76-4.68,13.57-12.91,13.1c-8.93-0.51-8.95-0.09-8.95-9.08
		c0-21.97-0.01-43.94,0.01-65.91c0.01-6.2,0.54-12.35,3.23-18.03c5.82-12.29,16.16-18.1,29.19-19.67c5.85-0.7,11.81-0.88,17.62,0.3
		c13.09,2.65,22.47,10.16,26.61,22.91c5.52,17.02,5.03,33.84-4.93,49.36c-9.03,14.07-28.58,18.22-42.53,9.52
		C184.58,566.34,182.84,563.78,179.82,561.08z M179.79,530c-0.25,3.2,0.33,7.18,1.63,11c2.16,6.31,6.02,11.06,12.94,12.33
		c6.87,1.26,12.75-0.61,17-6.39c6.23-8.48,6.04-27.8-0.27-36.33c-7.11-9.61-22.26-8.7-27.98,1.79
		C180.28,517.58,179.77,523.33,179.79,530z"/>
	<path class="st1" d="M515.22,384.05c0-7.56-0.03-14.21,0.01-20.86c0.07-11.32,9.37-18.85,20.49-16.76
		c2.23,0.42,1.44,1.93,1.44,3.06c0,14.07-0.07,28.15-0.1,42.22c-0.02,10.05-0.35,20.12,0.06,30.16c0.73,17.9-9.49,35.86-35.95,37.27
		c-6.2,0.33-12.31-0.37-18.31-1.95c-15.52-4.08-22.78-15.23-24.97-30.14c-1.92-13.1-0.76-25.99,5.76-37.87
		c7.17-13.07,22.09-19.52,36.25-15.92C505.68,374.74,509.52,377.36,515.22,384.05z M515.92,418.45c-0.04-7.23-0.78-12.66-3.32-17.64
		c-3.19-6.26-8.34-9.52-15.48-9.44c-7.02,0.08-12.01,3.25-14.72,9.73c-4.22,10.11-4.03,20.33-0.11,30.44
		c2.4,6.18,7.22,9.47,13.85,9.85c6.64,0.38,12.03-1.92,15.65-7.74C515.01,428.46,515.84,422.71,515.92,418.45z"/>
	<path class="st1" d="M200.26,421.67c-8.71,0-17.42,0.11-26.13-0.07c-2.85-0.06-3.42,0.85-2.97,3.47
		c1.34,7.81,5.31,14.22,12.97,15.9c6.95,1.53,14.72,1.71,20.49-4.38c1.13-1.19,2.2-1.69,3.78-1.67c5.89,0.08,11.79,0.1,17.68,0.05
		c2.6-0.02,3.01,0.01,1.66,2.96c-6.61,14.5-18.46,20.51-33.47,21.36c-16.1,0.91-30.16-3.69-39.26-17.85
		c-6.36-9.9-6.53-21.31-5.37-32.68c1.49-14.58,7.91-25.94,21.55-32.5c14.34-6.9,42.02-6.32,53.63,14.3
		c5.15,9.15,5.94,19.01,5.79,29.15c-0.04,2.49-1.69,1.96-3.03,1.97c-9.11,0.04-18.22,0.02-27.33,0.02
		C200.26,421.7,200.26,421.68,200.26,421.67z M189.71,407.47c4.81,0,9.63,0,14.44,0c4.31,0,4.53-0.32,3.32-4.58
		c-2.44-8.57-9.55-13.19-19.4-12.61c-8.29,0.48-14.72,6.39-16.21,14.72c-0.37,2.04,0.22,2.57,2.21,2.53
		C179.28,407.41,184.49,407.48,189.71,407.47z"/>
	<path class="st1" d="M452.88,484.95c29.55-0.85,42.55,22.6,41.66,46.41c-0.45,12.16-4.39,23.18-13.56,31.6
		c-10.57,9.7-23.58,10.76-36.96,8.99c-22.26-2.94-31.7-20.83-33.31-38.05c-1.01-10.88,0.87-21.27,6.56-30.89
		c6.98-11.8,17.56-17.1,30.79-18.04C449.66,484.86,451.27,484.95,452.88,484.95z M471.85,528.8c0.07-3.5-0.3-6.96-1.05-10.37
		c-1.96-8.9-8.21-14.65-16.39-15.13c-10.14-0.59-16.56,3.47-19.58,12.94c-2.85,8.93-2.72,17.96,0.64,26.77
		c2.84,7.44,8.87,11.27,17.21,11.29c7.86,0.02,13.85-4.11,16.78-11.36C471.29,538.38,471.79,533.63,471.85,528.8z"/>
	<path class="st1" d="M627.46,414.38c-0.41,15.64-4.17,28.57-15.83,37.05c-14.6,10.62-31.12,10.72-46.93,3.36
		c-15.21-7.07-20.25-21.28-21.18-37.08c-0.53-8.97,1.17-17.61,5.47-25.61c8.21-15.26,22.34-22.09,41.61-20.17
		c19.24,1.91,31.92,13.41,35.64,32.53C626.98,408.26,627.19,412.16,627.46,414.38z M604.68,415.65c0.04-4.85-0.45-9.61-2.28-14.16
		c-3-7.44-8.72-11.36-16.71-11.44c-8.3-0.08-14.48,3.62-17.3,11.12c-3.67,9.75-3.69,19.71,0.28,29.38
		c2.87,6.99,8.6,10.46,16.08,10.62c7.57,0.16,13.47-2.87,16.93-9.92C604.09,426.32,604.68,421.04,604.68,415.65z"/>
	<path class="st1" d="M316.34,526.92c0,5.89,0.29,11.81-0.06,17.68c-0.67,11.29-6.3,19.36-16.73,23.9
		c-11.45,4.99-23.57,5.44-35.54,3.64c-19.33-2.91-23.38-19.27-19.11-33.46c2.76-9.17,10.02-13.45,18.69-15.85
		c6.48-1.79,13.18-2.27,19.81-3.18c2.53-0.35,5.06-0.69,7.35-1.88c2.51-1.3,4.32-3.11,4.11-6.28c-0.2-3.04-1.28-5.47-4.25-6.67
		c-5.56-2.24-11.24-2.2-16.86-0.38c-3.51,1.13-5.14,4.15-6.08,7.47c-0.5,1.76-1.15,2.78-3.22,2.74c-5.22-0.11-10.45-0.11-15.67,0
		c-2.52,0.05-2.77-1.04-2.47-3.23c1.89-14,9.32-21.94,24.4-24.82c10.84-2.07,21.63-1.17,32.01,2.85
		c9.16,3.55,13.51,10.53,13.72,20.17c0.13,5.76,0.02,11.52,0.02,17.28C316.41,526.92,316.37,526.92,316.34,526.92z M294.81,537
		c0.12-6.17,0.14-6.12-5.48-4.42c-2.17,0.66-4.41,1.08-6.64,1.51c-3.67,0.71-7.38,1.24-10.87,2.71c-5.08,2.13-7.59,6.84-6.51,12.32
		c0.94,4.77,4.8,7.88,10.24,7.75C286.81,556.6,295.17,551.33,294.81,537z"/>
	<path class="st1" d="M450.71,412.99c0,5.49,0.22,11-0.04,16.48c-0.67,13.66-7.41,22.48-20.41,26.68
		c-10.65,3.45-21.6,4.01-32.57,2.18c-12.08-2.01-19.02-9.91-19.82-21.81c-0.87-12.92,5.35-22.49,17.11-26.38
		c7.05-2.34,14.4-2.95,21.69-3.96c2.64-0.36,5.29-0.92,7.81-1.76c2.87-0.96,4.73-2.98,4.7-6.27c-0.02-3.23-1.2-5.91-4.34-7.03
		c-5.56-1.99-11.27-2.34-16.91-0.24c-3.47,1.29-5.24,4.2-5.94,7.58c-0.44,2.13-1.44,2.49-3.28,2.46c-5.23-0.08-10.46-0.21-15.68,0
		c-2.49,0.1-2.46-0.93-2.31-2.82c0.9-11.71,8.24-20.94,19.9-24.01c12.23-3.22,24.38-2.62,36.31,1.87
		c9.53,3.59,13.45,10.91,13.79,20.55c0.2,5.49,0.04,10.99,0.04,16.48C450.74,412.99,450.72,412.99,450.71,412.99z M428.98,416.82
		c-4.88,2.49-9.74,3.26-14.6,4.11c-3.15,0.55-6.32,1.18-9.22,2.64c-4.15,2.1-6.29,6.29-5.65,11c0.62,4.62,3.34,7.54,7.85,8.45
		c10.65,2.15,20.65-5.18,21.59-15.99C429.21,423.86,428.98,420.63,428.98,416.82z"/>
	<path class="st1" d="M359.6,403.87c-0.94,0.01-1.88-0.08-2.81,0.02c-5.28,0.55-8.88-0.1-11.25-6.4
		c-3.27-8.69-18.04-9.26-24.65-1.73c-1.34,1.52-2.49,3.19-3.13,5.1c-3.4,10.09-3.61,20.3-0.11,30.33c2.25,6.44,7.34,9.72,14.18,9.94
		c5.93,0.19,11.23-1.09,14.07-7.12c0.17-0.36,0.3-0.74,0.48-1.1c0.96-2.01,0.3-5.23,2.21-6.09c2.13-0.96,4.98-0.35,7.52-0.37
		c4.02-0.03,8.04,0.12,12.05-0.05c2.53-0.11,3.33,0.52,2.7,3.18c-4.34,18.27-17.03,28.38-34.68,29.54
		c-3.59,0.24-7.26,0.25-10.83-0.17c-19.04-2.27-30.32-13.46-33.11-32.53c-1.34-9.14-1.07-18.2,1.66-27.03
		c4.52-14.61,14.3-23.61,29.47-26.18c11.48-1.95,22.68-0.9,33.19,4.6c9.69,5.07,13.06,13.98,14.63,24.01
		c0.25,1.62-0.39,2.11-1.95,2.07C366.03,403.81,362.81,403.87,359.6,403.87z"/>
	<path class="st1" d="M240.54,432.46c0-6.03,0-12.06,0-18.09c0-25.02,15.99-41.36,41.03-41.91c6.74-0.15,6.74-0.15,6.74,6.69
		c0,4.15-0.07,8.31,0.03,12.46c0.05,2.07-0.17,3.04-2.79,2.93c-17.33-0.69-23.11,4.9-23.2,22.18c-0.06,12.33-0.1,24.66,0.04,36.99
		c0.03,2.85-0.47,4.08-3.69,3.89c-5.07-0.3-10.19-0.2-15.27-0.03c-2.37,0.08-2.97-0.78-2.94-3.01
		C240.6,447.2,240.54,439.83,240.54,432.46z"/>
</g>
<g id="Capa_2" class="st0">
	<g class="st2">
		<path class="st3" d="M629.53,362.05c0,1.16,0,2.32,0,3.48c-2.37,5.32-2.27,11.12-3.2,16.72c-0.73,4.65-1.46,9.31-2.19,13.96
			c-0.7,3.64-1.48,7.27-1.65,10.99c-0.09,0.26-0.18,0.52-0.27,0.78c-0.06,0.49-0.12,0.98-0.18,1.46c-0.97,4.83-1.83,9.68-2.23,14.6
			c-1.04,4.59-1.82,9.23-2.17,13.93c-1.17,5.03-2.02,10.12-2.46,15.27c-0.09,0.72-0.17,1.43-0.26,2.15
			c-1.68,7.7-3.01,15.46-3.7,23.31c-0.41,2.12-0.92,4.23-1.23,6.37c-0.49,3.37-1.23,6.55-4.4,8.51c-1.3,0.18-2.6,0.35-3.9,0.53
			c-4.66-0.4-9.33-0.4-13.99,0c-2.09-0.07-4.18-0.15-6.26-0.22c-0.22-0.07-0.44-0.13-0.66-0.2c-0.08-0.15-0.21-0.2-0.37-0.15
			c-1.74-1.84-1.92-3.95-1.41-6.35c0.52-2.44,0.69-4.95,1.01-7.44c0.99-4.6,1.83-9.22,2.17-13.92c0.99-4.6,1.92-9.2,2.1-13.92
			c0.68-4.64,2.19-9.15,2.26-13.89c1.94-9.24,3.18-18.59,4.48-27.93c0.72-4.63,1.44-9.26,2.16-13.9c0.93-4.62,1.81-9.25,2.16-13.96
			c0.99-4.6,1.83-9.22,2.15-13.92c0.3-1.45,0.71-2.9,0.88-4.37c0.3-2.63,1.38-4.57,4.09-5.31c4.38-0.02,8.77-0.05,13.15-0.07
			c2.32,0.05,4.65,0.28,6.95,0.12C625.59,358.49,627.96,359.36,629.53,362.05z"/>
		<path class="st3" d="M280.01,494.07c-4.65,0-9.29,0-13.94,0c-1.82-0.05-3.65-0.27-5.45-0.13c-2.83,0.22-5.38-0.29-7.63-2.05
			c-0.35-3.15,1.44-5.4,3.13-7.75c1.94-2.69,3.76-5.47,5.63-8.22c1.68-1.9,3.18-3.92,4.36-6.17c2.09-2.4,3.95-4.97,5.5-7.75
			c1.38-1.83,2.61-3.8,4.17-5.47c2.34-2.5,2.31-5.01,0.65-7.75c-0.14-0.3-0.28-0.59-0.42-0.89l-0.05,0.19l0.08-0.18
			c-1.14-4.74-2.84-9.29-4.62-13.82c-2.94-9.35-6.03-18.64-9.54-27.79c-1.26-4.75-2.85-9.39-4.73-13.93
			c-0.99-3.16-1.84-6.37-3.03-9.46c-0.71-1.83-0.49-4.18-2.6-5.34c-0.61-2.1,1.17-3.21,1.97-4.72c4.12-1.49,8.42-0.2,12.6-0.87
			c4.63,0.03,9.27,0.06,13.9,0.08c3.46,0.78,5.27,3.19,6.29,6.37c1.94,7.78,4.26,15.44,6.98,22.98c0.22,1.7,0.56,3.36,1.4,4.88
			c1.48,5.27,2.96,10.53,4.68,16.63c7.16-10.74,13.77-20.65,20.38-30.55c0.99-0.9,1.72-1.99,2.19-3.25
			c2.74-3.37,5.1-7.01,7.34-10.72c1.94-2.31,3.29-5.23,6.47-6.26c4.65-0.05,9.31-0.11,13.96-0.16c1.25,0.05,2.5,0.07,3.75,0.17
			c3.37,0.26,6.86-0.74,10.1,0.9c1.22,1.66,1.48,3.46,0.77,5.39c-0.27,0.41-0.53,0.81-0.8,1.22c-3.25,4.03-6.16,8.31-8.87,12.72
			c-1.91,2.33-3.68,4.75-5.1,7.41c-1.78,1.9-3.19,4.06-4.44,6.34c-3.4,4.49-6.72,9.04-9.56,13.92c-3.6,4.45-6.78,9.19-9.79,14.05
			c-1.54,1.75-2.93,3.6-3.93,5.71c-2.02,2.2-3.6,4.71-5.13,7.26c-6.85,9.49-13.6,19.05-19.96,28.88c-1.22,1.16-2.12,2.56-2.84,4.07
			c-2.52,3.13-4.81,6.41-6.85,9.87C285.32,492.32,283.02,493.8,280.01,494.07z"/>
		<path class="st3" d="M16.78,472.48c1.01-4.59,1.76-9.23,2.16-13.92c1.1-4.58,1.82-9.21,2.19-13.91c1.05-4.59,1.82-9.23,2.2-13.92
			c1.19-5.07,1.9-10.21,2.51-15.37c1.2-7.65,2.39-15.31,3.59-22.96c0,0,0.19-0.26,0.19-0.26s-0.13-0.28-0.13-0.28
			c0.12-0.53,0.24-1.06,0.35-1.59c0.92-5.08,1.93-10.14,2.31-15.3c0.77-4.97,2.11-9.44,8.35-9.71c4.67,0.39,9.33,0.42,14,0
			c4.64,0.31,9.28,0.3,13.92,0c4.65,0.4,9.3,0.41,13.94,0c4.63,0.15,9.27,0.31,13.9,0.46c4.72,0.68,9.37,1.67,13.96,2.95
			c9.57,3.79,16.46,10.16,19.51,20.23c0.86,4.59,1.25,9.22,1.27,13.89c-0.78,4.64-1.56,9.27-2.33,13.91
			c-2.95,10.81-7.98,20.38-16.54,27.85c-0.64,0.48-1.28,0.97-1.92,1.45c-4.23,2.6-8.66,4.81-13.31,6.57
			c-4.78,1.24-9.61,2.2-14.51,2.77c-4.65,0.14-9.31,0.29-13.96,0.43c-1.03-0.06-2.06-0.13-3.09-0.17
			c-10.86-0.37-12.77,0.16-13.77,13.09c-0.45,0.5-0.51,1.07-0.36,1.69c-0.07,0.7-0.14,1.4-0.21,2.1c-1.15,4.56-1.84,9.19-2.2,13.88
			c-0.34,1.66-0.79,3.3-1.01,4.97c-0.43,3.19-0.79,6.37-3.72,8.44c-0.46,0.22-0.92,0.43-1.38,0.65c-0.5,0.11-1,0.22-1.5,0.33
			c-0.22,0.01-0.44,0.02-0.65,0.03c-4.62-0.36-9.24-0.36-13.87,0c-2.77-0.08-5.55-0.17-8.32-0.24c-4.03-0.11-5.42-1.69-4.84-5.73
			C14.55,487.36,15.68,479.92,16.78,472.48z M62.06,402c-0.8,4.93-1.6,9.86-2.4,14.8c-0.37,2.46-0.74,4.92-1.11,7.38
			c-0.06,0.29-0.12,0.59-0.18,0.88c-0.08,0.48-0.16,0.97-0.24,1.45c-0.03,0.23-0.06,0.46-0.08,0.69c0,0.23,0.01,0.46,0.01,0.7
			c-0.07,0.51,0.16,0.62,0.61,0.48c3.25-0.01,6.49-0.02,9.74-0.02c4.77,0.22,9.49,0.02,13.97-1.92c5.01-1.45,8.3-4.66,9.86-9.65
			c2.1-4.5,2.56-9.19,1.63-14.04c-1.29-5.9-4.52-8.57-11.48-9.52c-5.49-0.99-11-1.1-16.53-0.45c-1.43,0.19-2.43,1.09-2.72,2.37
			C62.61,397.4,62.39,399.72,62.06,402z"/>
		<path class="st3" d="M435.55,137.74c1.07,2.08,2.13,4.15,3.2,6.23c1.49,4.49,2.4,9.1,2.8,13.81c-0.39,4.44-0.15,8.93-1.19,13.32
			c-3.65-1.4-7.24-2.99-10.96-4.16c-7.1-2.25-14.57-2.55-21.88-2.71c-17.96-0.37-35.94-0.13-53.91-0.12c-4.05,0-7.73,2.72-8.52,6.73
			c-1.34,6.77-2.7,13.56-3.47,20.4c-1.17,10.41-3.46,20.63-4.77,31.01c-0.73,5.82-2.4,11.51-2.24,17.44
			c-4.8,22.42-7.29,45.23-11.31,67.79c-4.37,0.03-8.74,0.05-13.11,0.08c-4.64-0.29-9.28-0.3-13.93,0
			c-4.65-0.32-9.29-0.29-13.94-0.01c-5.07-1.4-6.23-3.05-5.69-8.03c0.09-0.79,0.09-1.59,0.13-2.39c1.05-4.58,1.82-9.21,2.18-13.91
			c1.15-4.56,1.8-9.19,2.2-13.87c1.65-8.69,3.14-17.4,4.14-26.19c1.25-5.17,1.97-10.43,2.51-15.71c0.26-1.22,0.58-2.42,0.76-3.65
			c0.5-3.42,0.94-6.84,1.41-10.26c1.07-4.58,1.86-9.21,2.17-13.91c1.12-4.57,1.83-9.21,2.22-13.9c1.1-4.62,1.82-9.3,2.27-14.02
			c0.11-0.91,0.22-1.83,0.33-2.74c1.1-3.64,1.48-7.41,1.88-11.17c0.72-4.63,1.45-9.26,2.17-13.89c1.01-4.61,1.8-9.25,2.18-13.95
			c0.23-1.01,0.59-2.01,0.66-3.03c0.36-5.13,2.79-8.69,7.72-10.42c23.54,0.02,47.09,0.06,70.63,0.06c8.62,0,17.11,0.99,25.54,2.74
			c4.73,1.47,9.38,3.16,13.85,5.31c2.51,1.8,5.02,3.6,7.53,5.4C431.26,132.59,433.41,135.17,435.55,137.74z"/>
		<path class="st3" d="M323.8,304.93c4.03-22.55,6.52-45.36,11.31-67.79c3.2-3.09,6.98-4.1,11.43-3.95
			c7.3,0.25,14.62,0.27,21.92-0.05c11.87-0.52,23.49-2.55,34.36-7.65c16.57-7.77,27.1-20.87,33.34-37.81
			c2.25-6.11,3.26-12.52,4.98-18.75c0.86,0.32,1.73,0.65,2.59,0.97c2.08,1.66,4.16,3.32,6.24,4.98c1.86,2.76,3.71,5.51,5.57,8.27
			c1.67,4.52,2.73,9.19,3.48,13.94c-0.2,4.64-0.41,9.28-0.61,13.92c-1,4.63-2,9.25-3,13.88c-3.58,10.44-8.58,20.04-16.5,27.92
			c-0.97,0.87-1.94,1.75-2.91,2.62c-8.52,6.33-18.16,10.04-28.46,12.19c-4.41,0.47-8.83,0.94-13.24,1.4
			c-4.62,0.27-9.4-1.3-13.81,1.26c-4.24,1.93-4.35,5.91-4.82,9.7c-1,4.83-1.85,9.68-2.23,14.6c-1.08,4.58-1.75,9.23-2.17,13.92
			c-0.81,4.66-1.62,9.33-2.42,13.99c-0.82,1.36-1.64,2.71-2.46,4.07c-2.06,1.29-4.19,2.23-6.73,2.12c-2.39-0.1-4.79,0.07-7.18,0.12
			c-4.64,0-9.27,0-13.91,0c-4.65-0.04-9.29-0.08-13.94-0.12c-2.53-1.31-3.91-3.3-3.73-6.23c0.73-4.66,1.45-9.32,2.18-13.97
			C323.32,307.31,323.56,306.12,323.8,304.93z"/>
		<path class="st3" d="M440.85,169.02c-1.73,6.23-2.73,12.64-4.98,18.75c-6.24,16.94-16.77,30.03-33.34,37.81
			c-10.87,5.1-22.48,7.13-34.36,7.65c-7.29,0.32-14.62,0.31-21.92,0.05c-4.45-0.15-8.23,0.86-11.43,3.95
			c-0.16-5.93,1.51-11.63,2.24-17.44c1.3-10.38,3.6-20.6,4.77-31.01c0.77-6.85,2.13-13.64,3.47-20.4c0.79-4,4.47-6.72,8.52-6.73
			c17.97-0.02,35.94-0.26,53.91,0.12c7.32,0.15,14.78,0.45,21.88,2.71c3.72,1.18,7.31,2.76,10.96,4.16
			C440.74,168.7,440.83,168.83,440.85,169.02z"/>
		<path class="st3" d="M549.46,492.08c-3.01-0.06-6.02-0.15-9.02-0.18c-5.14-0.05-6.19-1.19-5.73-6.18
			c0.11-1.25,0.55-2.51,0.08-3.78c0.06-0.07,0.13-0.14,0.19-0.2c-0.05,0.09-0.09,0.17-0.14,0.26c-6.14,4.64-12.47,8.92-20.14,10.65
			c-2.34,0.53-4.71,0.98-7.06,1.46c-4.36-0.13-8.72-0.26-13.08-0.39c-4.68-1.18-9.24-2.62-13.45-5.11
			c-4.57-2.72-7.75-6.76-10.9-10.86c-1.39-3.16-2.78-6.33-4.17-9.49c-0.33-1.47-0.66-2.94-0.99-4.41c-0.7-4.61-2.21-9.19-0.6-13.91
			c1.51-9.99,4.64-19.39,10.24-27.88c1.7-2.09,3.4-4.17,5.1-6.26c3.01-2.55,6.02-5.11,9.04-7.66c1.63-0.95,3.26-1.9,4.89-2.84
			c4.5-2.07,9.19-3.6,13.96-4.9c4.61-0.71,9.26-0.63,13.9-0.73c4.72,0.62,9.42,1.28,13.96,2.78c4.19,1.92,7.77,4.65,10.57,8.76
			c1.3-3.49,0.56-7,3.47-9.11c4.61-0.13,9.22-0.27,13.84-0.4c3.71,0.01,7.43,0.03,11.14,0.04l0.33,0.12l0.34-0.06
			c0.38,0.1,0.76,0.2,1.14,0.3c2.34,1.41,2.52,3.65,2.33,6.04c-1.78,9.23-3.27,18.51-4.44,27.83c-1.14,4.6-1.73,9.29-2.27,13.99
			c-0.75,3.65-1.48,7.31-1.68,11.04c-0.06,0.23-0.12,0.47-0.18,0.7c-0.1,0.72-0.21,1.43-0.31,2.15c-1,4.61-1.81,9.25-2.18,13.96
			c-0.5,2.73-0.96,5.46-1.5,8.18c-0.77,3.88-3.01,5.79-6.96,5.92C555.94,492.02,552.7,492.03,549.46,492.08z M541.05,436.01
			c-0.84-3.32-2.76-5.83-5.65-7.63c-4.08-3.24-8.72-4.36-13.84-3.73c-0.76-0.3-1.5-0.19-2.23,0.12c-0.18,0.03-0.36,0.05-0.54,0.08
			c-4.12,0.33-7.84,1.72-11.1,4.28c-2.83,1.63-5.16,3.76-6.65,6.72c-0.15,0.23-0.29,0.45-0.44,0.68c-0.19,0.29-0.38,0.58-0.57,0.87
			c-2.34,3.57-3.5,7.51-3.6,11.77c-2.05,13.66,10.98,23.76,25.16,19.49c4-0.49,7.55-1.98,10.51-4.77c1.39-0.7,2.59-1.62,3.37-3
			c3.15-3.01,5-6.71,5.91-10.92C542.9,445.27,543.14,440.61,541.05,436.01z"/>
		<path class="st3" d="M239.02,426.95c-1.8,8.28-3.06,16.65-4.06,25.06c-0.63,3.96-1.27,7.91-1.9,11.87
			c-0.68,4.29-1.35,8.57-2.03,12.86c-0.28,1.45-0.63,2.89-0.84,4.35c-0.58,3.93-0.74,8.02-4.55,10.54c0,0,0.01-0.01,0.01-0.01
			c-0.22-0.02-0.42,0.04-0.61,0.17c-0.22,0.03-0.44,0.07-0.67,0.1c-4.19,0.06-8.38,0.12-12.57,0.19c-3.72-0.04-7.44-0.07-11.15-0.11
			c-0.23-0.07-0.45-0.14-0.68-0.2c-4.04-2.69-1.4-6.5-1.65-10.38c-7.38,6.93-15.93,10.83-25.52,12.49
			c-0.23,0.02-0.46,0.04-0.69,0.07c-0.69,0.07-1.39,0.15-2.08,0.22c-4.67-0.03-9.33-0.15-13.96-0.83c-2.55-0.76-5.1-1.52-7.65-2.28
			c-2.11-1.26-4.22-2.52-6.32-3.77c-3.26-2.88-6.12-6.11-8.6-9.67c-1.54-3.65-3.08-7.3-4.62-10.95c-0.2-0.94-0.41-1.87-0.61-2.81
			c-0.35-4.61-0.83-9.21-0.54-13.84c0.6-1.52,0.58-3.11,0.62-4.7c0.42-0.48,0.53-1.02,0.37-1.63c0.08-0.47,0.15-0.94,0.23-1.41
			c2.06-6.77,4.74-13.27,8.45-19.32c1.87-2.36,3.73-4.72,5.6-7.08c3-2.57,6.01-5.14,9.01-7.71c1.37-0.8,2.74-1.61,4.11-2.41
			c4.48-2.17,9.17-3.81,13.94-5.21c4.62-0.6,9.27-0.89,13.93-0.91c4.69,0.4,9.31,1.23,13.87,2.39c4.57,2.1,8.85,4.57,11.47,9.63
			c1.56-3.62,0.35-7.39,3.54-9.53c4.29-0.14,8.58-0.29,12.87-0.43c4.63,0.1,9.27,0.2,13.9,0.3c1.28,1.09,2.37,2.3,2.45,4.11
			c-0.79,5.33-1.57,10.65-2.36,15.98C239.27,423.66,238.91,425.27,239.02,426.95z M204.26,435.88l0.02,0.02
			c-0.93-3.66-3.17-6.3-6.41-8.16c-4.2-2.89-8.86-3.77-13.86-3.08c-5.6,0.12-10.54,1.95-14.71,5.74c-2.08,1.48-3.93,3.15-4.99,5.55
			c-3.19,4.12-4.58,8.83-4.61,13.99c-0.29,1.65-0.26,3.28,0.22,4.89c-0.04,0.11-0.13,0.24-0.09,0.32c0.08,0.2,0.22,0.38,0.34,0.56
			c0.42,3.24,1.79,5.98,4.27,8.15c1.39,1.89,3.25,3.06,5.51,3.64c4.52,2.16,9.21,2.46,14.04,1.29c4.33-0.34,8.11-1.96,11.36-4.84
			c1.14-0.39,1.92-1.2,2.55-2.19c3.65-3.16,5.79-7.2,6.82-11.87c1.33-4.16,1.49-8.33,0.12-12.52
			C204.91,436.78,204.87,436.22,204.26,435.88z"/>
		<path class="st3" d="M389.38,479.79c-0.31,2.31-0.63,4.63-0.94,6.94c-0.85,1.31-0.63,2.81-0.8,4.25c-0.21,0.08-0.3,0.23-0.27,0.45
			c-0.77,0.77-1.54,1.53-2.32,2.3c-0.94,0.12-1.87,0.23-2.81,0.35c-4.65-0.31-9.3-0.3-13.96,0c-3.73-0.02-7.46-0.03-11.19-0.05
			c-0.17-0.18-0.38-0.24-0.63-0.18c-2.2-1.3-2.7-3.17-2.29-5.64c1.21-7.42,2.26-14.88,3.37-22.32c0.77-4.89,1.55-9.77,2.32-14.66
			c0.66-3.41,1.41-6.8,1.54-10.29c0.09-0.27,0.18-0.54,0.27-0.82c0.06-0.49,0.12-0.97,0.18-1.46c0.97-4.83,1.83-9.68,2.23-14.6
			c1.02-4.59,1.85-9.21,2.17-13.92c1.09-4.82,1.97-9.67,2.38-14.6c0.11-0.94,0.22-1.88,0.33-2.82c1.18-3.62,1.39-7.4,1.92-11.13
			c0.62-4.08,1.25-8.16,1.87-12.25c2.06-9.35,2.66-10.04,9.44-10.71c4.65,0,9.3-0.01,13.95-0.01c4.64,0,9.28,0,13.92,0
			c4.65,0,9.3,0,13.95,0c4.65,0.18,9.29,0.36,13.94,0.55c4.7,0.77,9.36,1.75,13.89,3.24c9.2,3.84,15.62,10.28,18.66,19.9
			c0.88,4.58,1.08,9.21,1.12,13.86c-0.75,4.66-1.49,9.31-2.24,13.97c-2.93,10.79-8.02,20.29-16.5,27.79
			c-0.82,0.16-1.39,0.67-1.85,1.33c-4.16,2.57-8.48,4.82-13.08,6.52c-4.66,0.95-9.32,1.9-13.98,2.85c-1.48-0.14-2.93-0.07-4.35,0.39
			c-0.44-0.33-0.86-0.25-1.27,0.06c-2.76,0.01-5.52,0.03-8.28,0.04c-3.34-0.04-6.67-0.19-10.01-0.1c-3.92,0.11-5.99,1.8-6.74,5.63
			c-0.73,3.71-1.16,7.49-1.73,11.23c-0.89,4.23-1.64,8.49-1.95,12.81C389.57,479.06,389.48,479.43,389.38,479.79z M402.64,396.23
			c-0.54,3.47-1.08,6.95-1.62,10.42l-0.19,0.24l0.12,0.27c-0.11,0.56-0.22,1.11-0.32,1.67c-0.61,3.6-1.15,7.22-1.87,10.8
			c-0.33,1.63-0.04,2.36,1.77,2.28c3.2-0.14,6.4-0.15,9.6-0.21c4.84,0.26,9.55-0.21,14.01-2.28c4.59-1.54,7.48-4.72,8.88-9.31
			c1.83-4.5,2.76-9.11,1.52-13.95c-0.84-5.42-3.96-8.22-10.55-9.48c-4.58-0.96-9.22-1.01-13.87-0.73c-4.92-0.34-6.28,0.73-6.92,5.46
			C402.99,393.02,402.83,394.63,402.64,396.23z"/>
	</g>
</g>
<g id="Capa_3">
	<g>
		<path class="st3" d="M574.86,288.19c-0.02,24.96,0.25,49.92-0.16,74.87c-0.26,15.68-5.13,29.95-16.22,41.56
			c-8.26,8.65-18.53,13.94-29.9,17.18c-15.66,4.46-31.66,5.14-47.79,3.79c-12.1-1.01-23.81-3.55-34.74-9.08
			c-18-9.09-28.2-23.83-31.6-43.51c-0.83-4.8-1.1-9.63-1.1-14.5c0.02-30.49,0.01-60.97,0.01-91.46c0-2.43,0.07-4.85,0.6-7.24
			c1.1-4.98,4.08-8.11,9.06-9.32c2.61-0.64,5.26-1.04,7.95-1.01c6.61,0.05,13.23-0.47,19.82,0.47c8.19,1.17,11.9,5.17,12.4,13.48
			c0.11,1.75,0.11,3.51,0.11,5.27c0.01,29.98,0.01,59.97-0.01,89.95c0,2.36,0.22,4.69,0.66,6.99c1.57,8.13,6.54,13.29,14.41,15.41
			c10.04,2.71,20.25,2.8,30.31,0.27c11.18-2.81,16.11-9.86,16.11-22.25c0.02-29.9,0-59.8,0.01-89.7c0-1.59,0.09-3.18,0.21-4.76
			c0.78-10.47,4.47-14.23,14.95-15c3.25-0.24,6.53-0.07,9.79-0.09l-0.04-0.04c0.42,0.88,0.23,1.81,0.23,2.72
			c0.02,8.94,0.01,17.88,0.01,26.83c0,6.43,2.54,8.91,8.95,8.99c5.33,0.06,10.68-0.31,16.01,0.22L574.86,288.19z"/>
		<path class="st3" d="M31.7,344.92c0-23.2-0.13-46.39,0.08-69.59c0.07-7.52,2.16-14.59,8.2-19.8c4.71-4.07,10.46-5.82,16.47-5.93
			c17.67-0.34,35.36-0.44,53.03,0.05c7.46,0.21,14.79,1.76,21.77,4.52c13.31,5.26,21.85,14.92,25.59,28.62
			c3.95,14.48,4,29.15,0.37,43.68c-4.52,18.06-16.6,28.45-34.45,32.57c-6.3,1.45-12.7,2.14-19.17,2.13
			c-15.08-0.02-30.17,0.05-45.25-0.06c-2.29-0.02-2.75,0.68-2.74,2.83c0.09,16.08,0.05,32.16,0.05,48.24
			c0,9.49-2.24,11.76-11.64,11.74c-1.92,0-3.84,0.14-5.76-0.27c-4.17-0.89-6.06-2.9-6.5-7.13c-0.12-1.16-0.12-2.34-0.12-3.51
			c-0.01-22.69,0-45.39,0-68.08C31.64,344.92,31.67,344.92,31.7,344.92z M55.63,308.77c0,9.21,0.05,18.42-0.04,27.63
			c-0.02,1.94,0.48,2.56,2.5,2.54c13.74-0.09,27.48-0.05,41.22-0.04c4.53,0,9.03-0.3,13.51-0.92c12.49-1.73,19.67-8.07,21.78-19.83
			c1.58-8.78,1.6-17.66-0.36-26.42c-2.17-9.71-7.98-15.95-17.86-18.2c-3.52-0.8-7.08-1.35-10.68-1.39
			c-10.55-0.09-21.11-0.08-31.66-0.1c-3.35,0-6.71-0.07-10.05,0.1c-5.15,0.27-7.77,2.9-8.22,7.99c-0.1,1.08-0.13,2.17-0.13,3.26
			C55.63,291.86,55.63,300.31,55.63,308.77z"/>
		<path class="st3" d="M342.03,424.84c-4.27,0.95-8.29,1.35-12.39,1.21c-11.24-0.39-18.86-5.96-23.56-15.93
			c-3.8-8.08-5.66-16.78-8-25.32c-7.56-27.56-15.06-55.15-22.58-82.72c-0.22-0.81-0.41-1.62-0.56-2.44
			c-0.92-4.98,1.21-7.65,6.33-7.98c2.25-0.14,4.49-0.21,6.76-0.05c5.73,0.41,8.57,2.32,10.26,7.9c2.15,7.12,4.03,14.32,5.99,21.49
			c6.54,23.95,13.07,47.9,19.61,71.84c0.22,0.81,0.47,1.61,0.74,2.4c2.95,8.62,6.32,10.79,15.37,10.19c4.58-0.31,7.34-2.8,9.1-6.79
			c2-4.56,2.81-9.45,3.97-14.23c6.62-27.38,13.22-54.78,19.75-82.18c2.44-10.25,6.44-10.66,15.45-10.76
			c0.58-0.01,1.16,0.14,1.75,0.18c6.23,0.36,8.45,3.08,6.96,9.23c-4.65,19.17-9.45,38.32-14.23,57.46
			c-5.82,23.28-11.62,46.57-17.59,69.81c-2.53,9.85-6.25,19.25-12.09,27.68c-8.24,11.92-19.86,18.08-34.04,19.86
			c-2.75,0.35-5.49,0.63-8.27,0.51c-3.23-0.14-5.63-1.63-6.85-4.64c-1.22-3.04-1.98-6.23-2.16-9.5c-0.2-3.82,1.31-5.75,5.14-6.47
			c2.71-0.51,5.47-0.72,8.19-1.17c10.16-1.71,17.46-7.21,21.91-16.52C338.96,433.75,340.63,429.52,342.03,424.84z"/>
		<path class="st3" d="M266.92,356.83c-0.24,10.5,0.45,20.81-0.31,31.09c-1.42,19.22-10.56,30.49-29.12,35.18
			c-16.46,4.16-33.14,4.7-49.69,0.29c-18.67-4.98-28.87-18.57-28.96-37.84c-0.04-8.73,1.37-17.02,6.67-24.22
			c5.66-7.69,13.79-11.42,22.72-13.77c9.07-2.39,18.36-2.7,27.66-2.83c8.46-0.12,16.93-0.08,25.39,0.02c1.88,0.02,2.47-0.52,2.4-2.4
			c-0.15-4.18,0.09-8.38-0.13-12.56c-0.62-11.75-6.01-17.8-17.62-19.96c-10.66-1.98-21.35-1.37-32.03-0.29
			c-4.41,0.44-8.77,1.29-13.12,2.17c-5.73,1.16-8.61-1.17-9.03-7c-0.11-1.58-0.08-3.18-0.02-4.77c0.18-5.31,2.11-7.8,7.25-9.12
			c4.95-1.28,10.02-1.98,15.1-2.42c12.8-1.11,25.59-1.24,38.27,1.35c5.27,1.07,10.34,2.73,15.12,5.26
			c11.93,6.31,17.94,16.51,19.05,29.65C267.44,335.41,266.63,346.23,266.92,356.83z M222.95,363.9c-7.38,0.12-15.68-0.42-23.89,1.19
			c-10.24,2.01-15.66,6.91-16.77,16.25c-1.36,11.5,2.77,19.94,15.32,23.01c6.1,1.49,12.29,1.29,18.48,1.05
			c5.88-0.23,11.66-0.98,17.1-3.44c5.46-2.46,8.77-6.62,9.75-12.49c1.34-8.06,0.48-16.2,0.67-24.31c0.04-1.67-1.28-1.23-2.18-1.24
			C235.58,363.88,229.71,363.9,222.95,363.9z"/>
		<path class="st3" d="M549.74,249.52c0.02-1.59,0.03-3.18,0.07-4.77c0.12-4.38,2.77-7.49,7.09-7.54c12.14-0.15,24.28-0.15,36.41,0
			c4.22,0.05,7.04,2.99,7.07,7.31c0.09,12.29,0.04,24.59-0.12,36.89c-0.05,3.96-3.22,6.67-7.33,6.71
			c-6.03,0.06-12.05,0.05-18.08,0.07c0,0,0.04,0.04,0.04,0.04c-0.03-0.91-0.08-1.83-0.1-2.74c-0.2-7.92,0.47-15.86-0.43-23.76
			c-0.72-6.33-3.76-9.72-9.98-11.25c-4.84-1.2-9.78-0.94-14.7-1C549.7,249.48,549.74,249.52,549.74,249.52z"/>
		<path class="st3" d="M637.75,218.56c0,4.27,0.01,8.53,0,12.8c-0.02,3.87-2.02,5.97-5.82,5.98c-8.62,0.04-17.25,0.03-25.87,0
			c-3.69-0.01-5.78-2.06-5.8-5.75c-0.05-8.79-0.05-17.57,0-26.36c0.02-3.55,2.01-5.71,5.58-5.76c8.71-0.11,17.41-0.1,26.12,0
			c3.89,0.05,5.78,2.16,5.8,6.03C637.76,209.86,637.75,214.21,637.75,218.56z"/>
		<path class="st3" d="M600.32,186.83c0,2.84,0.04,5.68-0.01,8.52c-0.05,3.03-1.29,4.28-4.28,4.3c-5.6,0.03-11.21,0.03-16.81,0
			c-3.11-0.02-4.39-1.29-4.41-4.45c-0.04-5.6-0.04-11.2,0-16.8c0.02-3.3,1.24-4.55,4.56-4.58c5.44-0.06,10.87-0.06,16.31,0
			c3.55,0.04,4.72,1.4,4.66,4.98C600.29,181.48,600.33,184.15,600.32,186.83C600.33,186.83,600.32,186.83,600.32,186.83z"/>
	</g>
</g>
</svg>
