<?xml version="1.0" encoding="utf-8"?>
<!-- Generator: Adobe Illustrator 24.2.3, SVG Export Plug-In . SVG Version: 6.00 Build 0)  -->
<svg version="1.1" id="Capa_1" xmlns="http://www.w3.org/2000/svg" xmlns:xlink="http://www.w3.org/1999/xlink" x="0px" y="0px"
	 viewBox="0 0 650 650" style="enable-background:new 0 0 650 650;" xml:space="preserve">
<style type="text/css">
	.st0{fill:#1C5A99;}
	.st1{fill:#E6A73A;}
</style>
<g>
	<path class="st0" d="M28.37,191.64c-0.64-0.04-1.31,0.04-1.9-0.15c-1.34-0.44-3.64,0.57-3.45-2.28c0.16-2.33,1.12-3.23,3.62-3.16
		c6.62,0.19,13.26,0.08,19.89,0.06c1.4,0,2.8-0.1,4.2-0.15c1.91,0.04,3.82,0.1,5.74,0.1c17.09,0.05,34.18,0.08,51.26,0.12
		c0.31,3.82,0.61,7.64,0.92,11.45c-0.03,1.42-0.57,2.89,0.43,4.2c0.04,6.33,0.26,12.64,1.12,18.92c-0.03,1.42-0.57,2.89,0.43,4.2
		c-0.01,6.33,0.38,12.63,1.12,18.92c-0.03,1.42-0.57,2.89,0.43,4.2c0.37,7.33,0.74,14.67,1.11,22c-0.04,1.42-0.56,2.89,0.42,4.21
		c-0.09,11.23,1.41,22.4,1.38,33.6c0.78-2.55,1.56-5.1,2.34-7.65c0.88-2.08,1.76-4.16,2.64-6.23c0.91-1.77,1.83-3.54,2.74-5.31
		c2.04-3.81,4.08-7.63,6.13-11.44c1.03-1.83,2.07-3.65,3.1-5.48c1.21-2.06,2.96-3.82,3.43-6.27c2.46-3.6,4.75-7.29,6.42-11.33
		c2.66-3.69,4.85-7.65,6.81-11.75c4.94-7.37,8.93-15.29,13.35-22.96c1.56-2.84,3.12-5.67,4.67-8.51c1.25-0.72,1.57-1.97,1.86-3.24
		c2.67-3.92,5.15-7.94,7.04-12.31c0.96-0.48,1.31-1.34,1.43-2.34c0.21-0.15,0.31-0.35,0.3-0.6l0.06,0.03
		c0.41-0.63,0.96-1.21,1.21-1.9c1.38-3.75,3.97-4.64,7.9-4.56c12,0.25,24.02,0,36.03-0.05c3.33,0,6.67,0,10.23,0
		c-1,4.27-3.79,6.81-4.87,10.18c-4.66,7.53-9.18,15.15-13.06,23.12c-1.94,2.25-3.05,4.97-4.33,7.6c-1.02,1.09-1.84,2.3-2.23,3.76
		c-2.19,3.92-4.38,7.84-6.57,11.76c-0.89,1.21-2.07,2.25-2.28,3.86c-1.81,2.95-3.92,5.74-4.87,9.15l0.03-0.13
		c-0.21,0.3-0.42,0.6-0.64,0.9c-2.11,2.92-4.05,5.94-5.3,9.35c-0.73,0.92-1.57,1.79-1.66,3.06c-2.01,2.54-3.75,5.25-4.9,8.29
		c-4.4,7.75-8.8,15.51-13.2,23.26c-1.34,2.34-2.68,4.68-4.02,7.03c-0.95,1.46-2.05,2.84-2.44,4.59c-2.69,3.49-4.51,7.48-6.52,11.36
		c-1.03,1.83-2.07,3.66-3.1,5.49c-1.26,2.03-2.85,3.88-3.53,6.24c-2.32,3.67-4.66,7.33-6.32,11.37c-2.71,3.66-4.75,7.7-6.7,11.79
		c-2.02,3.34-4.21,6.59-5.98,10.06c-0.92,1.82-2.06,2.72-3.96,2.9c-15.71-0.32-31.42-0.31-47.13,0c-0.8-0.45-2.16,0.02-2.36-1.42
		c-1.03-9.23-2.05-18.46-3.08-27.68c0.37-2.4-0.69-4.65-0.78-7c-0.51-4.35-1.03-8.69-1.54-13.04c-0.34-3.11-0.67-6.23-1.01-9.34
		c-0.44-4.09-0.87-8.17-1.31-12.26c-0.33-2.59-0.67-5.18-1-7.77c-0.69-6.14-1.38-12.27-2.07-18.41c0.04-3.51-0.4-6.97-1.2-10.38
		c-0.09-3.51-0.38-6.99-1.12-10.43c-0.59-8.12-1.25-16.23-2.74-24.25c-0.09-3.82-0.44-7.6-1.88-11.2c-0.53-3.72-2.16-6.99-4.1-10.13
		c-1.2-2.53-2.78-4.78-4.97-6.56C44.21,194.7,36.77,192.08,28.37,191.64z"/>
	<path class="st0" d="M633.39,159.85c-2.58,7.09-7.58,11.27-15.02,12.53c-3.6-0.01-7.15-0.27-10.46-1.89
		c-0.85-0.47-1.71-0.94-2.57-1.41c-2.96-3.06-5.63-6.3-6.34-10.69c-0.15-0.38-0.3-0.75-0.45-1.13c-0.01-0.39-0.03-0.79-0.04-1.18
		c0.21-3.12,0.35-6.26,1.36-9.27c1.74-3.23,3.99-6.03,7.08-8.09c2.01-0.87,4.02-1.74,6.03-2.62c6.09-0.37,11.59,1.05,16.13,5.35
		c0.66,0.79,1.32,1.58,1.97,2.37C634.15,148.84,634.41,154.25,633.39,159.85z M627.71,146.03c-3.03-5.42-7.75-7.35-14.66-6.02
		c-5.4,1.03-9.01,4.9-9.98,10.69c-1.3,5.51-0.67,10.52,3.76,14.54c3.7,3.01,7.62,5.19,12.61,3.41c5.49-1.16,8.72-4.57,9.97-9.98
		C630.47,154.24,630.59,149.93,627.71,146.03z"/>
	<path class="st0" d="M609.18,144.32c4.36,0.32,8.9-0.86,12.99,1.63c2.61,4.77,2.04,7.17-2.28,9.56c-1.45,0.69-0.82,1.36,0.02,2.03
		c0,0-0.03-0.02-0.03-0.02c1.22,2.17,2.44,4.33,3.66,6.5c-3.35,1.91-4.01-1.68-5.88-2.79c0.08-0.94-0.15-1.83-0.78-2.49
		c-1.05-1.1-1.21-3.42-3.52-2.83c-2.65,0.67-0.9,2.77-1.1,4.16c-0.32,2.24,0.65,5.17-3.44,4.3c0-6.66,0-13.31,0-19.97l0.2,0.1
		L609.18,144.32z M615.63,147.39c-1.7,0.13-4-0.8-3.6,2.57c0.21,1.8-0.28,3.77,2.55,3.36c2.25-0.33,5.42,0.3,5.71-2.98
		C620.57,147.25,617.82,147.41,615.63,147.39z"/>
	<path class="st0" d="M596.13,232.84c-0.36,3.15,0.64,6.18,0.77,9.29c0.51,5.37,1.03,10.74,1.54,16.12
		c-0.06,1.16-0.49,2.37,0.41,3.42c-0.12,5.07,0.68,10.07,1.12,15.1c0.33,3.36,0.67,6.73,1,10.09c0.44,4.59,0.25,9.25,1.31,13.78
		c0.25,7.34,0.69,14.67,1.96,21.93c0.22,4.27,0.27,8.56,1.13,12.78c0.13,4.24,0.42,8.47,1.19,12.66c-0.03,4.29,0.49,8.54,1.12,12.77
		c-0.09,1.07-0.4,2.15,0.24,3.17c0.44,6.55,0.44,6.55-6.21,6.54c-14.7-0.02-29.41-0.04-44.11-0.06c-0.08-0.39-0.15-0.79-0.23-1.18
		c0.31-4.89-0.49-9.72-0.77-14.57c0.09-1.81,0.42-3.62-0.19-5.4c-0.04-1.15-0.23-2.32-0.1-3.45c0.24-2.21-0.64-2.8-2.8-2.79
		c-19.1,0.08-38.19,0.05-57.29,0.04c-1.28,0-2.63-0.18-3.08,1.51c-0.07,0.28-0.15,0.57-0.22,0.85c-3.77,8.17-7.53,16.35-11.3,24.52
		c-0.38,0.24-0.77,0.47-1.15,0.71c-17.6-0.01-35.19-0.03-52.79-0.04c-0.03-0.26-0.16-0.45-0.39-0.57c0.16-0.51,0.31-1.01,0.47-1.52
		c4.29-7.28,8.34-14.69,11.86-22.38c1.76-2.34,3.09-4.93,4.27-7.6c0.84-1.22,1.64-2.46,1.89-3.96c2.56-3.9,4.72-8.01,6.6-12.28
		c0.62-1.05,1.25-2.09,1.87-3.14c1.3-2.57,2.59-5.13,3.89-7.7l0.04-0.3c0.72-0.46,0.88-1.18,0.91-1.96l0,0.18
		c0.21-0.3,0.42-0.6,0.64-0.9c1.99-2.61,3.44-5.5,4.53-8.58c1.11-1.37,2.05-2.83,2.42-4.59c1.93-1.95,2.85-4.46,3.74-6.97
		c2.51-3.61,4.52-7.49,6.19-11.56c0.47-0.78,0.95-1.56,1.42-2.35c1.86-2.93,3.49-5.98,4.75-9.22l0.04-0.3
		c0.72-0.46,0.88-1.18,0.91-1.96l0,0.18c0.21-0.3,0.42-0.6,0.64-0.9c2.15-2.52,3.32-5.56,4.53-8.58c0.42-0.73,0.84-1.47,1.25-2.2
		c2.26-2.79,3.57-6.09,5.01-9.32c4.34-7.58,8.58-15.22,12.26-23.15c4.59-7.45,8.61-15.2,12.38-23.08c1.93-2.91,3.56-5.98,4.94-9.18
		c1.39-0.12,2.78-0.33,4.17-0.33c19.3-0.02,38.59,0.13,57.89-0.13c4.12-0.06,5.43,1.33,5.31,5.08c-0.04,1.09-0.33,2.32,0.56,3.29
		c0.23,4.27,0.27,8.56,1.13,12.78c0.13,4.24,0.42,8.47,1.19,12.66C594.98,224.36,595.5,228.61,596.13,232.84z M546.58,230.39
		c-2.35,3.64-3.99,7.6-5.26,11.72c-2.38,3.58-3.76,7.62-5.35,11.56c-1.25,1.25-1.37,3-2.03,4.51c-0.97,1.79-2.2,3.46-2.51,5.55
		c-1.97,4.33-3.94,8.65-5.91,12.98c-0.85,1.83-1.71,3.67-2.56,5.5c-0.94,2.02-1.89,4.04-2.83,6.05c-1.36,3.12-2.73,6.25-4.09,9.37
		c-1.48,3-2.98,6-4.42,9.02c-0.42,0.87-1.07,2.02,0.86,1.91c0.49,0.64,0.98,0.63,1.47,0c0.28,0,0.56,0,0.84,0
		c0.49,0.64,0.98,0.63,1.47,0c0.28,0,0.56,0,0.84,0c0.49,0.64,0.98,0.63,1.47,0c0.28,0,0.56,0,0.84,0c0.49,0.64,0.98,0.63,1.47,0
		c0.28,0,0.56,0,0.84,0c0.49,0.64,0.98,0.63,1.47,0c4.13,0,8.26,0,12.39,0c0.49,0.64,0.98,0.63,1.47,0c0.28,0,0.56,0,0.84,0
		c0.49,0.64,0.98,0.63,1.47,0c0.28,0,0.56,0,0.84,0c0.49,0.64,0.98,0.63,1.47,0c0.28,0,0.56,0,0.84,0c0.49,0.64,0.98,0.63,1.47,0
		c0.28,0,0.56,0,0.84,0c0.49,0.64,0.98,0.63,1.47,0c2.49-0.02,4.97-0.04,7.46-0.07c1.38-2.6,0.22-5.22,0.05-7.83
		c-0.1-2.31-0.19-4.62-0.29-6.94c0.13-1.02,0.3-2.05-0.18-3.04c-0.2-2.82-0.39-5.65-0.59-8.47c0.18-1.83,0.26-3.67-0.18-5.48
		c-0.2-3.83-0.39-7.66-0.59-11.49c-0.16-3.61-0.33-7.23-0.49-10.84c-0.09-4.09-0.19-8.19-0.28-12.28c0-3.87,0-7.73,0-11.6
		c0-3.92,0-7.85,0-12.8c-1.83,4.86-3.29,8.75-4.75,12.63L546.58,230.39z"/>
	<path class="st1" d="M605.77,477.13c0.35,3.26-1.92,1.55-3.2,1.69c-3.31-0.58-6.63-1.16-9.94-1.73c-0.36-0.75-1-0.7-1.66-0.59
		c-3.57-0.57-7.03-1.83-10.71-1.74c-3.8-1.07-7.63-1.94-11.59-2.11c-3.49-1.01-7.06-1.58-10.69-1.73c-3.96-1.75-8.34-1.1-12.42-2.12
		c-3.84-0.51-7.67-1.03-11.51-1.54c-3.77-1.24-7.77-0.73-11.6-1.54c-8.46-0.89-16.85-2.42-25.39-2.52c-3.5-1.2-7.21-0.67-10.77-1.33
		c-2.29-0.06-4.58-0.12-6.86-0.19c-5.09-1.21-10.34-0.73-15.48-1.35c-3.61,0.17-7.19-0.78-10.81-0.19
		c-3.79-1.37-7.7-0.52-11.56-0.58c-2.79,0.1-5.56-0.76-8.36-0.18c-5.11-1.49-10.32-0.45-15.49-0.59c-3.34,0-6.68,0-10.02,0
		c-5.68,0.13-11.4-0.92-17.03,0.59c-2.79-0.58-5.55,0.28-8.33,0.18c-4.41,0.14-8.88-0.91-13.23,0.59c-2.79,0.06-5.58,0.12-8.37,0.18
		c-3.86,0.26-7.73,0.51-11.59,0.77c-3.65-0.52-7.14,1-10.77,0.77c-3.81,0.84-7.78,0.2-11.56,1.33c-8.02,0.19-15.89,1.7-23.84,2.52
		c-3.87,0.51-7.73,1.03-11.6,1.54c-3.59,0.51-7.17,1.03-10.76,1.54c-4.06,1.07-8.38,0.75-12.35,2.31
		c-4.44,0.21-8.75,1.17-13.02,2.31c-4,0.14-7.85,1.09-11.69,2.13c-2.01,0.32-4.01,0.63-6.02,0.95c-1.4,1.08-3.42,0.01-4.75,1.36
		c-3.7,0.21-7.22,1.24-10.73,2.31c-4.49,0.58-8.84,1.78-13.16,3.09c-3.4,0.43-6.72,1.21-9.91,2.49c-2.81-0.12-5.2,1.3-7.75,2.12
		c-1.31,0.16-2.69,0.01-3.8,0.96c-4.05,0.35-7.75,1.99-11.6,3.08c-3.84,1.03-7.67,2.05-11.51,3.08c-7.38,2.73-15.19,4.18-22.37,7.51
		c-4.41,0.33-8.24,2.5-12.33,3.86c-1.08,0.31-2.2,0.53-3.24,0.94c-6.61,2.57-13.55,4.23-19.87,7.54c-4.07,0.68-7.76,2.46-11.51,4.04
		c-2.88,1.13-5.96,1.79-8.52,3.66c-1.1,0.04-2.13,0.27-3.03,0.96c-3.87,1.54-7.73,3.08-11.6,4.63c-4.88,2.06-9.75,4.11-14.63,6.17
		c-0.76-0.16-1.28-0.39-1.53-1.34c-1.26-4.81,3.01-5.3,5.47-7.2c1.49-0.57,2.99-1.15,4.48-1.72c2.36-1.22,4.71-2.45,7.07-3.67
		c3.57-1.62,7.13-3.24,10.7-4.86c3.85-1.78,7.69-3.56,11.54-5.35c4.14-1.99,8.28-3.99,12.42-5.98c2.52-1.09,5.05-2.18,7.57-3.27
		c1.05-0.52,2.1-1.03,3.16-1.55c4.01-1.39,8-2.84,11.58-5.18c3.84-0.97,7.44-2.49,10.76-4.65c0.49-0.06,0.97-0.12,1.46-0.18
		c3.62-1.54,7.24-3.09,10.86-4.63c7.69-3.08,15.37-6.16,23.06-9.25c4.06-0.98,7.95-2.37,11.6-4.43c7.86-2.12,15.37-5.29,23.06-7.9
		c4.14-1.48,8.28-2.96,12.42-4.43c7.43-2.31,14.86-4.63,22.29-6.94c4.46-1.02,8.88-2.21,13.16-3.86c6.9-1.86,13.81-3.72,20.71-5.58
		c4.65-1.22,9.3-2.45,13.95-3.67c3.4-0.44,6.73-1.18,9.91-2.49c4.47-0.65,8.88-1.55,13.2-2.89c3.03-0.57,6.07-1.15,9.1-1.72
		c0.67,0.12,1.31,0.17,1.67-0.59c3.31-0.58,6.62-1.15,9.94-1.73c4.65-0.97,9.3-1.93,13.95-2.9c3.37-0.2,6.73-0.43,9.9-1.72
		c4.7-0.42,9.4-0.86,13.98-2.13c5.46-0.22,10.79-1.33,16.14-2.33c5.45,0.1,10.75-1.21,16.14-1.7c3.78-0.93,7.81-0.01,11.51-1.54
		c3.93,0.63,7.73-0.6,11.6-0.77c3.64,0.53,7.14-1,10.76-0.77c3.35-0.21,6.71-0.36,10.05-0.67c2.07-0.19,4.28,0.75,6.21-0.69
		c2.53-0.06,5.06-0.12,7.59-0.18c3.9,0.23,7.79,0.29,11.6-0.77c3.84,0,7.67,0,11.51,0c11.57,0,23.14,0,34.71,0
		c3.84,0,7.67,0,11.51,0c3.86,0.29,7.69,1.23,11.6,0.77c3.56,0.06,7.12,0.13,10.69,0.19c5.35,1.24,10.84,0.65,16.23,1.35
		c2.29,0.06,4.58,0.13,6.87,0.19c4.05,1.31,8.32,0.57,12.42,1.35c3.87-0.22,7.61,1.45,11.51,0.77c1.09,1.8,4.26-0.46,4.77,2.46
		c-0.06,4.1-0.13,8.19-0.19,12.29c-1.15,3.3-0.66,6.69-0.58,10.06c-0.06,3.31-0.12,6.61-0.18,9.92c-1.53,4.34-0.44,8.8-0.59,13.2
		C606.08,469.44,605.49,473.26,605.77,477.13z"/>
	<path class="st0" d="M249.98,196.12c0.79-2.83,1.57-5.65,2.36-8.48c0.89-1.96,2.66-1.57,4.26-1.57c13.75-0.03,27.5-0.05,41.24-0.07
		c0.51,0.04,1.03,0.17,1.52,0.1c2.93-0.41,3.95,0.41,2.68,3.45c-0.87,2.09-1.24,4.39-1.84,6.59c-2.47,7.96-4.94,15.92-7.41,23.88
		c-0.87,3.09-1.74,6.17-2.61,9.26c-2.39,7.86-4.79,15.71-7.18,23.57c-1.52,3.86-2.68,7.83-3.6,11.88c-1.43,4.61-2.87,9.21-4.3,13.82
		c-0.11,0.53-0.22,1.06-0.33,1.59c-1.39,2.55-1.72,5.44-2.57,8.16c-1.2,3.96-2.39,7.92-3.59,11.87c-1.17,3.83-2.35,7.66-3.52,11.49
		c-2.49,7.12-4.66,14.34-6.5,21.65c-1.43,4.6-2.86,9.21-4.29,13.81c-1.13,3.87-2.27,7.74-3.4,11.6c-0.14,0.48-0.29,0.97-0.43,1.45
		c-1.08,2.8-2.27,5.58-2.57,8.61c-0.65,2.5-2.68,1.92-4.4,1.93c-15.13,0.07-30.26,0.12-45.4,0.17c-0.76-1.23-0.23-2.34,0.15-3.56
		c0.94-3.09,1.69-6.25,2.51-9.38c1.75-3.3,2.21-7,3.35-10.5c0.39-1.39,0.79-2.78,1.18-4.18c0.95-3.05,1.9-6.1,2.84-9.16
		c1.1-3.62,2.21-7.24,3.31-10.86c1.21-4.09,2.41-8.17,3.62-12.26c2.66-7.06,4.59-14.34,6.49-21.64c1.43-4.61,2.87-9.21,4.3-13.82
		c0.85-2.85,1.7-5.71,2.54-8.56c0.43-1.24,0.86-2.48,1.29-3.72c0.88-3.11,1.77-6.23,2.65-9.34c1.18-3.84,2.35-7.67,3.53-11.51
		c1.1-3.63,2.21-7.25,3.31-10.88c2.49-8.18,4.97-16.36,7.46-24.54C247.77,203.37,248.87,199.75,249.98,196.12z"/>
	<path class="st0" d="M426.31,329.82c-4.01,8.04-8.87,15.5-15.14,21.98c-0.48,0.38-0.95,0.76-1.43,1.14
		c-3.87,2.83-7.74,5.65-11.61,8.48c-1.75,0.83-3.5,1.66-5.26,2.49c-1.57,0.59-3.14,1.19-4.71,1.78c-4.34,1.21-8.67,2.41-13.01,3.62
		c-2.59,0.33-5.19,0.67-7.78,1c-2.81,0.18-5.62,0.36-8.44,0.54c-12.96,0.31-25.8-0.8-38.55-3.09c-8.23-2.29-16.39-4.8-24.3-8.05
		c-3.29-1.51-6.59-3.03-9.88-4.54c-1.74-1.41-3.68-2.45-5.73-3.32c-3.06-1.28-3.46-2.88-1.04-5.4c1.26-1.31,1.91-3.2,2.84-4.82
		c0.78-1.06,1.56-2.11,2.34-3.17c1.79-2.79,3.58-5.59,5.37-8.38c2.48-3.7,4.92-7.43,7.43-11.11c3.51-5.15,3.53-5.14,9.09-2.55
		c1.15,0.65,2.3,1.3,3.45,1.95c2.76,2.02,5.69,3.74,8.89,4.99c3.14,1.92,6.51,3.29,10.07,4.18c3.73,1.64,7.7,2.37,11.69,2.91
		c8.43,1.15,16.88,1.99,25.22-0.69c3.33-0.5,5.71-2.71,7.96-4.85c6.14-5.86,6.84-12.92,2.18-19c-3.03-3.56-6.62-6.4-10.83-8.45
		c-0.93-1.31-2.45-1.66-3.79-2.31c-2.86-1.77-5.72-3.54-8.58-5.31c-7.93-5.38-15.89-10.71-23.08-17.09
		c-0.51-0.5-1.02-0.99-1.53-1.49c-6.75-7.09-12.44-14.82-14.79-24.56c-0.26-3.1-0.51-6.21-0.77-9.31c0.37-3.49,0.74-6.97,1.12-10.46
		c1.2-3.7,2.4-7.41,3.6-11.11c0.65-1.5,1.31-3,1.96-4.51c1.69-2.85,3.38-5.7,5.07-8.55c1.79-2.03,3.59-4.07,5.38-6.1
		c1.8-1.56,3.6-3.12,5.4-4.68c2.03-1.31,4.06-2.62,6.09-3.92c3.36-1.65,6.71-3.3,10.07-4.94c3.05-0.95,6.1-1.9,9.15-2.85
		c1.65-0.4,3.3-0.79,4.95-1.19c4.51-0.63,9.02-1.27,13.53-1.9c3.87,0,7.73,0,11.6,0c2.47,0.12,4.95,0.25,7.42,0.37
		c3.96,0.65,7.92,1.3,11.88,1.95c1.5,0.43,2.99,0.86,4.49,1.29c2.1,0.6,4.2,1.2,6.3,1.8c4.85,1.98,9.7,3.96,14.55,5.93
		c5.08,3.14,10.36,5.95,15.3,9.35c1.73,1.19,1.7,2.17,0.81,3.64c-2.61,2.64-5.28,5.22-7.02,8.57l0.02,0.12
		c-1.22-0.05-1.39,0.99-1.84,1.75c-0.67,0.11-1.03,0.55-1.23,1.16c-4.49,5.21-9.17,10.27-13.4,15.69c-2.04,2.62-3.55,2.62-5.64,0.49
		c-1.56-1.14-3.13-2.28-4.69-3.42c-0.15-0.21-0.35-0.31-0.6-0.3c0,0,0.02,0.11,0.02,0.11c-1.81-1.79-3.91-3.15-6.27-4.1
		c-3.73-1.99-7.29-4.4-11.63-4.95c-4.74-1.92-9.68-2.16-14.7-1.71c-2.65-0.14-5.22,0.24-7.68,1.27c-5.36,1.46-9.86,4-11.9,9.59
		c-1.85,3.78-1.64,7.42,0.76,10.91c2.3,4.01,5.71,6.86,9.57,9.25c1.35,1.34,2.88,2.42,4.68,3.09c2.28,2.07,4.94,3.57,7.66,4.96
		c3.49,2.23,6.97,4.47,10.46,6.7c0.36,0.22,0.72,0.44,1.08,0.66c3.81,2.93,7.63,5.86,11.44,8.79c0.61,1.49,2.12,2.08,3.15,3.16
		c2.49,2.72,4.97,5.43,7.46,8.15c0.61,0.74,1.23,1.49,1.84,2.23c1.94,3.6,3.87,7.2,5.81,10.8c1.41,3.98,2.53,8.03,2.85,12.26
		c-0.29,3.86-0.57,7.73-0.86,11.59C429.17,322.16,427.74,325.99,426.31,329.82z"/>
</g>
</svg>
